G04*
G04 #@! TF.GenerationSoftware,Altium Limited,Altium Designer,21.6.1 (37)*
G04*
G04 Layer_Physical_Order=2*
G04 Layer_Color=36540*
%FSLAX25Y25*%
%MOIN*%
G70*
G04*
G04 #@! TF.SameCoordinates,2BFBD6BA-AEF6-41C8-8910-B4040FF44907*
G04*
G04*
G04 #@! TF.FilePolarity,Positive*
G04*
G01*
G75*
%ADD137R,0.07087X0.07087*%
%ADD138C,0.07087*%
%ADD139C,0.01575*%
%ADD140C,0.03960*%
%ADD143C,0.01968*%
%ADD144C,0.02000*%
G36*
X260791Y271543D02*
X260188Y270641D01*
X259609Y269242D01*
X259313Y267757D01*
Y266243D01*
X259609Y264758D01*
X260188Y263359D01*
X261029Y262100D01*
X262100Y261029D01*
X263359Y260188D01*
X264758Y259609D01*
X266243Y259313D01*
X267757D01*
X269242Y259609D01*
X270641Y260188D01*
X271900Y261029D01*
X272971Y262100D01*
X273812Y263359D01*
X274071Y263985D01*
X274571Y263885D01*
Y11615D01*
X274071Y11515D01*
X273812Y12141D01*
X272971Y13400D01*
X271900Y14471D01*
X270641Y15312D01*
X269242Y15891D01*
X267757Y16187D01*
X266243D01*
X264758Y15891D01*
X263359Y15312D01*
X262100Y14471D01*
X261029Y13400D01*
X260188Y12141D01*
X259609Y10742D01*
X259313Y9257D01*
Y7743D01*
X259609Y6258D01*
X260188Y4859D01*
X261029Y3600D01*
X262100Y2529D01*
X263359Y1688D01*
X263766Y1520D01*
X263667Y1020D01*
X11833D01*
X11734Y1520D01*
X12141Y1688D01*
X13400Y2529D01*
X14471Y3600D01*
X15312Y4859D01*
X15891Y6258D01*
X16187Y7743D01*
Y9257D01*
X15891Y10742D01*
X15312Y12141D01*
X14471Y13400D01*
X13400Y14471D01*
X12141Y15312D01*
X10742Y15891D01*
X9257Y16187D01*
X7743D01*
X6258Y15891D01*
X4859Y15312D01*
X3600Y14471D01*
X2529Y13400D01*
X1688Y12141D01*
X1519Y11734D01*
X1020Y11833D01*
Y34869D01*
X1519Y35192D01*
X1862Y35050D01*
Y37008D01*
Y38966D01*
X1519Y38824D01*
X1020Y39147D01*
Y44711D01*
X1519Y45035D01*
X1862Y44893D01*
Y46850D01*
Y48808D01*
X1519Y48666D01*
X1020Y48989D01*
Y54554D01*
X1519Y54877D01*
X1862Y54735D01*
Y56693D01*
X2862D01*
Y54735D01*
X3495Y54997D01*
X4058Y55560D01*
X4362Y56295D01*
Y57000D01*
X10205D01*
Y56295D01*
X10509Y55560D01*
X11072Y54997D01*
X11705Y54735D01*
Y56693D01*
X12705D01*
Y54735D01*
X13338Y54997D01*
X13900Y55560D01*
X14205Y56295D01*
Y57000D01*
X20047D01*
Y56295D01*
X20352Y55560D01*
X20914Y54997D01*
X21547Y54735D01*
Y56693D01*
X22547D01*
Y54735D01*
X23180Y54997D01*
X23743Y55560D01*
X24047Y56295D01*
Y57000D01*
X25500D01*
Y61328D01*
X25586Y61386D01*
X26382D01*
X27117Y61690D01*
X27680Y62253D01*
X27942Y62886D01*
X25984D01*
Y63886D01*
X27942D01*
X27680Y64519D01*
X27117Y65081D01*
X26382Y65386D01*
X25586D01*
X25500Y65444D01*
Y71171D01*
X25586Y71228D01*
X26382D01*
X27117Y71533D01*
X27680Y72095D01*
X27942Y72728D01*
X25984D01*
Y73728D01*
X27942D01*
X27680Y74361D01*
X27117Y74924D01*
X26382Y75228D01*
X25586D01*
X25500Y75286D01*
Y81013D01*
X25586Y81071D01*
X26382D01*
X27117Y81375D01*
X27680Y81938D01*
X27942Y82571D01*
X25984D01*
Y83571D01*
X27942D01*
X27680Y84204D01*
X27117Y84766D01*
X26382Y85071D01*
X25586D01*
X25500Y85129D01*
Y90856D01*
X25586Y90913D01*
X26382D01*
X27117Y91218D01*
X27680Y91781D01*
X27942Y92413D01*
X25984D01*
Y93413D01*
X27942D01*
X27680Y94046D01*
X27117Y94609D01*
X26382Y94913D01*
X25586D01*
X25500Y94971D01*
Y100698D01*
X25586Y100756D01*
X26382D01*
X27117Y101060D01*
X27680Y101623D01*
X27942Y102256D01*
X25984D01*
Y103256D01*
X27942D01*
X27680Y103889D01*
X27117Y104451D01*
X26382Y104756D01*
X25586D01*
X25500Y104814D01*
Y110541D01*
X25586Y110598D01*
X26382D01*
X27117Y110903D01*
X27680Y111466D01*
X27942Y112098D01*
X25984D01*
Y113098D01*
X27942D01*
X27680Y113731D01*
X27117Y114294D01*
X26382Y114598D01*
X25586D01*
X25500Y114656D01*
Y120383D01*
X25586Y120441D01*
X26382D01*
X27117Y120745D01*
X27680Y121308D01*
X27942Y121941D01*
X25984D01*
Y122941D01*
X27942D01*
X27680Y123574D01*
X27117Y124136D01*
X26382Y124441D01*
X25586D01*
X25500Y124499D01*
Y130226D01*
X25586Y130283D01*
X26382D01*
X27117Y130588D01*
X27680Y131151D01*
X27942Y131783D01*
X25984D01*
Y132783D01*
X27942D01*
X27680Y133416D01*
X27117Y133979D01*
X26382Y134283D01*
X25586D01*
X25500Y134341D01*
Y140068D01*
X25586Y140126D01*
X26382D01*
X27117Y140430D01*
X27680Y140993D01*
X27942Y141626D01*
X25984D01*
Y142626D01*
X27942D01*
X27680Y143259D01*
X27117Y143822D01*
X26382Y144126D01*
X25586D01*
X25500Y144184D01*
Y147500D01*
X24137D01*
X24115Y147531D01*
X19979D01*
X19958Y147500D01*
X14294D01*
X14273Y147531D01*
X10136D01*
X10115Y147500D01*
X4451D01*
X4431Y147531D01*
X2362D01*
Y148031D01*
X1862D01*
Y149989D01*
X1519Y149847D01*
X1020Y150171D01*
Y155735D01*
X1519Y156058D01*
X1862Y155916D01*
Y157874D01*
Y159832D01*
X1519Y159690D01*
X1020Y160013D01*
Y165577D01*
X1519Y165901D01*
X1862Y165759D01*
Y167717D01*
Y169674D01*
X1519Y169532D01*
X1020Y169855D01*
Y263667D01*
X1519Y263766D01*
X1688Y263359D01*
X2529Y262100D01*
X3600Y261029D01*
X4859Y260188D01*
X6258Y259609D01*
X7743Y259313D01*
X9257D01*
X10742Y259609D01*
X12141Y260188D01*
X13400Y261029D01*
X14471Y262100D01*
X15312Y263359D01*
X15891Y264758D01*
X16187Y266243D01*
Y267757D01*
X15891Y269242D01*
X15312Y270641D01*
X14709Y271543D01*
X14976Y272043D01*
X24132D01*
X24383Y271792D01*
X24479Y271728D01*
X24562Y271649D01*
X25308Y271180D01*
X25415Y271139D01*
X25514Y271081D01*
X26346Y270790D01*
X26460Y270774D01*
X26569Y270739D01*
X27445Y270640D01*
X27502Y270645D01*
X27559Y270634D01*
X66929D01*
X66986Y270645D01*
X67043Y270640D01*
X67919Y270739D01*
X68028Y270774D01*
X68142Y270790D01*
X68974Y271081D01*
X69073Y271139D01*
X69180Y271180D01*
X69926Y271649D01*
X70009Y271728D01*
X70105Y271792D01*
X70357Y272043D01*
X205234D01*
X205486Y271792D01*
X205581Y271728D01*
X205664Y271649D01*
X206411Y271180D01*
X206518Y271139D01*
X206616Y271081D01*
X207449Y270790D01*
X207562Y270774D01*
X207671Y270739D01*
X208547Y270640D01*
X208605Y270645D01*
X208661Y270634D01*
X248031D01*
X248088Y270645D01*
X248146Y270640D01*
X249022Y270739D01*
X249131Y270774D01*
X249244Y270790D01*
X250076Y271081D01*
X250175Y271139D01*
X250282Y271180D01*
X251029Y271649D01*
X251112Y271728D01*
X251207Y271792D01*
X251459Y272043D01*
X260524D01*
X260791Y271543D01*
D02*
G37*
%LPC*%
G36*
X196862Y269520D02*
Y268062D01*
X198320D01*
X198058Y268695D01*
X197495Y269258D01*
X196862Y269520D01*
D02*
G37*
G36*
X195862D02*
X195229Y269258D01*
X194667Y268695D01*
X194404Y268062D01*
X195862D01*
Y269520D01*
D02*
G37*
G36*
X191918Y269300D02*
X191282D01*
X190694Y269056D01*
X190244Y268606D01*
X190000Y268018D01*
Y267382D01*
X190244Y266794D01*
X190694Y266344D01*
X191282Y266100D01*
X191918D01*
X192506Y266344D01*
X192956Y266794D01*
X193200Y267382D01*
Y268018D01*
X192956Y268606D01*
X192506Y269056D01*
X191918Y269300D01*
D02*
G37*
G36*
X198320Y267062D02*
X196862D01*
Y265604D01*
X197495Y265867D01*
X198058Y266429D01*
X198320Y267062D01*
D02*
G37*
G36*
X195862D02*
X194404D01*
X194667Y266429D01*
X195229Y265867D01*
X195862Y265604D01*
Y267062D01*
D02*
G37*
G36*
X19500Y262958D02*
Y261500D01*
X20958D01*
X20696Y262133D01*
X20133Y262696D01*
X19500Y262958D01*
D02*
G37*
G36*
X18500D02*
X17867Y262696D01*
X17304Y262133D01*
X17042Y261500D01*
X18500D01*
Y262958D01*
D02*
G37*
G36*
X108543Y264543D02*
X104500D01*
Y260500D01*
X108543D01*
Y264543D01*
D02*
G37*
G36*
X103500D02*
X99457D01*
Y260500D01*
X103500D01*
Y264543D01*
D02*
G37*
G36*
X20958Y260500D02*
X19500D01*
Y259042D01*
X20133Y259304D01*
X20696Y259867D01*
X20958Y260500D01*
D02*
G37*
G36*
X18500D02*
X17042D01*
X17304Y259867D01*
X17867Y259304D01*
X18500Y259042D01*
Y260500D01*
D02*
G37*
G36*
X256500Y259958D02*
Y258500D01*
X257958D01*
X257696Y259133D01*
X257133Y259696D01*
X256500Y259958D01*
D02*
G37*
G36*
X255500D02*
X254867Y259696D01*
X254305Y259133D01*
X254042Y258500D01*
X255500D01*
Y259958D01*
D02*
G37*
G36*
X237900D02*
Y258500D01*
X239357D01*
X239095Y259133D01*
X238532Y259696D01*
X237900Y259958D01*
D02*
G37*
G36*
X236900D02*
X236267Y259696D01*
X235704Y259133D01*
X235442Y258500D01*
X236900D01*
Y259958D01*
D02*
G37*
G36*
X181318Y261600D02*
X180682D01*
X180094Y261356D01*
X179644Y260906D01*
X179400Y260318D01*
Y259682D01*
X179644Y259094D01*
X180094Y258644D01*
X180682Y258400D01*
X181318D01*
X181906Y258644D01*
X182356Y259094D01*
X182600Y259682D01*
Y260318D01*
X182356Y260906D01*
X181906Y261356D01*
X181318Y261600D01*
D02*
G37*
G36*
X141318D02*
X140682D01*
X140094Y261356D01*
X139644Y260906D01*
X139400Y260318D01*
Y259682D01*
X139644Y259094D01*
X140094Y258644D01*
X140682Y258400D01*
X141318D01*
X141906Y258644D01*
X142356Y259094D01*
X142600Y259682D01*
Y260318D01*
X142356Y260906D01*
X141906Y261356D01*
X141318Y261600D01*
D02*
G37*
G36*
X132318D02*
X131682D01*
X131094Y261356D01*
X130644Y260906D01*
X130400Y260318D01*
Y259682D01*
X130644Y259094D01*
X131094Y258644D01*
X131682Y258400D01*
X132318D01*
X132906Y258644D01*
X133356Y259094D01*
X133600Y259682D01*
Y260318D01*
X133356Y260906D01*
X132906Y261356D01*
X132318Y261600D01*
D02*
G37*
G36*
X229056Y259600D02*
X228420D01*
X227832Y259356D01*
X227382Y258906D01*
X227138Y258318D01*
Y257682D01*
X227382Y257094D01*
X227832Y256644D01*
X228420Y256400D01*
X229056D01*
X229644Y256644D01*
X230095Y257094D01*
X230338Y257682D01*
Y258318D01*
X230095Y258906D01*
X229644Y259356D01*
X229056Y259600D01*
D02*
G37*
G36*
X257958Y257500D02*
X256500D01*
Y256042D01*
X257133Y256305D01*
X257696Y256867D01*
X257958Y257500D01*
D02*
G37*
G36*
X255500D02*
X254042D01*
X254305Y256867D01*
X254867Y256305D01*
X255500Y256042D01*
Y257500D01*
D02*
G37*
G36*
X239357D02*
X237900D01*
Y256042D01*
X238532Y256305D01*
X239095Y256867D01*
X239357Y257500D01*
D02*
G37*
G36*
X236900D02*
X235442D01*
X235704Y256867D01*
X236267Y256305D01*
X236900Y256042D01*
Y257500D01*
D02*
G37*
G36*
X124546Y264143D02*
X123454D01*
X122401Y263861D01*
X121456Y263316D01*
X120685Y262544D01*
X120139Y261599D01*
X119857Y260545D01*
Y259454D01*
X120139Y258401D01*
X120685Y257456D01*
X121456Y256684D01*
X122401Y256139D01*
X123454Y255857D01*
X124546D01*
X125599Y256139D01*
X126544Y256684D01*
X127315Y257456D01*
X127861Y258401D01*
X128143Y259454D01*
Y260545D01*
X127861Y261599D01*
X127315Y262544D01*
X126544Y263316D01*
X125599Y263861D01*
X124546Y264143D01*
D02*
G37*
G36*
X114546D02*
X113454D01*
X112401Y263861D01*
X111456Y263316D01*
X110685Y262544D01*
X110139Y261599D01*
X109857Y260545D01*
Y259454D01*
X110139Y258401D01*
X110685Y257456D01*
X111456Y256684D01*
X112401Y256139D01*
X113454Y255857D01*
X114546D01*
X115599Y256139D01*
X116544Y256684D01*
X117315Y257456D01*
X117861Y258401D01*
X118143Y259454D01*
Y260545D01*
X117861Y261599D01*
X117315Y262544D01*
X116544Y263316D01*
X115599Y263861D01*
X114546Y264143D01*
D02*
G37*
G36*
X108543Y259500D02*
X104000D01*
X99457D01*
Y255457D01*
X103398D01*
X103498Y254957D01*
X102867Y254696D01*
X102304Y254133D01*
X102042Y253500D01*
X105958D01*
X105695Y254133D01*
X105133Y254696D01*
X104502Y254957D01*
X104602Y255457D01*
X108543D01*
Y259500D01*
D02*
G37*
G36*
X105958Y252500D02*
X104500D01*
Y251042D01*
X105133Y251305D01*
X105695Y251867D01*
X105958Y252500D01*
D02*
G37*
G36*
X103500D02*
X102042D01*
X102304Y251867D01*
X102867Y251305D01*
X103500Y251042D01*
Y252500D01*
D02*
G37*
G36*
X141318Y252600D02*
X140682D01*
X140094Y252356D01*
X139644Y251906D01*
X139400Y251318D01*
Y250682D01*
X139644Y250094D01*
X140094Y249644D01*
X140682Y249400D01*
X141318D01*
X141906Y249644D01*
X142356Y250094D01*
X142600Y250682D01*
Y251318D01*
X142356Y251906D01*
X141906Y252356D01*
X141318Y252600D01*
D02*
G37*
G36*
X132318D02*
X131682D01*
X131094Y252356D01*
X130644Y251906D01*
X130400Y251318D01*
Y250682D01*
X130644Y250094D01*
X131094Y249644D01*
X131682Y249400D01*
X132318D01*
X132906Y249644D01*
X133356Y250094D01*
X133600Y250682D01*
Y251318D01*
X133356Y251906D01*
X132906Y252356D01*
X132318Y252600D01*
D02*
G37*
G36*
X114318D02*
X113682D01*
X113094Y252356D01*
X112644Y251906D01*
X112400Y251318D01*
Y250682D01*
X112644Y250094D01*
X113094Y249644D01*
X113682Y249400D01*
X114318D01*
X114906Y249644D01*
X115356Y250094D01*
X115600Y250682D01*
Y251318D01*
X115356Y251906D01*
X114906Y252356D01*
X114318Y252600D01*
D02*
G37*
G36*
X25318Y249100D02*
X24682D01*
X24094Y248856D01*
X23644Y248406D01*
X23400Y247818D01*
Y247182D01*
X23644Y246594D01*
X24094Y246144D01*
X24682Y245900D01*
X25318D01*
X25906Y246144D01*
X26356Y246594D01*
X26600Y247182D01*
Y247818D01*
X26356Y248406D01*
X25906Y248856D01*
X25318Y249100D01*
D02*
G37*
G36*
X13318D02*
X12682D01*
X12094Y248856D01*
X11644Y248406D01*
X11400Y247818D01*
Y247182D01*
X11644Y246594D01*
X12094Y246144D01*
X12682Y245900D01*
X13318D01*
X13906Y246144D01*
X14356Y246594D01*
X14600Y247182D01*
Y247818D01*
X14356Y248406D01*
X13906Y248856D01*
X13318Y249100D01*
D02*
G37*
G36*
X79318Y246600D02*
X78682D01*
X78094Y246356D01*
X77644Y245906D01*
X77400Y245318D01*
Y244682D01*
X77644Y244094D01*
X78094Y243644D01*
X78682Y243400D01*
X79318D01*
X79906Y243644D01*
X80356Y244094D01*
X80600Y244682D01*
Y245318D01*
X80356Y245906D01*
X79906Y246356D01*
X79318Y246600D01*
D02*
G37*
G36*
X132500Y242258D02*
Y240800D01*
X133958D01*
X133695Y241433D01*
X133133Y241996D01*
X132500Y242258D01*
D02*
G37*
G36*
X131500D02*
X130867Y241996D01*
X130305Y241433D01*
X130042Y240800D01*
X131500D01*
Y242258D01*
D02*
G37*
G36*
X104500Y241958D02*
Y240500D01*
X105958D01*
X105695Y241133D01*
X105133Y241695D01*
X104500Y241958D01*
D02*
G37*
G36*
X103500D02*
X102867Y241695D01*
X102304Y241133D01*
X102042Y240500D01*
X103500D01*
Y241958D01*
D02*
G37*
G36*
X133958Y239800D02*
X132500D01*
Y238342D01*
X133133Y238604D01*
X133695Y239167D01*
X133958Y239800D01*
D02*
G37*
G36*
X131500D02*
X130042D01*
X130305Y239167D01*
X130867Y238604D01*
X131500Y238342D01*
Y239800D01*
D02*
G37*
G36*
X105958Y239500D02*
X104500D01*
Y238042D01*
X105133Y238304D01*
X105695Y238867D01*
X105958Y239500D01*
D02*
G37*
G36*
X103500D02*
X102042D01*
X102304Y238867D01*
X102867Y238304D01*
X103500Y238042D01*
Y239500D01*
D02*
G37*
G36*
X19318Y239600D02*
X18682D01*
X18094Y239356D01*
X17644Y238906D01*
X17400Y238318D01*
Y237682D01*
X17644Y237094D01*
X18094Y236644D01*
X18682Y236400D01*
X19318D01*
X19906Y236644D01*
X20356Y237094D01*
X20600Y237682D01*
Y238318D01*
X20356Y238906D01*
X19906Y239356D01*
X19318Y239600D01*
D02*
G37*
G36*
X188818Y237600D02*
X188182D01*
X187594Y237356D01*
X187144Y236906D01*
X186900Y236318D01*
Y235682D01*
X187144Y235094D01*
X187594Y234644D01*
X188182Y234400D01*
X188818D01*
X189406Y234644D01*
X189856Y235094D01*
X190100Y235682D01*
Y236318D01*
X189856Y236906D01*
X189406Y237356D01*
X188818Y237600D01*
D02*
G37*
G36*
X113600Y232458D02*
Y231000D01*
X115058D01*
X114795Y231633D01*
X114233Y232195D01*
X113600Y232458D01*
D02*
G37*
G36*
X112600D02*
X111967Y232195D01*
X111405Y231633D01*
X111142Y231000D01*
X112600D01*
Y232458D01*
D02*
G37*
G36*
X197000Y231458D02*
Y230000D01*
X198458D01*
X198196Y230633D01*
X197633Y231195D01*
X197000Y231458D01*
D02*
G37*
G36*
X196000D02*
X195367Y231195D01*
X194805Y230633D01*
X194542Y230000D01*
X196000D01*
Y231458D01*
D02*
G37*
G36*
X115058Y230000D02*
X113600D01*
Y228542D01*
X114233Y228804D01*
X114795Y229367D01*
X115058Y230000D01*
D02*
G37*
G36*
X112600D02*
X111142D01*
X111405Y229367D01*
X111967Y228804D01*
X112600Y228542D01*
Y230000D01*
D02*
G37*
G36*
X198458Y229000D02*
X197000D01*
Y227542D01*
X197633Y227804D01*
X198196Y228367D01*
X198458Y229000D01*
D02*
G37*
G36*
X196000D02*
X194542D01*
X194805Y228367D01*
X195367Y227804D01*
X196000Y227542D01*
Y229000D01*
D02*
G37*
G36*
X79500Y228958D02*
Y227500D01*
X80958D01*
X80695Y228133D01*
X80133Y228696D01*
X79500Y228958D01*
D02*
G37*
G36*
X78500D02*
X77867Y228696D01*
X77305Y228133D01*
X77042Y227500D01*
X78500D01*
Y228958D01*
D02*
G37*
G36*
X80958Y226500D02*
X79500D01*
Y225042D01*
X80133Y225305D01*
X80695Y225867D01*
X80958Y226500D01*
D02*
G37*
G36*
X78500D02*
X77042D01*
X77305Y225867D01*
X77867Y225305D01*
X78500Y225042D01*
Y226500D01*
D02*
G37*
G36*
X140500Y224958D02*
Y223500D01*
X141958D01*
X141695Y224133D01*
X141133Y224695D01*
X140500Y224958D01*
D02*
G37*
G36*
X139500D02*
X138867Y224695D01*
X138304Y224133D01*
X138042Y223500D01*
X139500D01*
Y224958D01*
D02*
G37*
G36*
X117469Y223909D02*
X116844Y223651D01*
X116286Y223093D01*
X116250Y223005D01*
X115750D01*
X115714Y223093D01*
X115155Y223651D01*
X114532Y223909D01*
Y221969D01*
X114032D01*
Y221468D01*
X112091D01*
X112349Y220845D01*
X112908Y220286D01*
X112995Y220250D01*
Y219750D01*
X112908Y219714D01*
X112349Y219156D01*
X112091Y218531D01*
X114032D01*
Y218032D01*
X114532D01*
Y216091D01*
X115155Y216349D01*
X115714Y216908D01*
X115750Y216995D01*
X116250D01*
X116286Y216908D01*
X116844Y216349D01*
X117469Y216091D01*
Y218032D01*
X117968D01*
Y218531D01*
X119909D01*
X119651Y219156D01*
X119093Y219714D01*
X119005Y219750D01*
Y220250D01*
X119093Y220286D01*
X119651Y220845D01*
X119909Y221468D01*
X117968D01*
Y221969D01*
X117469D01*
Y223909D01*
D02*
G37*
G36*
X118468D02*
Y222468D01*
X119909D01*
X119651Y223093D01*
X119093Y223651D01*
X118468Y223909D01*
D02*
G37*
G36*
X113531Y223909D02*
X112908Y223651D01*
X112349Y223093D01*
X112091Y222468D01*
X113531D01*
Y223909D01*
D02*
G37*
G36*
X141958Y222500D02*
X140500D01*
Y221042D01*
X141133Y221304D01*
X141695Y221867D01*
X141958Y222500D01*
D02*
G37*
G36*
X139500D02*
X138042D01*
X138304Y221867D01*
X138867Y221304D01*
X139500Y221042D01*
Y222500D01*
D02*
G37*
G36*
X19318Y222600D02*
X18682D01*
X18094Y222356D01*
X17644Y221906D01*
X17400Y221318D01*
Y220682D01*
X17644Y220094D01*
X18094Y219644D01*
X18682Y219400D01*
X19318D01*
X19906Y219644D01*
X20356Y220094D01*
X20600Y220682D01*
Y221318D01*
X20356Y221906D01*
X19906Y222356D01*
X19318Y222600D01*
D02*
G37*
G36*
X29138Y220808D02*
Y219350D01*
X30595D01*
X30333Y219983D01*
X29771Y220546D01*
X29138Y220808D01*
D02*
G37*
G36*
X28138D02*
X27505Y220546D01*
X26942Y219983D01*
X26680Y219350D01*
X28138D01*
Y220808D01*
D02*
G37*
G36*
X73000Y220758D02*
Y219300D01*
X74458D01*
X74195Y219933D01*
X73633Y220496D01*
X73000Y220758D01*
D02*
G37*
G36*
X72000D02*
X71367Y220496D01*
X70805Y219933D01*
X70542Y219300D01*
X72000D01*
Y220758D01*
D02*
G37*
G36*
X129500Y219958D02*
Y218500D01*
X130958D01*
X130695Y219133D01*
X130133Y219695D01*
X129500Y219958D01*
D02*
G37*
G36*
X128500D02*
X127867Y219695D01*
X127304Y219133D01*
X127042Y218500D01*
X128500D01*
Y219958D01*
D02*
G37*
G36*
X30595Y218350D02*
X29138D01*
Y216893D01*
X29771Y217155D01*
X30333Y217718D01*
X30595Y218350D01*
D02*
G37*
G36*
X28138D02*
X26680D01*
X26942Y217718D01*
X27505Y217155D01*
X28138Y216893D01*
Y218350D01*
D02*
G37*
G36*
X74458Y218300D02*
X73000D01*
Y216842D01*
X73633Y217105D01*
X74195Y217667D01*
X74458Y218300D01*
D02*
G37*
G36*
X72000D02*
X70542D01*
X70805Y217667D01*
X71367Y217105D01*
X72000Y216842D01*
Y218300D01*
D02*
G37*
G36*
X119909Y217531D02*
X118468D01*
Y216091D01*
X119093Y216349D01*
X119651Y216908D01*
X119909Y217531D01*
D02*
G37*
G36*
X113531Y217531D02*
X112091D01*
X112349Y216908D01*
X112908Y216349D01*
X113531Y216091D01*
Y217531D01*
D02*
G37*
G36*
X130958Y217500D02*
X129500D01*
Y216042D01*
X130133Y216304D01*
X130695Y216867D01*
X130958Y217500D01*
D02*
G37*
G36*
X128500D02*
X127042D01*
X127304Y216867D01*
X127867Y216304D01*
X128500Y216042D01*
Y217500D01*
D02*
G37*
G36*
X132318Y216600D02*
X131682D01*
X131094Y216356D01*
X130644Y215906D01*
X130400Y215318D01*
Y214682D01*
X130644Y214094D01*
X131094Y213644D01*
X131682Y213400D01*
X132318D01*
X132906Y213644D01*
X133356Y214094D01*
X133600Y214682D01*
Y215318D01*
X133356Y215906D01*
X132906Y216356D01*
X132318Y216600D01*
D02*
G37*
G36*
X106200Y214658D02*
Y213200D01*
X107658D01*
X107396Y213833D01*
X106833Y214395D01*
X106200Y214658D01*
D02*
G37*
G36*
X105200D02*
X104567Y214395D01*
X104005Y213833D01*
X103742Y213200D01*
X105200D01*
Y214658D01*
D02*
G37*
G36*
X23318Y215600D02*
X22682D01*
X22094Y215356D01*
X21644Y214906D01*
X21400Y214318D01*
Y213682D01*
X21644Y213094D01*
X22094Y212644D01*
X22682Y212400D01*
X23318D01*
X23906Y212644D01*
X24356Y213094D01*
X24600Y213682D01*
Y214318D01*
X24356Y214906D01*
X23906Y215356D01*
X23318Y215600D01*
D02*
G37*
G36*
X15318D02*
X14682D01*
X14094Y215356D01*
X13644Y214906D01*
X13400Y214318D01*
Y213682D01*
X13644Y213094D01*
X14094Y212644D01*
X14682Y212400D01*
X15318D01*
X15906Y212644D01*
X16356Y213094D01*
X16600Y213682D01*
Y214318D01*
X16356Y214906D01*
X15906Y215356D01*
X15318Y215600D01*
D02*
G37*
G36*
X107658Y212200D02*
X106200D01*
Y210742D01*
X106833Y211004D01*
X107396Y211567D01*
X107658Y212200D01*
D02*
G37*
G36*
X105200D02*
X103742D01*
X104005Y211567D01*
X104567Y211004D01*
X105200Y210742D01*
Y212200D01*
D02*
G37*
G36*
X56068Y209384D02*
X55445Y209125D01*
X54886Y208567D01*
X54850Y208480D01*
X54350D01*
X54314Y208567D01*
X53755Y209125D01*
X53132Y209384D01*
Y207443D01*
X52631D01*
Y206943D01*
X50691D01*
X50949Y206319D01*
X51270Y205998D01*
X51456Y205672D01*
X51270Y205345D01*
X50949Y205024D01*
X50691Y204400D01*
X52631D01*
Y203400D01*
X50691D01*
X50949Y202776D01*
X51270Y202455D01*
X51456Y202128D01*
X51270Y201802D01*
X50949Y201481D01*
X50691Y200857D01*
X52631D01*
Y200357D01*
X53132D01*
Y198416D01*
X53755Y198674D01*
X54314Y199233D01*
X54350Y199320D01*
X54850D01*
X54886Y199233D01*
X55445Y198674D01*
X56068Y198416D01*
Y200357D01*
X56568D01*
Y200857D01*
X58509D01*
X58251Y201481D01*
X57930Y201802D01*
X57744Y202128D01*
X57930Y202455D01*
X58251Y202776D01*
X58509Y203400D01*
X56568D01*
Y204400D01*
X58509D01*
X58251Y205024D01*
X57930Y205345D01*
X57744Y205672D01*
X57930Y205998D01*
X58251Y206319D01*
X58509Y206943D01*
X56568D01*
Y207443D01*
X56068D01*
Y209384D01*
D02*
G37*
G36*
X38818Y211600D02*
X38182D01*
X37594Y211356D01*
X37144Y210906D01*
X36900Y210318D01*
Y209682D01*
X37144Y209094D01*
X37594Y208644D01*
X38182Y208400D01*
X38818D01*
X39406Y208644D01*
X39856Y209094D01*
X40100Y209682D01*
Y210318D01*
X39856Y210906D01*
X39406Y211356D01*
X38818Y211600D01*
D02*
G37*
G36*
X57069Y209384D02*
Y207943D01*
X58509D01*
X58251Y208567D01*
X57692Y209125D01*
X57069Y209384D01*
D02*
G37*
G36*
X52131D02*
X51508Y209125D01*
X50949Y208567D01*
X50691Y207943D01*
X52131D01*
Y209384D01*
D02*
G37*
G36*
X133500Y205958D02*
Y204500D01*
X134958D01*
X134695Y205133D01*
X134133Y205696D01*
X133500Y205958D01*
D02*
G37*
G36*
X132500D02*
X131867Y205696D01*
X131305Y205133D01*
X131042Y204500D01*
X132500D01*
Y205958D01*
D02*
G37*
G36*
X23318Y207600D02*
X22682D01*
X22094Y207356D01*
X21644Y206906D01*
X21400Y206318D01*
Y205682D01*
X21644Y205094D01*
X22094Y204644D01*
X22682Y204400D01*
X23318D01*
X23906Y204644D01*
X24356Y205094D01*
X24600Y205682D01*
Y206318D01*
X24356Y206906D01*
X23906Y207356D01*
X23318Y207600D01*
D02*
G37*
G36*
X15318D02*
X14682D01*
X14094Y207356D01*
X13644Y206906D01*
X13400Y206318D01*
Y205682D01*
X13644Y205094D01*
X14094Y204644D01*
X14682Y204400D01*
X15318D01*
X15906Y204644D01*
X16356Y205094D01*
X16600Y205682D01*
Y206318D01*
X16356Y206906D01*
X15906Y207356D01*
X15318Y207600D01*
D02*
G37*
G36*
X134958Y203500D02*
X133500D01*
Y202042D01*
X134133Y202305D01*
X134695Y202867D01*
X134958Y203500D01*
D02*
G37*
G36*
X132500D02*
X131042D01*
X131305Y202867D01*
X131867Y202305D01*
X132500Y202042D01*
Y203500D01*
D02*
G37*
G36*
X38918Y202400D02*
X38282D01*
X37694Y202156D01*
X37244Y201706D01*
X37000Y201118D01*
Y200482D01*
X37244Y199894D01*
X37694Y199444D01*
X38282Y199200D01*
X38918D01*
X39506Y199444D01*
X39956Y199894D01*
X40200Y200482D01*
Y201118D01*
X39956Y201706D01*
X39506Y202156D01*
X38918Y202400D01*
D02*
G37*
G36*
X64218Y202000D02*
X63582D01*
X62994Y201756D01*
X62544Y201306D01*
X62300Y200718D01*
Y200082D01*
X62544Y199494D01*
X62994Y199044D01*
X63582Y198800D01*
X64218D01*
X64806Y199044D01*
X65256Y199494D01*
X65500Y200082D01*
Y200718D01*
X65256Y201306D01*
X64806Y201756D01*
X64218Y202000D01*
D02*
G37*
G36*
X23500Y199958D02*
Y198500D01*
X24958D01*
X24696Y199133D01*
X24133Y199696D01*
X23500Y199958D01*
D02*
G37*
G36*
X22500D02*
X21867Y199696D01*
X21305Y199133D01*
X21042Y198500D01*
X22500D01*
Y199958D01*
D02*
G37*
G36*
X58509Y199857D02*
X57069D01*
Y198416D01*
X57692Y198674D01*
X58251Y199233D01*
X58509Y199857D01*
D02*
G37*
G36*
X52131D02*
X50691D01*
X50949Y199233D01*
X51508Y198674D01*
X52131Y198416D01*
Y199857D01*
D02*
G37*
G36*
X15318Y199600D02*
X14682D01*
X14094Y199356D01*
X13644Y198906D01*
X13400Y198318D01*
Y197682D01*
X13644Y197094D01*
X14094Y196644D01*
X14682Y196400D01*
X15318D01*
X15906Y196644D01*
X16356Y197094D01*
X16600Y197682D01*
Y198318D01*
X16356Y198906D01*
X15906Y199356D01*
X15318Y199600D01*
D02*
G37*
G36*
X24958Y197500D02*
X23500D01*
Y196042D01*
X24133Y196305D01*
X24696Y196867D01*
X24958Y197500D01*
D02*
G37*
G36*
X22500D02*
X21042D01*
X21305Y196867D01*
X21867Y196305D01*
X22500Y196042D01*
Y197500D01*
D02*
G37*
G36*
X171318Y197100D02*
X170682D01*
X170094Y196856D01*
X169644Y196406D01*
X169400Y195818D01*
Y195182D01*
X169644Y194594D01*
X170094Y194144D01*
X170682Y193900D01*
X171318D01*
X171906Y194144D01*
X172356Y194594D01*
X172600Y195182D01*
Y195818D01*
X172356Y196406D01*
X171906Y196856D01*
X171318Y197100D01*
D02*
G37*
G36*
X95500Y194458D02*
Y193000D01*
X96958D01*
X96696Y193633D01*
X96133Y194195D01*
X95500Y194458D01*
D02*
G37*
G36*
X94500D02*
X93867Y194195D01*
X93305Y193633D01*
X93042Y193000D01*
X94500D01*
Y194458D01*
D02*
G37*
G36*
X44500Y193330D02*
Y191872D01*
X45958D01*
X45695Y192505D01*
X45133Y193067D01*
X44500Y193330D01*
D02*
G37*
G36*
X43500D02*
X42867Y193067D01*
X42305Y192505D01*
X42042Y191872D01*
X43500D01*
Y193330D01*
D02*
G37*
G36*
X96958Y192000D02*
X95500D01*
Y190542D01*
X96133Y190805D01*
X96696Y191367D01*
X96958Y192000D01*
D02*
G37*
G36*
X94500D02*
X93042D01*
X93305Y191367D01*
X93867Y190805D01*
X94500Y190542D01*
Y192000D01*
D02*
G37*
G36*
X19318Y193600D02*
X18682D01*
X18094Y193356D01*
X17644Y192906D01*
X17400Y192318D01*
Y191682D01*
X17644Y191094D01*
X18094Y190644D01*
X18682Y190400D01*
X19318D01*
X19906Y190644D01*
X20356Y191094D01*
X20600Y191682D01*
Y192318D01*
X20356Y192906D01*
X19906Y193356D01*
X19318Y193600D01*
D02*
G37*
G36*
X45958Y190872D02*
X44500D01*
Y189414D01*
X45133Y189676D01*
X45695Y190239D01*
X45958Y190872D01*
D02*
G37*
G36*
X43500D02*
X42042D01*
X42305Y190239D01*
X42867Y189676D01*
X43500Y189414D01*
Y190872D01*
D02*
G37*
G36*
X181318Y189600D02*
X180682D01*
X180094Y189356D01*
X179644Y188906D01*
X179400Y188318D01*
Y187682D01*
X179644Y187094D01*
X180094Y186644D01*
X180682Y186400D01*
X181318D01*
X181906Y186644D01*
X182356Y187094D01*
X182600Y187682D01*
Y188318D01*
X182356Y188906D01*
X181906Y189356D01*
X181318Y189600D01*
D02*
G37*
G36*
X113318Y188600D02*
X112682D01*
X112094Y188356D01*
X111644Y187906D01*
X111400Y187318D01*
Y186682D01*
X111644Y186094D01*
X112094Y185644D01*
X112682Y185400D01*
X113318D01*
X113906Y185644D01*
X114356Y186094D01*
X114600Y186682D01*
Y187318D01*
X114356Y187906D01*
X113906Y188356D01*
X113318Y188600D01*
D02*
G37*
G36*
X147318Y184600D02*
X146682D01*
X146094Y184356D01*
X145644Y183906D01*
X145400Y183318D01*
Y182682D01*
X145644Y182094D01*
X146094Y181644D01*
X146682Y181400D01*
X147318D01*
X147906Y181644D01*
X148356Y182094D01*
X148600Y182682D01*
Y183318D01*
X148356Y183906D01*
X147906Y184356D01*
X147318Y184600D01*
D02*
G37*
G36*
X259143Y189143D02*
X250857D01*
Y180857D01*
X259143D01*
Y189143D01*
D02*
G37*
G36*
X169665Y180728D02*
Y179500D01*
X170893D01*
X170681Y180013D01*
X170178Y180515D01*
X169665Y180728D01*
D02*
G37*
G36*
X168665Y180728D02*
X168153Y180515D01*
X167650Y180013D01*
X167438Y179500D01*
X168665D01*
Y180728D01*
D02*
G37*
G36*
X165335D02*
Y179500D01*
X166562D01*
X166350Y180013D01*
X165847Y180515D01*
X165335Y180728D01*
D02*
G37*
G36*
X164335Y180728D02*
X163822Y180515D01*
X163319Y180013D01*
X163107Y179500D01*
X164335D01*
Y180728D01*
D02*
G37*
G36*
X202500Y178958D02*
Y177500D01*
X203958D01*
X203696Y178133D01*
X203133Y178695D01*
X202500Y178958D01*
D02*
G37*
G36*
X201500D02*
X200867Y178695D01*
X200305Y178133D01*
X200042Y177500D01*
X201500D01*
Y178958D01*
D02*
G37*
G36*
X197500D02*
Y177500D01*
X198958D01*
X198696Y178133D01*
X198133Y178695D01*
X197500Y178958D01*
D02*
G37*
G36*
X196500D02*
X195867Y178695D01*
X195305Y178133D01*
X195042Y177500D01*
X196500D01*
Y178958D01*
D02*
G37*
G36*
X187500D02*
Y177500D01*
X188958D01*
X188696Y178133D01*
X188133Y178695D01*
X187500Y178958D01*
D02*
G37*
G36*
X186500D02*
X185867Y178695D01*
X185304Y178133D01*
X185042Y177500D01*
X186500D01*
Y178958D01*
D02*
G37*
G36*
X182500D02*
Y177500D01*
X183958D01*
X183695Y178133D01*
X183133Y178695D01*
X182500Y178958D01*
D02*
G37*
G36*
X181500D02*
X180867Y178695D01*
X180305Y178133D01*
X180042Y177500D01*
X181500D01*
Y178958D01*
D02*
G37*
G36*
X166562Y178500D02*
X165335D01*
Y177272D01*
X165847Y177485D01*
X166350Y177988D01*
X166562Y178500D01*
D02*
G37*
G36*
X168665Y178500D02*
X167438D01*
X167650Y177988D01*
X168153Y177485D01*
X168665Y177272D01*
Y178500D01*
D02*
G37*
G36*
X170893D02*
X169665D01*
Y177272D01*
X170178Y177485D01*
X170681Y177988D01*
X170893Y178500D01*
D02*
G37*
G36*
X164335Y178500D02*
X163107D01*
X163319Y177988D01*
X163822Y177485D01*
X164335Y177272D01*
Y178500D01*
D02*
G37*
G36*
X151500Y177958D02*
Y176500D01*
X152958D01*
X152696Y177133D01*
X152133Y177696D01*
X151500Y177958D01*
D02*
G37*
G36*
X150500D02*
X149867Y177696D01*
X149304Y177133D01*
X149042Y176500D01*
X150500D01*
Y177958D01*
D02*
G37*
G36*
X144500D02*
Y176500D01*
X145958D01*
X145695Y177133D01*
X145133Y177696D01*
X144500Y177958D01*
D02*
G37*
G36*
X143500D02*
X142867Y177696D01*
X142305Y177133D01*
X142042Y176500D01*
X143500D01*
Y177958D01*
D02*
G37*
G36*
X203958Y176500D02*
X202500D01*
Y175042D01*
X203133Y175304D01*
X203696Y175867D01*
X203958Y176500D01*
D02*
G37*
G36*
X201500D02*
X200042D01*
X200305Y175867D01*
X200867Y175304D01*
X201500Y175042D01*
Y176500D01*
D02*
G37*
G36*
X198958D02*
X197500D01*
Y175042D01*
X198133Y175304D01*
X198696Y175867D01*
X198958Y176500D01*
D02*
G37*
G36*
X196500D02*
X195042D01*
X195305Y175867D01*
X195867Y175304D01*
X196500Y175042D01*
Y176500D01*
D02*
G37*
G36*
X188958D02*
X187500D01*
Y175042D01*
X188133Y175304D01*
X188696Y175867D01*
X188958Y176500D01*
D02*
G37*
G36*
X186500D02*
X185042D01*
X185304Y175867D01*
X185867Y175304D01*
X186500Y175042D01*
Y176500D01*
D02*
G37*
G36*
X183958D02*
X182500D01*
Y175042D01*
X183133Y175304D01*
X183695Y175867D01*
X183958Y176500D01*
D02*
G37*
G36*
X181500D02*
X180042D01*
X180305Y175867D01*
X180867Y175304D01*
X181500Y175042D01*
Y176500D01*
D02*
G37*
G36*
X73500Y175958D02*
Y174500D01*
X74958D01*
X74695Y175133D01*
X74133Y175696D01*
X73500Y175958D01*
D02*
G37*
G36*
X72500D02*
X71867Y175696D01*
X71305Y175133D01*
X71042Y174500D01*
X72500D01*
Y175958D01*
D02*
G37*
G36*
X96318Y177600D02*
X95682D01*
X95094Y177356D01*
X94644Y176906D01*
X94400Y176318D01*
Y175682D01*
X94644Y175094D01*
X95094Y174644D01*
X95682Y174400D01*
X96318D01*
X96906Y174644D01*
X97356Y175094D01*
X97600Y175682D01*
Y176318D01*
X97356Y176906D01*
X96906Y177356D01*
X96318Y177600D01*
D02*
G37*
G36*
X87318D02*
X86682D01*
X86094Y177356D01*
X85644Y176906D01*
X85400Y176318D01*
Y175682D01*
X85644Y175094D01*
X86094Y174644D01*
X86682Y174400D01*
X87318D01*
X87906Y174644D01*
X88356Y175094D01*
X88600Y175682D01*
Y176318D01*
X88356Y176906D01*
X87906Y177356D01*
X87318Y177600D01*
D02*
G37*
G36*
X78318D02*
X77682D01*
X77094Y177356D01*
X76644Y176906D01*
X76400Y176318D01*
Y175682D01*
X76644Y175094D01*
X77094Y174644D01*
X77682Y174400D01*
X78318D01*
X78906Y174644D01*
X79356Y175094D01*
X79600Y175682D01*
Y176318D01*
X79356Y176906D01*
X78906Y177356D01*
X78318Y177600D01*
D02*
G37*
G36*
X152958Y175500D02*
X151500D01*
Y174042D01*
X152133Y174304D01*
X152696Y174867D01*
X152958Y175500D01*
D02*
G37*
G36*
X150500D02*
X149042D01*
X149304Y174867D01*
X149867Y174304D01*
X150500Y174042D01*
Y175500D01*
D02*
G37*
G36*
X145958D02*
X144500D01*
Y174042D01*
X145133Y174304D01*
X145695Y174867D01*
X145958Y175500D01*
D02*
G37*
G36*
X143500D02*
X142042D01*
X142305Y174867D01*
X142867Y174304D01*
X143500Y174042D01*
Y175500D01*
D02*
G37*
G36*
X202500Y173958D02*
Y172500D01*
X203958D01*
X203696Y173133D01*
X203133Y173696D01*
X202500Y173958D01*
D02*
G37*
G36*
X201500D02*
X200867Y173696D01*
X200305Y173133D01*
X200042Y172500D01*
X201500D01*
Y173958D01*
D02*
G37*
G36*
X197500D02*
Y172500D01*
X198958D01*
X198696Y173133D01*
X198133Y173696D01*
X197500Y173958D01*
D02*
G37*
G36*
X196500D02*
X195867Y173696D01*
X195305Y173133D01*
X195042Y172500D01*
X196500D01*
Y173958D01*
D02*
G37*
G36*
X187500D02*
Y172500D01*
X188958D01*
X188696Y173133D01*
X188133Y173696D01*
X187500Y173958D01*
D02*
G37*
G36*
X186500D02*
X185867Y173696D01*
X185304Y173133D01*
X185042Y172500D01*
X186500D01*
Y173958D01*
D02*
G37*
G36*
X182500D02*
Y172500D01*
X183958D01*
X183695Y173133D01*
X183133Y173696D01*
X182500Y173958D01*
D02*
G37*
G36*
X181500D02*
X180867Y173696D01*
X180305Y173133D01*
X180042Y172500D01*
X181500D01*
Y173958D01*
D02*
G37*
G36*
X74958Y173500D02*
X73500D01*
Y172042D01*
X74133Y172304D01*
X74695Y172867D01*
X74958Y173500D01*
D02*
G37*
G36*
X72500D02*
X71042D01*
X71305Y172867D01*
X71867Y172304D01*
X72500Y172042D01*
Y173500D01*
D02*
G37*
G36*
X144500Y172958D02*
Y171500D01*
X145958D01*
X145695Y172133D01*
X145133Y172696D01*
X144500Y172958D01*
D02*
G37*
G36*
X143500D02*
X142867Y172696D01*
X142305Y172133D01*
X142042Y171500D01*
X143500D01*
Y172958D01*
D02*
G37*
G36*
X255545Y179143D02*
X254454D01*
X253401Y178861D01*
X252456Y178315D01*
X251684Y177544D01*
X251139Y176599D01*
X250857Y175546D01*
Y174454D01*
X251139Y173401D01*
X251684Y172456D01*
X252456Y171685D01*
X253401Y171139D01*
X254454Y170857D01*
X255545D01*
X256599Y171139D01*
X257544Y171685D01*
X258315Y172456D01*
X258861Y173401D01*
X259143Y174454D01*
Y175546D01*
X258861Y176599D01*
X258315Y177544D01*
X257544Y178315D01*
X256599Y178861D01*
X255545Y179143D01*
D02*
G37*
G36*
X102818Y173946D02*
X102182D01*
X101594Y173703D01*
X101144Y173253D01*
X100900Y172665D01*
Y172028D01*
X101144Y171440D01*
X101594Y170990D01*
X102182Y170747D01*
X102818D01*
X103406Y170990D01*
X103856Y171440D01*
X104100Y172028D01*
Y172665D01*
X103856Y173253D01*
X103406Y173703D01*
X102818Y173946D01*
D02*
G37*
G36*
X168484Y171958D02*
Y170500D01*
X169942D01*
X169680Y171133D01*
X169117Y171695D01*
X168484Y171958D01*
D02*
G37*
G36*
X167484D02*
X166851Y171695D01*
X166289Y171133D01*
X166027Y170500D01*
X167484D01*
Y171958D01*
D02*
G37*
G36*
X203958Y171500D02*
X202500D01*
Y170042D01*
X203133Y170305D01*
X203696Y170867D01*
X203958Y171500D01*
D02*
G37*
G36*
X201500D02*
X200042D01*
X200305Y170867D01*
X200867Y170305D01*
X201500Y170042D01*
Y171500D01*
D02*
G37*
G36*
X198958D02*
X197500D01*
Y170042D01*
X198133Y170305D01*
X198696Y170867D01*
X198958Y171500D01*
D02*
G37*
G36*
X196500D02*
X195042D01*
X195305Y170867D01*
X195867Y170305D01*
X196500Y170042D01*
Y171500D01*
D02*
G37*
G36*
X188958D02*
X187500D01*
Y170042D01*
X188133Y170305D01*
X188696Y170867D01*
X188958Y171500D01*
D02*
G37*
G36*
X186500D02*
X185042D01*
X185304Y170867D01*
X185867Y170305D01*
X186500Y170042D01*
Y171500D01*
D02*
G37*
G36*
X183958D02*
X182500D01*
Y170042D01*
X183133Y170305D01*
X183695Y170867D01*
X183958Y171500D01*
D02*
G37*
G36*
X181500D02*
X180042D01*
X180305Y170867D01*
X180867Y170305D01*
X181500Y170042D01*
Y171500D01*
D02*
G37*
G36*
X82900Y170958D02*
Y169500D01*
X84358D01*
X84096Y170133D01*
X83533Y170695D01*
X82900Y170958D01*
D02*
G37*
G36*
X81900D02*
X81267Y170695D01*
X80704Y170133D01*
X80442Y169500D01*
X81900D01*
Y170958D01*
D02*
G37*
G36*
X145958Y170500D02*
X144500D01*
Y169042D01*
X145133Y169305D01*
X145695Y169867D01*
X145958Y170500D01*
D02*
G37*
G36*
X143500D02*
X142042D01*
X142305Y169867D01*
X142867Y169305D01*
X143500Y169042D01*
Y170500D01*
D02*
G37*
G36*
X2862Y169674D02*
Y168217D01*
X4320D01*
X4058Y168850D01*
X3495Y169412D01*
X2862Y169674D01*
D02*
G37*
G36*
X169942Y169500D02*
X168484D01*
Y168042D01*
X169117Y168305D01*
X169680Y168867D01*
X169942Y169500D01*
D02*
G37*
G36*
X167484D02*
X166027D01*
X166289Y168867D01*
X166851Y168305D01*
X167484Y168042D01*
Y169500D01*
D02*
G37*
G36*
X91818Y171100D02*
X91182D01*
X90594Y170856D01*
X90144Y170406D01*
X89900Y169818D01*
Y169182D01*
X90144Y168594D01*
X90594Y168144D01*
X91182Y167900D01*
X91818D01*
X92406Y168144D01*
X92856Y168594D01*
X93100Y169182D01*
Y169818D01*
X92856Y170406D01*
X92406Y170856D01*
X91818Y171100D01*
D02*
G37*
G36*
X84358Y168500D02*
X82900D01*
Y167042D01*
X83533Y167305D01*
X84096Y167867D01*
X84358Y168500D01*
D02*
G37*
G36*
X81900D02*
X80442D01*
X80704Y167867D01*
X81267Y167305D01*
X81900Y167042D01*
Y168500D01*
D02*
G37*
G36*
X4320Y167217D02*
X2862D01*
Y165759D01*
X3495Y166021D01*
X4058Y166584D01*
X4320Y167217D01*
D02*
G37*
G36*
X120318Y167200D02*
X119682D01*
X119094Y166956D01*
X118644Y166506D01*
X118400Y165918D01*
Y165282D01*
X118644Y164694D01*
X119094Y164244D01*
X119682Y164000D01*
X120318D01*
X120906Y164244D01*
X121356Y164694D01*
X121600Y165282D01*
Y165918D01*
X121356Y166506D01*
X120906Y166956D01*
X120318Y167200D01*
D02*
G37*
G36*
X247318Y166600D02*
X246682D01*
X246094Y166356D01*
X245644Y165906D01*
X245400Y165318D01*
Y164682D01*
X245644Y164094D01*
X246094Y163644D01*
X246682Y163400D01*
X247318D01*
X247906Y163644D01*
X248356Y164094D01*
X248600Y164682D01*
Y165318D01*
X248356Y165906D01*
X247906Y166356D01*
X247318Y166600D01*
D02*
G37*
G36*
X235318D02*
X234682D01*
X234094Y166356D01*
X233644Y165906D01*
X233400Y165318D01*
Y164682D01*
X233644Y164094D01*
X234094Y163644D01*
X234682Y163400D01*
X235318D01*
X235906Y163644D01*
X236356Y164094D01*
X236600Y164682D01*
Y165318D01*
X236356Y165906D01*
X235906Y166356D01*
X235318Y166600D01*
D02*
G37*
G36*
X194318Y166100D02*
X193682D01*
X193094Y165856D01*
X192644Y165406D01*
X192400Y164818D01*
Y164182D01*
X192644Y163594D01*
X193094Y163144D01*
X193682Y162900D01*
X194318D01*
X194906Y163144D01*
X195356Y163594D01*
X195600Y164182D01*
Y164818D01*
X195356Y165406D01*
X194906Y165856D01*
X194318Y166100D01*
D02*
G37*
G36*
X174818D02*
X174182D01*
X173594Y165856D01*
X173144Y165406D01*
X172900Y164818D01*
Y164182D01*
X173144Y163594D01*
X173594Y163144D01*
X174182Y162900D01*
X174818D01*
X175406Y163144D01*
X175856Y163594D01*
X176100Y164182D01*
Y164818D01*
X175856Y165406D01*
X175406Y165856D01*
X174818Y166100D01*
D02*
G37*
G36*
X158318Y165600D02*
X157682D01*
X157094Y165356D01*
X156644Y164906D01*
X156400Y164318D01*
Y163682D01*
X156644Y163094D01*
X157094Y162644D01*
X157682Y162400D01*
X158318D01*
X158906Y162644D01*
X159356Y163094D01*
X159600Y163682D01*
Y164318D01*
X159356Y164906D01*
X158906Y165356D01*
X158318Y165600D01*
D02*
G37*
G36*
X143318D02*
X142682D01*
X142094Y165356D01*
X141644Y164906D01*
X141400Y164318D01*
Y163682D01*
X141644Y163094D01*
X142094Y162644D01*
X142682Y162400D01*
X143318D01*
X143906Y162644D01*
X144356Y163094D01*
X144600Y163682D01*
Y164318D01*
X144356Y164906D01*
X143906Y165356D01*
X143318Y165600D01*
D02*
G37*
G36*
X255545Y169143D02*
X254454D01*
X253401Y168861D01*
X252456Y168315D01*
X251684Y167544D01*
X251139Y166599D01*
X250857Y165545D01*
Y164454D01*
X251139Y163401D01*
X251684Y162456D01*
X252456Y161685D01*
X253401Y161139D01*
X254454Y160857D01*
X255545D01*
X256599Y161139D01*
X257544Y161685D01*
X258315Y162456D01*
X258861Y163401D01*
X259143Y164454D01*
Y165545D01*
X258861Y166599D01*
X258315Y167544D01*
X257544Y168315D01*
X256599Y168861D01*
X255545Y169143D01*
D02*
G37*
G36*
X73318Y163600D02*
X72682D01*
X72094Y163356D01*
X71644Y162906D01*
X71400Y162318D01*
Y161682D01*
X71644Y161094D01*
X72094Y160644D01*
X72682Y160400D01*
X73318D01*
X73906Y160644D01*
X74356Y161094D01*
X74600Y161682D01*
Y162318D01*
X74356Y162906D01*
X73906Y163356D01*
X73318Y163600D01*
D02*
G37*
G36*
X2862Y159832D02*
Y158374D01*
X4320D01*
X4058Y159007D01*
X3495Y159570D01*
X2862Y159832D01*
D02*
G37*
G36*
X68500Y158458D02*
Y157000D01*
X69958D01*
X69696Y157633D01*
X69133Y158195D01*
X68500Y158458D01*
D02*
G37*
G36*
X67500D02*
X66867Y158195D01*
X66304Y157633D01*
X66042Y157000D01*
X67500D01*
Y158458D01*
D02*
G37*
G36*
X4320Y157374D02*
X2862D01*
Y155916D01*
X3495Y156178D01*
X4058Y156741D01*
X4320Y157374D01*
D02*
G37*
G36*
X247500Y156958D02*
Y155500D01*
X248958D01*
X248695Y156133D01*
X248133Y156695D01*
X247500Y156958D01*
D02*
G37*
G36*
X246500D02*
X245867Y156695D01*
X245304Y156133D01*
X245042Y155500D01*
X246500D01*
Y156958D01*
D02*
G37*
G36*
X255598Y159543D02*
X255500D01*
Y155500D01*
X259543D01*
Y155598D01*
X259234Y156754D01*
X258635Y157790D01*
X257790Y158635D01*
X256754Y159234D01*
X255598Y159543D01*
D02*
G37*
G36*
X254500D02*
X254402D01*
X253246Y159234D01*
X252210Y158635D01*
X251364Y157790D01*
X250766Y156754D01*
X250457Y155598D01*
Y155500D01*
X254500D01*
Y159543D01*
D02*
G37*
G36*
X92818Y158000D02*
X92182D01*
X91594Y157756D01*
X91144Y157306D01*
X90900Y156718D01*
Y156082D01*
X91144Y155494D01*
X91594Y155044D01*
X92182Y154800D01*
X92818D01*
X93406Y155044D01*
X93856Y155494D01*
X94100Y156082D01*
Y156718D01*
X93856Y157306D01*
X93406Y157756D01*
X92818Y158000D01*
D02*
G37*
G36*
X102725Y157947D02*
X102089D01*
X101500Y157703D01*
X101050Y157253D01*
X100807Y156665D01*
Y156028D01*
X101050Y155440D01*
X101500Y154990D01*
X102089Y154746D01*
X102725D01*
X103313Y154990D01*
X103763Y155440D01*
X104007Y156028D01*
Y156665D01*
X103763Y157253D01*
X103313Y157703D01*
X102725Y157947D01*
D02*
G37*
G36*
X120318Y157900D02*
X119682D01*
X119094Y157656D01*
X118644Y157206D01*
X118400Y156618D01*
Y155982D01*
X118644Y155394D01*
X119094Y154944D01*
X119682Y154700D01*
X120318D01*
X120906Y154944D01*
X121356Y155394D01*
X121600Y155982D01*
Y156618D01*
X121356Y157206D01*
X120906Y157656D01*
X120318Y157900D01*
D02*
G37*
G36*
X69958Y156000D02*
X68500D01*
Y154542D01*
X69133Y154805D01*
X69696Y155367D01*
X69958Y156000D01*
D02*
G37*
G36*
X67500D02*
X66042D01*
X66304Y155367D01*
X66867Y154805D01*
X67500Y154542D01*
Y156000D01*
D02*
G37*
G36*
X248958Y154500D02*
X247500D01*
Y153042D01*
X248133Y153305D01*
X248695Y153867D01*
X248958Y154500D01*
D02*
G37*
G36*
X246500D02*
X245042D01*
X245304Y153867D01*
X245867Y153305D01*
X246500Y153042D01*
Y154500D01*
D02*
G37*
G36*
X259543Y154500D02*
X255500D01*
Y150457D01*
X255598D01*
X256754Y150766D01*
X257790Y151365D01*
X258635Y152210D01*
X259234Y153246D01*
X259543Y154402D01*
Y154500D01*
D02*
G37*
G36*
X254500D02*
X250457D01*
Y154402D01*
X250766Y153246D01*
X251364Y152210D01*
X252210Y151365D01*
X253246Y150766D01*
X254402Y150457D01*
X254500D01*
Y154500D01*
D02*
G37*
G36*
X89318Y152600D02*
X88682D01*
X88094Y152356D01*
X87644Y151906D01*
X87400Y151318D01*
Y150682D01*
X87644Y150094D01*
X88094Y149644D01*
X88682Y149400D01*
X89318D01*
X89906Y149644D01*
X90356Y150094D01*
X90600Y150682D01*
Y151318D01*
X90356Y151906D01*
X89906Y152356D01*
X89318Y152600D01*
D02*
G37*
G36*
X22547Y149989D02*
Y148531D01*
X24005D01*
X23743Y149164D01*
X23180Y149727D01*
X22547Y149989D01*
D02*
G37*
G36*
X21547D02*
X20914Y149727D01*
X20352Y149164D01*
X20090Y148531D01*
X21547D01*
Y149989D01*
D02*
G37*
G36*
X12705D02*
Y148531D01*
X14162D01*
X13900Y149164D01*
X13338Y149727D01*
X12705Y149989D01*
D02*
G37*
G36*
X11705D02*
X11072Y149727D01*
X10509Y149164D01*
X10247Y148531D01*
X11705D01*
Y149989D01*
D02*
G37*
G36*
X2862D02*
Y148531D01*
X4320D01*
X4058Y149164D01*
X3495Y149727D01*
X2862Y149989D01*
D02*
G37*
G36*
X102818Y151253D02*
X102182D01*
X101594Y151010D01*
X101144Y150560D01*
X100900Y149972D01*
Y149335D01*
X101144Y148747D01*
X101594Y148297D01*
X102182Y148054D01*
X102818D01*
X103406Y148297D01*
X103856Y148747D01*
X104100Y149335D01*
Y149972D01*
X103856Y150560D01*
X103406Y151010D01*
X102818Y151253D01*
D02*
G37*
G36*
X73318Y150600D02*
X72682D01*
X72094Y150356D01*
X71644Y149906D01*
X71400Y149318D01*
Y148682D01*
X71644Y148094D01*
X72094Y147644D01*
X72682Y147400D01*
X73318D01*
X73906Y147644D01*
X74356Y148094D01*
X74600Y148682D01*
Y149318D01*
X74356Y149906D01*
X73906Y150356D01*
X73318Y150600D01*
D02*
G37*
G36*
X83318Y145100D02*
X82682D01*
X82094Y144856D01*
X81644Y144406D01*
X81400Y143818D01*
Y143182D01*
X81644Y142594D01*
X82094Y142144D01*
X82682Y141900D01*
X83318D01*
X83906Y142144D01*
X84356Y142594D01*
X84600Y143182D01*
Y143818D01*
X84356Y144406D01*
X83906Y144856D01*
X83318Y145100D01*
D02*
G37*
G36*
X110318Y142100D02*
X109682D01*
X109094Y141856D01*
X108644Y141406D01*
X108400Y140818D01*
Y140182D01*
X108644Y139594D01*
X109094Y139144D01*
X109682Y138900D01*
X110318D01*
X110906Y139144D01*
X111356Y139594D01*
X111600Y140182D01*
Y140818D01*
X111356Y141406D01*
X110906Y141856D01*
X110318Y142100D01*
D02*
G37*
G36*
X88118Y139100D02*
X87482D01*
X86894Y138856D01*
X86444Y138406D01*
X86200Y137818D01*
Y137182D01*
X86444Y136594D01*
X86894Y136144D01*
X87482Y135900D01*
X88118D01*
X88706Y136144D01*
X89156Y136594D01*
X89400Y137182D01*
Y137818D01*
X89156Y138406D01*
X88706Y138856D01*
X88118Y139100D01*
D02*
G37*
G36*
X78800Y136458D02*
Y135000D01*
X80258D01*
X79996Y135633D01*
X79433Y136196D01*
X78800Y136458D01*
D02*
G37*
G36*
X77800D02*
X77167Y136196D01*
X76604Y135633D01*
X76342Y135000D01*
X77800D01*
Y136458D01*
D02*
G37*
G36*
X36300D02*
Y135000D01*
X37758D01*
X37495Y135633D01*
X36933Y136196D01*
X36300Y136458D01*
D02*
G37*
G36*
X35300D02*
X34667Y136196D01*
X34104Y135633D01*
X33842Y135000D01*
X35300D01*
Y136458D01*
D02*
G37*
G36*
X205318Y136600D02*
X204682D01*
X204094Y136356D01*
X203644Y135906D01*
X203400Y135318D01*
Y134682D01*
X203644Y134094D01*
X204094Y133644D01*
X204682Y133400D01*
X205318D01*
X205906Y133644D01*
X206356Y134094D01*
X206600Y134682D01*
Y135318D01*
X206356Y135906D01*
X205906Y136356D01*
X205318Y136600D01*
D02*
G37*
G36*
X185318D02*
X184682D01*
X184094Y136356D01*
X183644Y135906D01*
X183400Y135318D01*
Y134682D01*
X183644Y134094D01*
X184094Y133644D01*
X184682Y133400D01*
X185318D01*
X185906Y133644D01*
X186356Y134094D01*
X186600Y134682D01*
Y135318D01*
X186356Y135906D01*
X185906Y136356D01*
X185318Y136600D01*
D02*
G37*
G36*
X121118Y136100D02*
X120482D01*
X119894Y135856D01*
X119444Y135406D01*
X119200Y134818D01*
Y134182D01*
X119444Y133594D01*
X119894Y133144D01*
X120482Y132900D01*
X121118D01*
X121706Y133144D01*
X122156Y133594D01*
X122400Y134182D01*
Y134818D01*
X122156Y135406D01*
X121706Y135856D01*
X121118Y136100D01*
D02*
G37*
G36*
X80258Y134000D02*
X78800D01*
Y132542D01*
X79433Y132805D01*
X79996Y133367D01*
X80258Y134000D01*
D02*
G37*
G36*
X77800D02*
X76342D01*
X76604Y133367D01*
X77167Y132805D01*
X77800Y132542D01*
Y134000D01*
D02*
G37*
G36*
X37758D02*
X36300D01*
Y132542D01*
X36933Y132805D01*
X37495Y133367D01*
X37758Y134000D01*
D02*
G37*
G36*
X35300D02*
X33842D01*
X34104Y133367D01*
X34667Y132805D01*
X35300Y132542D01*
Y134000D01*
D02*
G37*
G36*
X259143Y139143D02*
X250857D01*
Y130857D01*
X259143D01*
Y139143D01*
D02*
G37*
G36*
X148000Y131158D02*
Y129700D01*
X149458D01*
X149196Y130333D01*
X148633Y130895D01*
X148000Y131158D01*
D02*
G37*
G36*
X147000D02*
X146367Y130895D01*
X145805Y130333D01*
X145542Y129700D01*
X147000D01*
Y131158D01*
D02*
G37*
G36*
X149458Y128700D02*
X148000D01*
Y127242D01*
X148633Y127505D01*
X149196Y128067D01*
X149458Y128700D01*
D02*
G37*
G36*
X147000D02*
X145542D01*
X145805Y128067D01*
X146367Y127505D01*
X147000Y127242D01*
Y128700D01*
D02*
G37*
G36*
X205318Y126600D02*
X204682D01*
X204094Y126356D01*
X203644Y125906D01*
X203400Y125318D01*
Y124682D01*
X203644Y124094D01*
X204094Y123644D01*
X204682Y123400D01*
X205318D01*
X205906Y123644D01*
X206356Y124094D01*
X206600Y124682D01*
Y125318D01*
X206356Y125906D01*
X205906Y126356D01*
X205318Y126600D01*
D02*
G37*
G36*
X177318D02*
X176682D01*
X176094Y126356D01*
X175644Y125906D01*
X175400Y125318D01*
Y124682D01*
X175644Y124094D01*
X176094Y123644D01*
X176682Y123400D01*
X177318D01*
X177906Y123644D01*
X178356Y124094D01*
X178600Y124682D01*
Y125318D01*
X178356Y125906D01*
X177906Y126356D01*
X177318Y126600D01*
D02*
G37*
G36*
X255545Y129143D02*
X254454D01*
X253401Y128861D01*
X252456Y128315D01*
X251684Y127544D01*
X251139Y126599D01*
X250857Y125546D01*
Y124454D01*
X251139Y123401D01*
X251684Y122456D01*
X252456Y121685D01*
X253401Y121139D01*
X254454Y120857D01*
X255545D01*
X256599Y121139D01*
X257544Y121685D01*
X258315Y122456D01*
X258861Y123401D01*
X259143Y124454D01*
Y125546D01*
X258861Y126599D01*
X258315Y127544D01*
X257544Y128315D01*
X256599Y128861D01*
X255545Y129143D01*
D02*
G37*
G36*
X247500Y116958D02*
Y115500D01*
X248958D01*
X248695Y116133D01*
X248133Y116695D01*
X247500Y116958D01*
D02*
G37*
G36*
X246500D02*
X245867Y116695D01*
X245304Y116133D01*
X245042Y115500D01*
X246500D01*
Y116958D01*
D02*
G37*
G36*
X255598Y119543D02*
X255500D01*
Y115500D01*
X259543D01*
Y115598D01*
X259234Y116754D01*
X258635Y117790D01*
X257790Y118635D01*
X256754Y119234D01*
X255598Y119543D01*
D02*
G37*
G36*
X254500D02*
X254402D01*
X253246Y119234D01*
X252210Y118635D01*
X251364Y117790D01*
X250766Y116754D01*
X250457Y115598D01*
Y115500D01*
X254500D01*
Y119543D01*
D02*
G37*
G36*
X248958Y114500D02*
X247500D01*
Y113042D01*
X248133Y113304D01*
X248695Y113867D01*
X248958Y114500D01*
D02*
G37*
G36*
X246500D02*
X245042D01*
X245304Y113867D01*
X245867Y113304D01*
X246500Y113042D01*
Y114500D01*
D02*
G37*
G36*
X148150Y112308D02*
Y110850D01*
X149607D01*
X149345Y111483D01*
X148783Y112046D01*
X148150Y112308D01*
D02*
G37*
G36*
X147150D02*
X146517Y112046D01*
X145954Y111483D01*
X145692Y110850D01*
X147150D01*
Y112308D01*
D02*
G37*
G36*
X259543Y114500D02*
X255500D01*
Y110457D01*
X255598D01*
X256754Y110766D01*
X257790Y111364D01*
X258635Y112210D01*
X259234Y113246D01*
X259543Y114402D01*
Y114500D01*
D02*
G37*
G36*
X254500D02*
X250457D01*
Y114402D01*
X250766Y113246D01*
X251364Y112210D01*
X252210Y111364D01*
X253246Y110766D01*
X254402Y110457D01*
X254500D01*
Y114500D01*
D02*
G37*
G36*
X149607Y109850D02*
X148150D01*
Y108393D01*
X148783Y108655D01*
X149345Y109218D01*
X149607Y109850D01*
D02*
G37*
G36*
X147150D02*
X145692D01*
X145954Y109218D01*
X146517Y108655D01*
X147150Y108393D01*
Y109850D01*
D02*
G37*
G36*
X137118Y111100D02*
X136482D01*
X135894Y110856D01*
X135444Y110406D01*
X135200Y109818D01*
Y109182D01*
X135444Y108594D01*
X135894Y108144D01*
X136482Y107900D01*
X137118D01*
X137706Y108144D01*
X138156Y108594D01*
X138400Y109182D01*
Y109818D01*
X138156Y110406D01*
X137706Y110856D01*
X137118Y111100D01*
D02*
G37*
G36*
X68487Y108570D02*
Y107113D01*
X69945D01*
X69683Y107746D01*
X69120Y108308D01*
X68487Y108570D01*
D02*
G37*
G36*
X67487D02*
X66855Y108308D01*
X66292Y107746D01*
X66030Y107113D01*
X67487D01*
Y108570D01*
D02*
G37*
G36*
X44413D02*
Y107113D01*
X45870D01*
X45608Y107746D01*
X45046Y108308D01*
X44413Y108570D01*
D02*
G37*
G36*
X43413D02*
X42780Y108308D01*
X42217Y107746D01*
X41955Y107113D01*
X43413D01*
Y108570D01*
D02*
G37*
G36*
X119500Y107758D02*
Y106300D01*
X120958D01*
X120695Y106933D01*
X120133Y107495D01*
X119500Y107758D01*
D02*
G37*
G36*
X118500D02*
X117867Y107495D01*
X117305Y106933D01*
X117042Y106300D01*
X118500D01*
Y107758D01*
D02*
G37*
G36*
X93000D02*
Y106300D01*
X94458D01*
X94195Y106933D01*
X93633Y107495D01*
X93000Y107758D01*
D02*
G37*
G36*
X92000D02*
X91367Y107495D01*
X90804Y106933D01*
X90542Y106300D01*
X92000D01*
Y107758D01*
D02*
G37*
G36*
X69945Y106113D02*
X68487D01*
Y104655D01*
X69120Y104917D01*
X69683Y105480D01*
X69945Y106113D01*
D02*
G37*
G36*
X67487D02*
X66030D01*
X66292Y105480D01*
X66855Y104917D01*
X67487Y104655D01*
Y106113D01*
D02*
G37*
G36*
X45870D02*
X44413D01*
Y104655D01*
X45046Y104917D01*
X45608Y105480D01*
X45870Y106113D01*
D02*
G37*
G36*
X43413D02*
X41955D01*
X42217Y105480D01*
X42780Y104917D01*
X43413Y104655D01*
Y106113D01*
D02*
G37*
G36*
X185318Y107600D02*
X184682D01*
X184094Y107356D01*
X183644Y106906D01*
X183400Y106318D01*
Y105682D01*
X183644Y105094D01*
X184094Y104644D01*
X184682Y104400D01*
X185318D01*
X185906Y104644D01*
X186356Y105094D01*
X186600Y105682D01*
Y106318D01*
X186356Y106906D01*
X185906Y107356D01*
X185318Y107600D01*
D02*
G37*
G36*
X120958Y105300D02*
X119500D01*
Y103842D01*
X120133Y104104D01*
X120695Y104667D01*
X120958Y105300D01*
D02*
G37*
G36*
X118500D02*
X117042D01*
X117305Y104667D01*
X117867Y104104D01*
X118500Y103842D01*
Y105300D01*
D02*
G37*
G36*
X94458D02*
X93000D01*
Y103842D01*
X93633Y104104D01*
X94195Y104667D01*
X94458Y105300D01*
D02*
G37*
G36*
X92000D02*
X90542D01*
X90804Y104667D01*
X91367Y104104D01*
X92000Y103842D01*
Y105300D01*
D02*
G37*
G36*
X247318Y106600D02*
X246682D01*
X246094Y106356D01*
X245644Y105906D01*
X245400Y105318D01*
Y104682D01*
X245644Y104094D01*
X246094Y103644D01*
X246682Y103400D01*
X247318D01*
X247906Y103644D01*
X248356Y104094D01*
X248600Y104682D01*
Y105318D01*
X248356Y105906D01*
X247906Y106356D01*
X247318Y106600D01*
D02*
G37*
G36*
X137118Y106300D02*
X136482D01*
X135894Y106056D01*
X135444Y105606D01*
X135200Y105018D01*
Y104382D01*
X135444Y103794D01*
X135894Y103344D01*
X136482Y103100D01*
X137118D01*
X137706Y103344D01*
X138156Y103794D01*
X138400Y104382D01*
Y105018D01*
X138156Y105606D01*
X137706Y106056D01*
X137118Y106300D01*
D02*
G37*
G36*
X255545Y109143D02*
X254454D01*
X253401Y108861D01*
X252456Y108316D01*
X251684Y107544D01*
X251139Y106599D01*
X250857Y105545D01*
Y104455D01*
X251139Y103401D01*
X251684Y102456D01*
X252456Y101684D01*
X253401Y101139D01*
X254454Y100857D01*
X255545D01*
X256599Y101139D01*
X257544Y101684D01*
X258315Y102456D01*
X258861Y103401D01*
X259143Y104455D01*
Y105545D01*
X258861Y106599D01*
X258315Y107544D01*
X257544Y108316D01*
X256599Y108861D01*
X255545Y109143D01*
D02*
G37*
G36*
X68500Y99980D02*
Y98522D01*
X69958D01*
X69696Y99155D01*
X69133Y99718D01*
X68500Y99980D01*
D02*
G37*
G36*
X67500D02*
X66867Y99718D01*
X66304Y99155D01*
X66042Y98522D01*
X67500D01*
Y99980D01*
D02*
G37*
G36*
X44500Y99958D02*
Y98500D01*
X45958D01*
X45695Y99133D01*
X45133Y99695D01*
X44500Y99958D01*
D02*
G37*
G36*
X43500D02*
X42867Y99695D01*
X42305Y99133D01*
X42042Y98500D01*
X43500D01*
Y99958D01*
D02*
G37*
G36*
X185318Y100100D02*
X184682D01*
X184094Y99856D01*
X183644Y99406D01*
X183400Y98818D01*
Y98182D01*
X183644Y97594D01*
X184094Y97144D01*
X184682Y96900D01*
X185318D01*
X185906Y97144D01*
X186356Y97594D01*
X186600Y98182D01*
Y98818D01*
X186356Y99406D01*
X185906Y99856D01*
X185318Y100100D01*
D02*
G37*
G36*
X69958Y97522D02*
X68500D01*
Y96064D01*
X69133Y96327D01*
X69696Y96889D01*
X69958Y97522D01*
D02*
G37*
G36*
X67500D02*
X66042D01*
X66304Y96889D01*
X66867Y96327D01*
X67500Y96064D01*
Y97522D01*
D02*
G37*
G36*
X45958Y97500D02*
X44500D01*
Y96042D01*
X45133Y96305D01*
X45695Y96867D01*
X45958Y97500D01*
D02*
G37*
G36*
X43500D02*
X42042D01*
X42305Y96867D01*
X42867Y96305D01*
X43500Y96042D01*
Y97500D01*
D02*
G37*
G36*
X119600Y96258D02*
Y94800D01*
X121058D01*
X120796Y95433D01*
X120233Y95995D01*
X119600Y96258D01*
D02*
G37*
G36*
X118600D02*
X117967Y95995D01*
X117404Y95433D01*
X117142Y94800D01*
X118600D01*
Y96258D01*
D02*
G37*
G36*
X93000D02*
Y94800D01*
X94458D01*
X94195Y95433D01*
X93633Y95995D01*
X93000Y96258D01*
D02*
G37*
G36*
X92000D02*
X91367Y95995D01*
X90804Y95433D01*
X90542Y94800D01*
X92000D01*
Y96258D01*
D02*
G37*
G36*
X137118Y96900D02*
X136482D01*
X135894Y96656D01*
X135444Y96206D01*
X135200Y95618D01*
Y94982D01*
X135444Y94394D01*
X135894Y93944D01*
X136482Y93700D01*
X137118D01*
X137706Y93944D01*
X138156Y94394D01*
X138400Y94982D01*
Y95618D01*
X138156Y96206D01*
X137706Y96656D01*
X137118Y96900D01*
D02*
G37*
G36*
X121058Y93800D02*
X119600D01*
Y92342D01*
X120233Y92605D01*
X120796Y93167D01*
X121058Y93800D01*
D02*
G37*
G36*
X118600D02*
X117142D01*
X117404Y93167D01*
X117967Y92605D01*
X118600Y92342D01*
Y93800D01*
D02*
G37*
G36*
X94458D02*
X93000D01*
Y92342D01*
X93633Y92605D01*
X94195Y93167D01*
X94458Y93800D01*
D02*
G37*
G36*
X92000D02*
X90542D01*
X90804Y93167D01*
X91367Y92605D01*
X92000Y92342D01*
Y93800D01*
D02*
G37*
G36*
X156340Y92580D02*
X155660D01*
X155004Y92404D01*
X154416Y92064D01*
X153936Y91584D01*
X153789Y91330D01*
X153211D01*
X153065Y91584D01*
X152584Y92064D01*
X151996Y92404D01*
X151340Y92580D01*
X150660D01*
X150004Y92404D01*
X149416Y92064D01*
X148935Y91584D01*
X148596Y90996D01*
X148420Y90340D01*
Y89660D01*
X148596Y89004D01*
X148935Y88416D01*
X149309Y88042D01*
X149324Y87473D01*
X149170Y87385D01*
X148615Y86830D01*
X148223Y86150D01*
X148049Y85500D01*
X151000D01*
Y84500D01*
X148049D01*
X148223Y83850D01*
X148615Y83170D01*
X148951Y82835D01*
X149114Y82500D01*
X148951Y82165D01*
X148615Y81830D01*
X148223Y81150D01*
X148049Y80500D01*
X151000D01*
Y79500D01*
X148049D01*
X148223Y78850D01*
X148615Y78170D01*
X149170Y77615D01*
X149324Y77526D01*
X149309Y76958D01*
X148935Y76584D01*
X148596Y75996D01*
X148420Y75340D01*
Y74660D01*
X148596Y74004D01*
X148935Y73416D01*
X149309Y73042D01*
X149324Y72474D01*
X149170Y72385D01*
X148615Y71830D01*
X148223Y71150D01*
X148049Y70500D01*
X151000D01*
Y70000D01*
X151500D01*
Y67049D01*
X152150Y67223D01*
X152830Y67615D01*
X153385Y68170D01*
X153473Y68324D01*
X154042Y68309D01*
X154416Y67936D01*
X155004Y67596D01*
X155660Y67420D01*
X156340D01*
X156996Y67596D01*
X157584Y67936D01*
X158064Y68416D01*
X158404Y69004D01*
X158580Y69660D01*
Y70340D01*
X158404Y70996D01*
X158064Y71584D01*
X157584Y72065D01*
X157330Y72211D01*
Y72789D01*
X157584Y72935D01*
X158064Y73416D01*
X158404Y74004D01*
X158580Y74660D01*
Y75340D01*
X158404Y75996D01*
X158064Y76584D01*
X157584Y77065D01*
X157330Y77211D01*
Y77789D01*
X157584Y77935D01*
X158064Y78416D01*
X158404Y79004D01*
X158580Y79660D01*
Y80340D01*
X158404Y80996D01*
X158064Y81584D01*
X157584Y82064D01*
X157330Y82211D01*
Y82789D01*
X157584Y82936D01*
X158064Y83416D01*
X158404Y84004D01*
X158580Y84660D01*
Y85340D01*
X158404Y85996D01*
X158064Y86584D01*
X157584Y87064D01*
X157330Y87211D01*
Y87789D01*
X157584Y87936D01*
X158064Y88416D01*
X158404Y89004D01*
X158580Y89660D01*
Y90340D01*
X158404Y90996D01*
X158064Y91584D01*
X157584Y92064D01*
X156996Y92404D01*
X156340Y92580D01*
D02*
G37*
G36*
X185318Y91600D02*
X184682D01*
X184094Y91356D01*
X183644Y90906D01*
X183400Y90318D01*
Y89682D01*
X183644Y89094D01*
X184094Y88644D01*
X184682Y88400D01*
X185318D01*
X185906Y88644D01*
X186356Y89094D01*
X186600Y89682D01*
Y90318D01*
X186356Y90906D01*
X185906Y91356D01*
X185318Y91600D01*
D02*
G37*
G36*
X144318D02*
X143682D01*
X143094Y91356D01*
X142644Y90906D01*
X142400Y90318D01*
Y89682D01*
X142644Y89094D01*
X143094Y88644D01*
X143682Y88400D01*
X144318D01*
X144906Y88644D01*
X145356Y89094D01*
X145600Y89682D01*
Y90318D01*
X145356Y90906D01*
X144906Y91356D01*
X144318Y91600D01*
D02*
G37*
G36*
X162818Y86600D02*
X162182D01*
X161594Y86356D01*
X161144Y85906D01*
X160900Y85318D01*
Y84682D01*
X161144Y84094D01*
X161594Y83644D01*
X162182Y83400D01*
X162818D01*
X163406Y83644D01*
X163856Y84094D01*
X164100Y84682D01*
Y85318D01*
X163856Y85906D01*
X163406Y86356D01*
X162818Y86600D01*
D02*
G37*
G36*
X259143Y89143D02*
X250857D01*
Y80857D01*
X259143D01*
Y89143D01*
D02*
G37*
G36*
X163000Y81958D02*
Y80500D01*
X164458D01*
X164196Y81133D01*
X163633Y81695D01*
X163000Y81958D01*
D02*
G37*
G36*
X162000D02*
X161367Y81695D01*
X160804Y81133D01*
X160542Y80500D01*
X162000D01*
Y81958D01*
D02*
G37*
G36*
X144500D02*
Y80500D01*
X145958D01*
X145695Y81133D01*
X145133Y81695D01*
X144500Y81958D01*
D02*
G37*
G36*
X143500D02*
X142867Y81695D01*
X142305Y81133D01*
X142042Y80500D01*
X143500D01*
Y81958D01*
D02*
G37*
G36*
X164458Y79500D02*
X163000D01*
Y78042D01*
X163633Y78304D01*
X164196Y78867D01*
X164458Y79500D01*
D02*
G37*
G36*
X162000D02*
X160542D01*
X160804Y78867D01*
X161367Y78304D01*
X162000Y78042D01*
Y79500D01*
D02*
G37*
G36*
X145958D02*
X144500D01*
Y78042D01*
X145133Y78304D01*
X145695Y78867D01*
X145958Y79500D01*
D02*
G37*
G36*
X143500D02*
X142042D01*
X142305Y78867D01*
X142867Y78304D01*
X143500Y78042D01*
Y79500D01*
D02*
G37*
G36*
X111900Y72458D02*
Y71000D01*
X113358D01*
X113095Y71633D01*
X112533Y72196D01*
X111900Y72458D01*
D02*
G37*
G36*
X110900D02*
X110267Y72196D01*
X109704Y71633D01*
X109442Y71000D01*
X110900D01*
Y72458D01*
D02*
G37*
G36*
X78800D02*
Y71000D01*
X80258D01*
X79996Y71633D01*
X79433Y72196D01*
X78800Y72458D01*
D02*
G37*
G36*
X77800D02*
X77167Y72196D01*
X76604Y71633D01*
X76342Y71000D01*
X77800D01*
Y72458D01*
D02*
G37*
G36*
X38600D02*
Y71000D01*
X40058D01*
X39796Y71633D01*
X39233Y72196D01*
X38600Y72458D01*
D02*
G37*
G36*
X37600D02*
X36967Y72196D01*
X36404Y71633D01*
X36142Y71000D01*
X37600D01*
Y72458D01*
D02*
G37*
G36*
X255545Y79143D02*
X254454D01*
X253401Y78861D01*
X252456Y78316D01*
X251684Y77544D01*
X251139Y76599D01*
X250857Y75546D01*
Y74454D01*
X251139Y73401D01*
X251684Y72456D01*
X252456Y71684D01*
X253401Y71139D01*
X254454Y70857D01*
X255545D01*
X256599Y71139D01*
X257544Y71684D01*
X258315Y72456D01*
X258861Y73401D01*
X259143Y74454D01*
Y75546D01*
X258861Y76599D01*
X258315Y77544D01*
X257544Y78316D01*
X256599Y78861D01*
X255545Y79143D01*
D02*
G37*
G36*
X144500Y71958D02*
Y70500D01*
X145958D01*
X145695Y71133D01*
X145133Y71696D01*
X144500Y71958D01*
D02*
G37*
G36*
X143500D02*
X142867Y71696D01*
X142305Y71133D01*
X142042Y70500D01*
X143500D01*
Y71958D01*
D02*
G37*
G36*
X113358Y70000D02*
X111900D01*
Y68542D01*
X112533Y68805D01*
X113095Y69367D01*
X113358Y70000D01*
D02*
G37*
G36*
X110900D02*
X109442D01*
X109704Y69367D01*
X110267Y68805D01*
X110900Y68542D01*
Y70000D01*
D02*
G37*
G36*
X80258D02*
X78800D01*
Y68542D01*
X79433Y68805D01*
X79996Y69367D01*
X80258Y70000D01*
D02*
G37*
G36*
X77800D02*
X76342D01*
X76604Y69367D01*
X77167Y68805D01*
X77800Y68542D01*
Y70000D01*
D02*
G37*
G36*
X40058D02*
X38600D01*
Y68542D01*
X39233Y68805D01*
X39796Y69367D01*
X40058Y70000D01*
D02*
G37*
G36*
X37600D02*
X36142D01*
X36404Y69367D01*
X36967Y68805D01*
X37600Y68542D01*
Y70000D01*
D02*
G37*
G36*
X145958Y69500D02*
X144500D01*
Y68042D01*
X145133Y68305D01*
X145695Y68867D01*
X145958Y69500D01*
D02*
G37*
G36*
X143500D02*
X142042D01*
X142305Y68867D01*
X142867Y68305D01*
X143500Y68042D01*
Y69500D01*
D02*
G37*
G36*
X50500Y68958D02*
Y67500D01*
X51958D01*
X51696Y68133D01*
X51133Y68695D01*
X50500Y68958D01*
D02*
G37*
G36*
X49500D02*
X48867Y68695D01*
X48305Y68133D01*
X48042Y67500D01*
X49500D01*
Y68958D01*
D02*
G37*
G36*
X150500Y69500D02*
X148049D01*
X148223Y68850D01*
X148615Y68170D01*
X149170Y67615D01*
X149850Y67223D01*
X150500Y67049D01*
Y69500D01*
D02*
G37*
G36*
X83344Y69600D02*
X82707D01*
X82119Y69356D01*
X81669Y68906D01*
X81426Y68318D01*
Y67682D01*
X81669Y67094D01*
X82119Y66644D01*
X82707Y66400D01*
X83344D01*
X83932Y66644D01*
X84382Y67094D01*
X84626Y67682D01*
Y68318D01*
X84382Y68906D01*
X83932Y69356D01*
X83344Y69600D01*
D02*
G37*
G36*
X51958Y66500D02*
X50500D01*
Y65042D01*
X51133Y65304D01*
X51696Y65867D01*
X51958Y66500D01*
D02*
G37*
G36*
X49500D02*
X48042D01*
X48305Y65867D01*
X48867Y65304D01*
X49500Y65042D01*
Y66500D01*
D02*
G37*
G36*
X144318Y66600D02*
X143682D01*
X143094Y66356D01*
X142644Y65906D01*
X142400Y65318D01*
Y64682D01*
X142644Y64094D01*
X143094Y63644D01*
X143682Y63400D01*
X144318D01*
X144906Y63644D01*
X145356Y64094D01*
X145600Y64682D01*
Y65318D01*
X145356Y65906D01*
X144906Y66356D01*
X144318Y66600D01*
D02*
G37*
G36*
X139318D02*
X138682D01*
X138094Y66356D01*
X137644Y65906D01*
X137400Y65318D01*
Y64682D01*
X137644Y64094D01*
X138094Y63644D01*
X138682Y63400D01*
X139318D01*
X139906Y63644D01*
X140356Y64094D01*
X140600Y64682D01*
Y65318D01*
X140356Y65906D01*
X139906Y66356D01*
X139318Y66600D01*
D02*
G37*
G36*
X88068D02*
X87432D01*
X86844Y66356D01*
X86394Y65906D01*
X86150Y65318D01*
Y64682D01*
X86394Y64094D01*
X86844Y63644D01*
X87432Y63400D01*
X88068D01*
X88656Y63644D01*
X89106Y64094D01*
X89350Y64682D01*
Y65318D01*
X89106Y65906D01*
X88656Y66356D01*
X88068Y66600D01*
D02*
G37*
G36*
X255545Y69143D02*
X254454D01*
X253401Y68861D01*
X252456Y68316D01*
X251684Y67544D01*
X251139Y66599D01*
X250857Y65545D01*
Y64455D01*
X251139Y63401D01*
X251684Y62456D01*
X252456Y61685D01*
X253401Y61139D01*
X254454Y60857D01*
X255545D01*
X256599Y61139D01*
X257544Y61685D01*
X258315Y62456D01*
X258861Y63401D01*
X259143Y64455D01*
Y65545D01*
X258861Y66599D01*
X258315Y67544D01*
X257544Y68316D01*
X256599Y68861D01*
X255545Y69143D01*
D02*
G37*
G36*
X197818Y61600D02*
X197182D01*
X196594Y61356D01*
X196144Y60906D01*
X195900Y60318D01*
Y59682D01*
X196144Y59094D01*
X196594Y58644D01*
X197182Y58400D01*
X197818D01*
X198406Y58644D01*
X198856Y59094D01*
X199100Y59682D01*
Y60318D01*
X198856Y60906D01*
X198406Y61356D01*
X197818Y61600D01*
D02*
G37*
G36*
X69118Y60600D02*
X68482D01*
X67894Y60356D01*
X67444Y59906D01*
X67200Y59318D01*
Y58682D01*
X67444Y58094D01*
X67894Y57644D01*
X68482Y57400D01*
X69118D01*
X69706Y57644D01*
X70156Y58094D01*
X70400Y58682D01*
Y59318D01*
X70156Y59906D01*
X69706Y60356D01*
X69118Y60600D01*
D02*
G37*
G36*
X62318Y58726D02*
X61682D01*
X61094Y58482D01*
X60644Y58032D01*
X60400Y57444D01*
Y56808D01*
X60644Y56220D01*
X61094Y55770D01*
X61682Y55526D01*
X62318D01*
X62906Y55770D01*
X63356Y56220D01*
X63600Y56808D01*
Y57444D01*
X63356Y58032D01*
X62906Y58482D01*
X62318Y58726D01*
D02*
G37*
G36*
X200818Y57600D02*
X200182D01*
X199594Y57356D01*
X199144Y56906D01*
X198900Y56318D01*
Y55682D01*
X199144Y55094D01*
X199594Y54644D01*
X200182Y54400D01*
X200818D01*
X201406Y54644D01*
X201856Y55094D01*
X202100Y55682D01*
Y56318D01*
X201856Y56906D01*
X201406Y57356D01*
X200818Y57600D01*
D02*
G37*
G36*
X255545Y59143D02*
X254454D01*
X253401Y58861D01*
X252456Y58315D01*
X251684Y57544D01*
X251139Y56599D01*
X250857Y55546D01*
Y54454D01*
X251139Y53401D01*
X251684Y52456D01*
X252456Y51684D01*
X253401Y51139D01*
X254454Y50857D01*
X255545D01*
X256599Y51139D01*
X257544Y51684D01*
X258315Y52456D01*
X258861Y53401D01*
X259143Y54454D01*
Y55546D01*
X258861Y56599D01*
X258315Y57544D01*
X257544Y58315D01*
X256599Y58861D01*
X255545Y59143D01*
D02*
G37*
G36*
X204318Y53600D02*
X203682D01*
X203094Y53356D01*
X202644Y52906D01*
X202400Y52318D01*
Y51682D01*
X202644Y51094D01*
X203094Y50644D01*
X203682Y50400D01*
X204318D01*
X204906Y50644D01*
X205356Y51094D01*
X205600Y51682D01*
Y52318D01*
X205356Y52906D01*
X204906Y53356D01*
X204318Y53600D01*
D02*
G37*
G36*
X50318D02*
X49682D01*
X49094Y53356D01*
X48644Y52906D01*
X48400Y52318D01*
Y51682D01*
X48644Y51094D01*
X49094Y50644D01*
X49682Y50400D01*
X50318D01*
X50906Y50644D01*
X51356Y51094D01*
X51600Y51682D01*
Y52318D01*
X51356Y52906D01*
X50906Y53356D01*
X50318Y53600D01*
D02*
G37*
G36*
X2862Y48808D02*
Y47350D01*
X4320D01*
X4058Y47983D01*
X3495Y48546D01*
X2862Y48808D01*
D02*
G37*
G36*
X4320Y46350D02*
X2862D01*
Y44893D01*
X3495Y45155D01*
X4058Y45717D01*
X4320Y46350D01*
D02*
G37*
G36*
X99318Y47100D02*
X98682D01*
X98094Y46856D01*
X97644Y46406D01*
X97400Y45818D01*
Y45182D01*
X97644Y44594D01*
X98094Y44144D01*
X98682Y43900D01*
X99318D01*
X99906Y44144D01*
X100356Y44594D01*
X100600Y45182D01*
Y45818D01*
X100356Y46406D01*
X99906Y46856D01*
X99318Y47100D01*
D02*
G37*
G36*
X136000Y41758D02*
Y40300D01*
X137458D01*
X137196Y40933D01*
X136633Y41495D01*
X136000Y41758D01*
D02*
G37*
G36*
X135000D02*
X134367Y41495D01*
X133805Y40933D01*
X133542Y40300D01*
X135000D01*
Y41758D01*
D02*
G37*
G36*
X83818Y42600D02*
X83182D01*
X82594Y42356D01*
X82144Y41906D01*
X81900Y41318D01*
Y40682D01*
X82144Y40094D01*
X82594Y39644D01*
X83182Y39400D01*
X83818D01*
X84406Y39644D01*
X84856Y40094D01*
X85100Y40682D01*
Y41318D01*
X84856Y41906D01*
X84406Y42356D01*
X83818Y42600D01*
D02*
G37*
G36*
X50318D02*
X49682D01*
X49094Y42356D01*
X48644Y41906D01*
X48400Y41318D01*
Y40682D01*
X48644Y40094D01*
X49094Y39644D01*
X49682Y39400D01*
X50318D01*
X50906Y39644D01*
X51356Y40094D01*
X51600Y40682D01*
Y41318D01*
X51356Y41906D01*
X50906Y42356D01*
X50318Y42600D01*
D02*
G37*
G36*
X137458Y39300D02*
X136000D01*
Y37842D01*
X136633Y38105D01*
X137196Y38667D01*
X137458Y39300D01*
D02*
G37*
G36*
X135000D02*
X133542D01*
X133805Y38667D01*
X134367Y38105D01*
X135000Y37842D01*
Y39300D01*
D02*
G37*
G36*
X2862Y38966D02*
Y37508D01*
X4320D01*
X4058Y38141D01*
X3495Y38703D01*
X2862Y38966D01*
D02*
G37*
G36*
X4320Y36508D02*
X2862D01*
Y35050D01*
X3495Y35312D01*
X4058Y35875D01*
X4320Y36508D01*
D02*
G37*
G36*
X122318Y38100D02*
X121682D01*
X121094Y37856D01*
X120644Y37406D01*
X120400Y36818D01*
Y36182D01*
X120644Y35594D01*
X121094Y35144D01*
X121682Y34900D01*
X122318D01*
X122906Y35144D01*
X123356Y35594D01*
X123600Y36182D01*
Y36818D01*
X123356Y37406D01*
X122906Y37856D01*
X122318Y38100D01*
D02*
G37*
G36*
X106318Y35600D02*
X105682D01*
X105094Y35356D01*
X104644Y34906D01*
X104400Y34318D01*
Y33682D01*
X104644Y33094D01*
X105094Y32644D01*
X105682Y32400D01*
X106318D01*
X106906Y32644D01*
X107356Y33094D01*
X107600Y33682D01*
Y34318D01*
X107356Y34906D01*
X106906Y35356D01*
X106318Y35600D01*
D02*
G37*
G36*
X50318Y33600D02*
X49682D01*
X49094Y33356D01*
X48644Y32906D01*
X48400Y32318D01*
Y31682D01*
X48644Y31094D01*
X49094Y30644D01*
X49682Y30400D01*
X50318D01*
X50906Y30644D01*
X51356Y31094D01*
X51600Y31682D01*
Y32318D01*
X51356Y32906D01*
X50906Y33356D01*
X50318Y33600D01*
D02*
G37*
G36*
X100500Y24958D02*
Y23500D01*
X101958D01*
X101696Y24133D01*
X101133Y24696D01*
X100500Y24958D01*
D02*
G37*
G36*
X99500D02*
X98867Y24696D01*
X98304Y24133D01*
X98042Y23500D01*
X99500D01*
Y24958D01*
D02*
G37*
G36*
X92098Y27543D02*
X92000D01*
Y23500D01*
X96043D01*
Y23598D01*
X95734Y24754D01*
X95135Y25790D01*
X94290Y26636D01*
X93254Y27234D01*
X92098Y27543D01*
D02*
G37*
G36*
X91000D02*
X90902D01*
X89746Y27234D01*
X88710Y26636D01*
X87865Y25790D01*
X87266Y24754D01*
X86957Y23598D01*
Y23500D01*
X91000D01*
Y27543D01*
D02*
G37*
G36*
X101958Y22500D02*
X100500D01*
Y21042D01*
X101133Y21305D01*
X101696Y21867D01*
X101958Y22500D01*
D02*
G37*
G36*
X99500D02*
X98042D01*
X98304Y21867D01*
X98867Y21305D01*
X99500Y21042D01*
Y22500D01*
D02*
G37*
G36*
X82046Y27143D02*
X80954D01*
X79901Y26861D01*
X78956Y26316D01*
X78184Y25544D01*
X77639Y24599D01*
X77357Y23546D01*
Y22455D01*
X77639Y21401D01*
X78184Y20456D01*
X78956Y19684D01*
X79901Y19139D01*
X80954Y18857D01*
X82046D01*
X83099Y19139D01*
X84044Y19684D01*
X84816Y20456D01*
X85361Y21401D01*
X85643Y22455D01*
Y23546D01*
X85361Y24599D01*
X84816Y25544D01*
X84044Y26316D01*
X83099Y26861D01*
X82046Y27143D01*
D02*
G37*
G36*
X72045D02*
X70955D01*
X69901Y26861D01*
X68956Y26316D01*
X68185Y25544D01*
X67639Y24599D01*
X67357Y23546D01*
Y22455D01*
X67639Y21401D01*
X68185Y20456D01*
X68956Y19684D01*
X69901Y19139D01*
X70955Y18857D01*
X72045D01*
X73099Y19139D01*
X74044Y19684D01*
X74815Y20456D01*
X75361Y21401D01*
X75643Y22455D01*
Y23546D01*
X75361Y24599D01*
X74815Y25544D01*
X74044Y26316D01*
X73099Y26861D01*
X72045Y27143D01*
D02*
G37*
G36*
X65643D02*
X57357D01*
Y18857D01*
X65643D01*
Y27143D01*
D02*
G37*
G36*
X96043Y22500D02*
X92000D01*
Y18457D01*
X92098D01*
X93254Y18766D01*
X94290Y19365D01*
X95135Y20210D01*
X95734Y21246D01*
X96043Y22402D01*
Y22500D01*
D02*
G37*
G36*
X91000D02*
X86957D01*
Y22402D01*
X87266Y21246D01*
X87865Y20210D01*
X88710Y19365D01*
X89746Y18766D01*
X90902Y18457D01*
X91000D01*
Y22500D01*
D02*
G37*
%LPD*%
D137*
X104000Y260000D02*
D03*
D138*
X91500Y23000D02*
D03*
X255000Y155000D02*
D03*
Y115000D02*
D03*
D139*
X169165Y179000D02*
D03*
X164835D02*
D03*
D140*
X151000Y70000D02*
D03*
Y80000D02*
D03*
Y85000D02*
D03*
D143*
X117968Y218032D02*
D03*
X114032Y218032D02*
D03*
X114032Y221969D02*
D03*
X117968Y221969D02*
D03*
X52631Y207443D02*
D03*
X56568D02*
D03*
X52631Y203900D02*
D03*
Y200357D02*
D03*
X56568D02*
D03*
Y203900D02*
D03*
D144*
X2362Y167717D02*
D03*
Y157874D02*
D03*
Y37008D02*
D03*
Y46850D02*
D03*
X25984Y142126D02*
D03*
Y132283D02*
D03*
Y122441D02*
D03*
Y112598D02*
D03*
Y102756D02*
D03*
Y92913D02*
D03*
Y83071D02*
D03*
Y73228D02*
D03*
Y63386D02*
D03*
X22047Y148031D02*
D03*
X12205D02*
D03*
X2362D02*
D03*
X22047Y56693D02*
D03*
X12205D02*
D03*
X2362D02*
D03*
X119100Y94300D02*
D03*
X119000Y105800D02*
D03*
X92500Y94300D02*
D03*
Y105800D02*
D03*
X44000Y98000D02*
D03*
X43913Y106613D02*
D03*
X67987D02*
D03*
X68000Y98022D02*
D03*
X104000Y240000D02*
D03*
X162500Y80000D02*
D03*
X100000Y23000D02*
D03*
X182000Y172000D02*
D03*
X187000D02*
D03*
X197000D02*
D03*
X202000D02*
D03*
Y177000D02*
D03*
X197000D02*
D03*
X187000D02*
D03*
X182000D02*
D03*
X151000Y176000D02*
D03*
X144000Y171000D02*
D03*
Y176000D02*
D03*
X147650Y110350D02*
D03*
X147500Y129200D02*
D03*
X144000Y70000D02*
D03*
Y80000D02*
D03*
X135500Y39800D02*
D03*
X19000Y261000D02*
D03*
X23000Y198000D02*
D03*
X82400Y169000D02*
D03*
X73000Y174000D02*
D03*
X79000Y227000D02*
D03*
X132000Y240300D02*
D03*
X247000Y115000D02*
D03*
Y155000D02*
D03*
X38100Y70500D02*
D03*
X35800Y134500D02*
D03*
X78300D02*
D03*
X133000Y204000D02*
D03*
X78300Y70500D02*
D03*
X111400D02*
D03*
X68000Y156500D02*
D03*
X113100Y230500D02*
D03*
X44000Y191372D02*
D03*
X28638Y218850D02*
D03*
X129000Y218000D02*
D03*
X104000Y253000D02*
D03*
X95000Y192500D02*
D03*
X140000Y223000D02*
D03*
X196362Y267562D02*
D03*
X256000Y258000D02*
D03*
X237400D02*
D03*
X196500Y229500D02*
D03*
X167984Y170000D02*
D03*
X50000Y67000D02*
D03*
X105700Y212700D02*
D03*
X72500Y218800D02*
D03*
M02*
