G04*
G04 #@! TF.GenerationSoftware,Altium Limited,Altium Designer,21.6.1 (37)*
G04*
G04 Layer_Physical_Order=4*
G04 Layer_Color=16711680*
%FSLAX25Y25*%
%MOIN*%
G70*
G04*
G04 #@! TF.SameCoordinates,3B14360B-83DB-492C-B473-3A93FED6D837*
G04*
G04*
G04 #@! TF.FilePolarity,Positive*
G04*
G01*
G75*
%ADD10C,0.01000*%
%ADD136C,0.01500*%
%ADD137C,0.01575*%
%ADD138C,0.07087*%
%ADD139R,0.07087X0.07087*%
%ADD140R,0.07087X0.07087*%
%ADD141C,0.03960*%
%ADD142C,0.14173*%
%ADD143C,0.02000*%
%ADD144C,0.01968*%
D10*
X116000Y56000D02*
X200500D01*
X114700Y52000D02*
X204000D01*
X107700Y59000D02*
X114700Y52000D01*
X117000Y60000D02*
X197500D01*
X109000Y68000D02*
X117000Y60000D01*
X120000Y156300D02*
X124300Y152000D01*
X222000D01*
X120000Y165500D02*
Y165600D01*
X128000Y157500D02*
X217500D01*
X120000Y165500D02*
X128000Y157500D01*
X104000Y253000D02*
Y260000D01*
X156000Y99000D02*
X162500Y92500D01*
Y85000D02*
Y92500D01*
X139000Y102500D02*
X188000D01*
X200500Y90000D02*
X230000D01*
X188000Y102500D02*
X200500Y90000D01*
X140300Y106000D02*
X185000D01*
X136800Y109500D02*
X140300Y106000D01*
X198500Y85000D02*
X225000D01*
X185000Y98500D02*
X198500Y85000D01*
X136800Y95300D02*
X140500Y99000D01*
X156000D01*
X136800Y104700D02*
X139000Y102500D01*
X151000Y65000D02*
X156000Y70000D01*
X144000Y65000D02*
X151000D01*
X62500Y32000D02*
X71500Y23000D01*
X50000Y32000D02*
X62500D01*
X205000Y135000D02*
X255000D01*
X247000Y165000D02*
X255000D01*
X247000Y155000D02*
X255000D01*
X217500Y157500D02*
X235000Y175000D01*
X255000D01*
X222000Y152000D02*
X235000Y165000D01*
X240000Y100000D02*
X255000Y85000D01*
X206500Y100000D02*
X240000D01*
X201900Y95000D02*
X235000D01*
X255000Y75000D01*
X230000Y90000D02*
X255000Y65000D01*
Y55000D02*
Y55000D01*
X225000Y85000D02*
X255000Y55000D01*
X162400Y134500D02*
X201900Y95000D01*
X205000Y125000D02*
X255000D01*
X166000Y140500D02*
X206500Y100000D01*
X83000Y143500D02*
X168000D01*
X176500Y135000D01*
X185000D01*
X87800Y137500D02*
X164500D01*
X177000Y125000D01*
X110000Y140500D02*
X166000D01*
X247000Y115000D02*
X255000D01*
X247000Y105000D02*
X255000D01*
X147000Y175000D02*
Y183035D01*
Y175000D02*
X158000Y164000D01*
X151000Y80000D02*
Y85000D01*
X144000Y80000D02*
X151000D01*
X144000Y70000D02*
X151000D01*
X144000Y90000D02*
X151000D01*
X113000Y187000D02*
X120000D01*
X143000Y164000D01*
X120800Y134500D02*
X162400D01*
X181000Y188000D02*
X194000Y175000D01*
Y164500D02*
Y175000D01*
X107000Y65000D02*
X116000Y56000D01*
X68800Y59000D02*
X107700D01*
X87750Y65000D02*
X107000D01*
X83026Y68000D02*
X109000D01*
X92500Y156400D02*
X102353D01*
X102407Y156346D01*
X38600Y200800D02*
Y209900D01*
X38500Y210000D02*
X38600Y209900D01*
Y200529D02*
X43829Y195300D01*
X58800D01*
X63900Y200400D01*
D136*
X19000Y221000D02*
Y238000D01*
X26000Y245000D01*
X79000D01*
X115000D01*
X132000Y228000D01*
Y215000D02*
Y228000D01*
D137*
X164835Y179000D02*
D03*
X169165D02*
D03*
D138*
X91500Y23000D02*
D03*
X81500D02*
D03*
X71500D02*
D03*
X255000Y105000D02*
D03*
Y115000D02*
D03*
Y125000D02*
D03*
X114000Y260000D02*
D03*
X124000D02*
D03*
X255000Y75000D02*
D03*
Y65000D02*
D03*
Y55000D02*
D03*
Y175000D02*
D03*
Y165000D02*
D03*
Y155000D02*
D03*
D139*
X61500Y23000D02*
D03*
X104000Y260000D02*
D03*
D140*
X255000Y135000D02*
D03*
Y85000D02*
D03*
Y185000D02*
D03*
D141*
X151000Y90000D02*
D03*
Y85000D02*
D03*
X156000Y90000D02*
D03*
Y85000D02*
D03*
Y75000D02*
D03*
Y80000D02*
D03*
X151000Y75000D02*
D03*
Y80000D02*
D03*
Y70000D02*
D03*
X156000D02*
D03*
D142*
X8500Y8500D02*
D03*
Y267000D02*
D03*
X267000Y8500D02*
D03*
Y267000D02*
D03*
D143*
X2362Y167717D02*
D03*
Y157874D02*
D03*
Y37008D02*
D03*
Y46850D02*
D03*
X25984Y142126D02*
D03*
Y132283D02*
D03*
Y122441D02*
D03*
Y112598D02*
D03*
Y102756D02*
D03*
Y92913D02*
D03*
Y83071D02*
D03*
Y73228D02*
D03*
Y63386D02*
D03*
X22047Y148031D02*
D03*
X12205D02*
D03*
X2362D02*
D03*
X22047Y56693D02*
D03*
X12205D02*
D03*
X2362D02*
D03*
X50000Y52000D02*
D03*
X19000Y221000D02*
D03*
X181000Y260000D02*
D03*
X106000Y34000D02*
D03*
X91500Y169500D02*
D03*
X96000Y176000D02*
D03*
X87000D02*
D03*
X78000D02*
D03*
X114000Y251000D02*
D03*
X132000D02*
D03*
X141000D02*
D03*
Y260000D02*
D03*
X132000D02*
D03*
X15000Y214000D02*
D03*
X23000D02*
D03*
Y206000D02*
D03*
X15000D02*
D03*
Y198000D02*
D03*
X25000Y247500D02*
D03*
X13000D02*
D03*
X119100Y94300D02*
D03*
X119000Y105800D02*
D03*
X92500Y94300D02*
D03*
Y105800D02*
D03*
X44000Y98000D02*
D03*
X43913Y106613D02*
D03*
X67987D02*
D03*
X68000Y98022D02*
D03*
X200500Y56000D02*
D03*
X204000Y52000D02*
D03*
X197500Y60000D02*
D03*
X120000Y156300D02*
D03*
Y165600D02*
D03*
X185000Y90000D02*
D03*
X104000Y240000D02*
D03*
X162500Y85000D02*
D03*
Y80000D02*
D03*
X185000Y98500D02*
D03*
X139000Y65000D02*
D03*
X144000D02*
D03*
X100000Y23000D02*
D03*
X205000Y135000D02*
D03*
X235000Y165000D02*
D03*
X205000Y125000D02*
D03*
X177000D02*
D03*
X99000Y45500D02*
D03*
X147000Y183000D02*
D03*
X174500Y164500D02*
D03*
X194000D02*
D03*
X182000Y172000D02*
D03*
X187000D02*
D03*
X197000D02*
D03*
X202000D02*
D03*
Y177000D02*
D03*
X197000D02*
D03*
X187000D02*
D03*
X182000D02*
D03*
X151000Y176000D02*
D03*
X144000Y171000D02*
D03*
Y176000D02*
D03*
X62000Y57126D02*
D03*
X147650Y110350D02*
D03*
X147500Y129200D02*
D03*
X136800Y95300D02*
D03*
X144000Y70000D02*
D03*
Y80000D02*
D03*
Y90000D02*
D03*
X135500Y39800D02*
D03*
X143000Y164000D02*
D03*
X19000Y261000D02*
D03*
Y238000D02*
D03*
Y192000D02*
D03*
X23000Y198000D02*
D03*
X89000Y151000D02*
D03*
X82400Y169000D02*
D03*
X73000Y174000D02*
D03*
X50000Y32000D02*
D03*
X79000Y227000D02*
D03*
X132000Y240300D02*
D03*
X247000Y105000D02*
D03*
Y115000D02*
D03*
Y155000D02*
D03*
Y165000D02*
D03*
X185000Y135000D02*
D03*
X38100Y70500D02*
D03*
X185000Y106000D02*
D03*
X120800Y134500D02*
D03*
X35800D02*
D03*
X78300D02*
D03*
X113000Y187000D02*
D03*
X133000Y204000D02*
D03*
X158000Y164000D02*
D03*
X78300Y70500D02*
D03*
X111400D02*
D03*
X122000Y36500D02*
D03*
X50000Y41000D02*
D03*
X102500Y172346D02*
D03*
Y149653D02*
D03*
X73000Y162000D02*
D03*
Y149000D02*
D03*
X68000Y156500D02*
D03*
X113100Y230500D02*
D03*
X44000Y191372D02*
D03*
X28638Y218850D02*
D03*
X132000Y215000D02*
D03*
X129000Y218000D02*
D03*
X104000Y253000D02*
D03*
X95000Y192500D02*
D03*
X140000Y223000D02*
D03*
X171000Y195500D02*
D03*
X196362Y267562D02*
D03*
X256000Y258000D02*
D03*
X237400D02*
D03*
X228738D02*
D03*
X196500Y229500D02*
D03*
X188500Y236000D02*
D03*
X167984Y170000D02*
D03*
X83500Y41000D02*
D03*
X50000Y67000D02*
D03*
X68800Y59000D02*
D03*
X83000Y143500D02*
D03*
X110000Y140500D02*
D03*
X87800Y137500D02*
D03*
X83026Y68000D02*
D03*
X87750Y65000D02*
D03*
X136800Y109500D02*
D03*
Y104700D02*
D03*
X191600Y267700D02*
D03*
X92500Y156400D02*
D03*
X102407Y156346D02*
D03*
X79000Y245000D02*
D03*
X105700Y212700D02*
D03*
X72500Y218800D02*
D03*
X38500Y210000D02*
D03*
X38600Y200800D02*
D03*
X63900Y200400D02*
D03*
X181000Y188000D02*
D03*
D144*
X56568Y203900D02*
D03*
Y200357D02*
D03*
X52631D02*
D03*
Y203900D02*
D03*
X56568Y207443D02*
D03*
X52631D02*
D03*
X117968Y221969D02*
D03*
X114032Y221969D02*
D03*
X114032Y218032D02*
D03*
X117968Y218032D02*
D03*
X116000Y220000D02*
D03*
M02*
