G04*
G04 #@! TF.GenerationSoftware,Altium Limited,Altium Designer,21.6.1 (37)*
G04*
G04 Layer_Color=8388736*
%FSLAX25Y25*%
%MOIN*%
G70*
G04*
G04 #@! TF.SameCoordinates,2BFBD6BA-AEF6-41C8-8910-B4040FF44907*
G04*
G04*
G04 #@! TF.FilePolarity,Negative*
G04*
G01*
G75*
%ADD33C,0.05000*%
%ADD48R,0.03150X0.03150*%
%ADD49R,0.04724X0.04724*%
%ADD50R,0.01822X0.02182*%
%ADD51R,0.03937X0.03543*%
%ADD52R,0.02756X0.02756*%
%ADD53R,0.06127X0.05728*%
%ADD54R,0.03543X0.03150*%
%ADD55R,0.03937X0.04921*%
%ADD64R,0.04724X0.04724*%
%ADD67R,0.03150X0.03543*%
%ADD68R,0.08800X0.23000*%
%ADD69R,0.34400X0.04900*%
%ADD70R,0.11000X0.05800*%
%ADD71R,0.07400X0.07000*%
%ADD72R,0.09600X0.05100*%
%ADD73R,0.06900X0.11500*%
%ADD74R,0.06000X0.11200*%
%ADD75R,0.00900X0.02100*%
%ADD76R,0.02200X0.01100*%
%ADD77R,0.02100X0.01100*%
%ADD78R,0.01000X0.02000*%
%ADD79R,0.02200X0.01400*%
%ADD80R,0.01832X0.02632*%
%ADD81R,0.02532X0.01732*%
%ADD82R,0.06000X0.14000*%
%ADD83R,0.14000X0.06000*%
%ADD84R,0.11430X0.09461*%
G04:AMPARAMS|DCode=85|XSize=37.13mil|YSize=19.02mil|CornerRadius=5.38mil|HoleSize=0mil|Usage=FLASHONLY|Rotation=90.000|XOffset=0mil|YOffset=0mil|HoleType=Round|Shape=RoundedRectangle|*
%AMROUNDEDRECTD85*
21,1,0.03713,0.00827,0,0,90.0*
21,1,0.02638,0.01902,0,0,90.0*
1,1,0.01076,0.00413,0.01319*
1,1,0.01076,0.00413,-0.01319*
1,1,0.01076,-0.00413,-0.01319*
1,1,0.01076,-0.00413,0.01319*
%
%ADD85ROUNDEDRECTD85*%
%ADD86R,0.07099X0.04343*%
%ADD87R,0.08819X0.08819*%
%ADD88R,0.08674X0.08674*%
%ADD89R,0.05524X0.03556*%
%ADD90R,0.03556X0.05524*%
%ADD91R,0.07244X0.07244*%
%ADD92O,0.03898X0.01654*%
%ADD93O,0.01654X0.03898*%
%ADD94R,0.03753X0.04147*%
%ADD95R,0.03556X0.04147*%
%ADD96R,0.06312X0.04934*%
%ADD97R,0.04343X0.04737*%
%ADD98R,0.04934X0.03359*%
%ADD99R,0.03556X0.04737*%
%ADD100R,0.03556X0.03162*%
%ADD101R,0.08280X0.06115*%
%ADD102R,0.05524X0.04737*%
%ADD103R,0.06902X0.06115*%
%ADD104R,0.04147X0.05131*%
%ADD105R,0.03753X0.05131*%
%ADD106R,0.05406X0.07887*%
%ADD107R,0.02670X0.01784*%
%ADD108R,0.01784X0.02670*%
%ADD109R,0.05524X0.08280*%
%ADD110R,0.07099X0.08280*%
%ADD111R,0.09068X0.08674*%
%ADD112R,0.02375X0.06115*%
%ADD113C,0.10000*%
%ADD114R,0.07102X0.10646*%
%ADD115R,0.02375X0.01784*%
%ADD116R,0.04343X0.04147*%
%ADD117R,0.05131X0.05721*%
%ADD118R,0.04737X0.04343*%
%ADD119R,0.05328X0.06509*%
%ADD120R,0.08280X0.05131*%
%ADD121R,0.04147X0.04343*%
%ADD122R,0.06509X0.05328*%
%ADD123R,0.04147X0.03556*%
%ADD124R,0.04147X0.03753*%
%ADD125R,0.07887X0.07887*%
%ADD126C,0.07887*%
%ADD127C,0.04760*%
%ADD128R,0.07887X0.07887*%
%ADD129C,0.14973*%
%ADD130C,0.02769*%
%ADD131C,0.02800*%
D33*
X168000Y90000D02*
D03*
X79000Y256000D02*
D03*
X62300Y160900D02*
D03*
X78300Y65000D02*
D03*
X56000Y160805D02*
D03*
X140000Y235800D02*
D03*
X177000Y95000D02*
D03*
X168000Y80000D02*
D03*
X177000Y85000D02*
D03*
Y75000D02*
D03*
X181000Y252000D02*
D03*
X196500Y236000D02*
D03*
X218500Y217500D02*
D03*
X259000Y217000D02*
D03*
X242500D02*
D03*
X181000Y236000D02*
D03*
X120000Y150300D02*
D03*
Y172500D02*
D03*
X181000Y156500D02*
D03*
X162500D02*
D03*
X195000Y125000D02*
D03*
Y135000D02*
D03*
X39000Y14000D02*
D03*
Y32000D02*
D03*
D48*
X106600Y55047D02*
D03*
Y60953D02*
D03*
D49*
X89000Y227134D02*
D03*
Y218866D02*
D03*
Y208134D02*
D03*
Y199866D02*
D03*
D50*
X73000Y153605D02*
D03*
Y156395D02*
D03*
Y166605D02*
D03*
Y169395D02*
D03*
D51*
X180957Y164500D02*
D03*
X188043D02*
D03*
D52*
X158500Y177488D02*
D03*
Y183000D02*
D03*
D53*
X27000Y238644D02*
D03*
Y231356D02*
D03*
D54*
X71653Y41000D02*
D03*
X78347D02*
D03*
X61347D02*
D03*
X54654D02*
D03*
D55*
X124063Y66000D02*
D03*
X131937D02*
D03*
X56063Y67000D02*
D03*
X63937D02*
D03*
D64*
X35575Y179642D02*
D03*
X43843D02*
D03*
D67*
X109000Y156346D02*
D03*
Y149653D02*
D03*
Y165654D02*
D03*
Y172346D02*
D03*
D68*
X153500Y80000D02*
D03*
D69*
X232600Y268250D02*
D03*
D70*
X47300Y250200D02*
D03*
D71*
X83400Y159800D02*
D03*
D72*
Y159950D02*
D03*
D73*
X83550D02*
D03*
D74*
X167000Y179000D02*
D03*
D75*
X112750Y216350D02*
D03*
X119250Y223650D02*
D03*
D76*
X112100Y216850D02*
D03*
D77*
X119750D02*
D03*
D78*
X119200Y216400D02*
D03*
D79*
X120100Y223000D02*
D03*
D80*
X113216Y223284D02*
D03*
D81*
X112766Y222834D02*
D03*
D82*
X116000Y220000D02*
D03*
D83*
D03*
D84*
X181039Y205000D02*
D03*
X160961D02*
D03*
D85*
X164047Y175122D02*
D03*
X166016D02*
D03*
X167984D02*
D03*
X169953D02*
D03*
Y182878D02*
D03*
X167984D02*
D03*
X166016D02*
D03*
X164047D02*
D03*
D86*
X167000Y179000D02*
D03*
D87*
X51825Y106613D02*
D03*
X60557D02*
D03*
X51825Y98022D02*
D03*
X60557D02*
D03*
D88*
X100077Y105802D02*
D03*
X111317D02*
D03*
X100077Y94290D02*
D03*
X111317D02*
D03*
D89*
X131219Y83587D02*
D03*
Y126106D02*
D03*
Y121382D02*
D03*
Y116657D02*
D03*
Y111933D02*
D03*
Y107209D02*
D03*
Y102484D02*
D03*
Y97760D02*
D03*
Y93035D02*
D03*
Y88311D02*
D03*
Y78862D02*
D03*
D90*
X35781Y128878D02*
D03*
X40506D02*
D03*
X45230D02*
D03*
X49955D02*
D03*
X54679D02*
D03*
X59404D02*
D03*
X64128D02*
D03*
X68852D02*
D03*
X73577D02*
D03*
X78301D02*
D03*
X83026D02*
D03*
X87750D02*
D03*
X92474D02*
D03*
X97199D02*
D03*
X101923D02*
D03*
X106648D02*
D03*
X111372D02*
D03*
X116096D02*
D03*
X120821D02*
D03*
X125545D02*
D03*
Y76122D02*
D03*
X120821D02*
D03*
X116096D02*
D03*
X111372D02*
D03*
X106648D02*
D03*
X101923D02*
D03*
X97199D02*
D03*
X92474D02*
D03*
X87750D02*
D03*
X83026D02*
D03*
X78301D02*
D03*
X73577D02*
D03*
X68852D02*
D03*
X64128D02*
D03*
X59404D02*
D03*
X54679D02*
D03*
X49955D02*
D03*
X45230D02*
D03*
X40506D02*
D03*
X35781D02*
D03*
D91*
X116000Y220000D02*
D03*
D92*
X121807Y222953D02*
D03*
Y220984D02*
D03*
Y219016D02*
D03*
Y217047D02*
D03*
X110193D02*
D03*
Y219016D02*
D03*
Y220984D02*
D03*
Y222953D02*
D03*
D93*
X118953Y214193D02*
D03*
X116984D02*
D03*
X115016D02*
D03*
X113047D02*
D03*
Y225807D02*
D03*
X115016D02*
D03*
X116984D02*
D03*
X118953D02*
D03*
D94*
X196559Y244000D02*
D03*
X191441D02*
D03*
X196559Y252000D02*
D03*
X191441D02*
D03*
D95*
X153264Y164000D02*
D03*
X148736D02*
D03*
X28736Y204000D02*
D03*
X33264D02*
D03*
Y192000D02*
D03*
X28736D02*
D03*
X103100Y206400D02*
D03*
X98572D02*
D03*
X103264Y219000D02*
D03*
X98736D02*
D03*
D96*
X113000Y192260D02*
D03*
Y199740D02*
D03*
D97*
X128850Y223000D02*
D03*
X135150D02*
D03*
X121850Y204000D02*
D03*
X128150D02*
D03*
D98*
X130169Y17768D02*
D03*
X113831D02*
D03*
Y26232D02*
D03*
X130169D02*
D03*
X176000Y183000D02*
D03*
Y176307D02*
D03*
D99*
X53437Y234047D02*
D03*
D100*
Y240740D02*
D03*
X45563D02*
D03*
Y233260D02*
D03*
D101*
X242655Y225691D02*
D03*
X219152D02*
D03*
D102*
X205372Y244096D02*
D03*
Y229530D02*
D03*
D103*
X206061Y267817D02*
D03*
D104*
X215746Y268309D02*
D03*
X220077D02*
D03*
X224408D02*
D03*
X228738D02*
D03*
X233069D02*
D03*
X237400D02*
D03*
X241730D02*
D03*
D105*
X245864D02*
D03*
D106*
X250628Y266931D02*
D03*
D107*
X86993Y161969D02*
D03*
X79808D02*
D03*
Y158031D02*
D03*
X86994D02*
D03*
X86993Y160000D02*
D03*
X79808D02*
D03*
D108*
X86353Y164577D02*
D03*
X84384D02*
D03*
X82416D02*
D03*
X80447D02*
D03*
Y155423D02*
D03*
X82416D02*
D03*
X84384D02*
D03*
X86353D02*
D03*
D109*
X50346Y260766D02*
D03*
X43654D02*
D03*
D110*
X63142D02*
D03*
X30858D02*
D03*
D111*
X59205Y251514D02*
D03*
X34795D02*
D03*
D112*
X52118Y250234D02*
D03*
X49559D02*
D03*
X47000D02*
D03*
X44441D02*
D03*
X41882D02*
D03*
D113*
X267000Y249000D02*
D03*
X12500Y170000D02*
D03*
X146000Y10000D02*
D03*
D114*
X54600Y203900D02*
D03*
D115*
X59915Y208329D02*
D03*
Y206557D02*
D03*
Y204786D02*
D03*
Y203014D02*
D03*
Y201242D02*
D03*
Y199471D02*
D03*
X49285D02*
D03*
Y201242D02*
D03*
Y203014D02*
D03*
Y204786D02*
D03*
Y206557D02*
D03*
Y208329D02*
D03*
D116*
X13000Y237862D02*
D03*
Y233138D02*
D03*
D117*
X79000Y239347D02*
D03*
Y232653D02*
D03*
X130000Y46546D02*
D03*
Y39854D02*
D03*
D118*
X38000Y234343D02*
D03*
Y239657D02*
D03*
X142000Y129150D02*
D03*
Y122850D02*
D03*
X38000Y218850D02*
D03*
Y225150D02*
D03*
X66800Y218901D02*
D03*
Y225200D02*
D03*
X142100Y110350D02*
D03*
Y116650D02*
D03*
X45000Y218850D02*
D03*
Y225150D02*
D03*
X59800Y218901D02*
D03*
Y225200D02*
D03*
X226000Y217150D02*
D03*
Y210850D02*
D03*
X251000Y217150D02*
D03*
Y210850D02*
D03*
X233000Y217150D02*
D03*
Y210850D02*
D03*
X114000Y46650D02*
D03*
Y40350D02*
D03*
D119*
X117087Y240000D02*
D03*
X110000D02*
D03*
D120*
X155000Y115079D02*
D03*
Y124921D02*
D03*
D121*
X33362Y210000D02*
D03*
X28638D02*
D03*
X33362Y198000D02*
D03*
X28638D02*
D03*
X191638Y260000D02*
D03*
X196362D02*
D03*
D122*
X19000Y254543D02*
D03*
Y247457D02*
D03*
X101000Y192457D02*
D03*
Y199543D02*
D03*
D123*
X19000Y182736D02*
D03*
Y187264D02*
D03*
X127000Y235736D02*
D03*
Y240264D02*
D03*
X99000Y55064D02*
D03*
Y50536D02*
D03*
D124*
X122000Y46559D02*
D03*
Y41441D02*
D03*
D125*
X61500Y23000D02*
D03*
X104000Y260000D02*
D03*
D126*
X71500Y23000D02*
D03*
X81500D02*
D03*
X91500D02*
D03*
X124000Y260000D02*
D03*
X114000D02*
D03*
X255000Y155000D02*
D03*
Y165000D02*
D03*
Y175000D02*
D03*
Y125000D02*
D03*
Y115000D02*
D03*
Y105000D02*
D03*
Y55000D02*
D03*
Y65000D02*
D03*
Y75000D02*
D03*
D127*
X156000Y70000D02*
D03*
X151000D02*
D03*
Y80000D02*
D03*
Y75000D02*
D03*
X156000Y80000D02*
D03*
Y75000D02*
D03*
Y85000D02*
D03*
Y90000D02*
D03*
X151000Y85000D02*
D03*
Y90000D02*
D03*
D128*
X255000Y185000D02*
D03*
Y135000D02*
D03*
Y85000D02*
D03*
D129*
X8500Y8500D02*
D03*
Y267000D02*
D03*
X267000Y8500D02*
D03*
Y267000D02*
D03*
D130*
X52631Y207443D02*
D03*
X56568D02*
D03*
X52631Y203900D02*
D03*
Y200357D02*
D03*
X56568D02*
D03*
Y203900D02*
D03*
D131*
X132000Y260000D02*
D03*
Y251000D02*
D03*
X50000Y52000D02*
D03*
X19000Y221000D02*
D03*
X181000Y260000D02*
D03*
X106000Y34000D02*
D03*
X91500Y169500D02*
D03*
X96000Y176000D02*
D03*
X87000D02*
D03*
X78000D02*
D03*
X141000Y251000D02*
D03*
Y260000D02*
D03*
X15000Y214000D02*
D03*
X23000D02*
D03*
Y206000D02*
D03*
X15000D02*
D03*
Y198000D02*
D03*
X25000Y247500D02*
D03*
X13000D02*
D03*
X200500Y56000D02*
D03*
X204000Y52000D02*
D03*
X197500Y60000D02*
D03*
X120000Y156300D02*
D03*
Y165600D02*
D03*
X185000Y90000D02*
D03*
X104000Y240000D02*
D03*
X162500Y85000D02*
D03*
Y80000D02*
D03*
X185000Y98500D02*
D03*
X139000Y65000D02*
D03*
X144000D02*
D03*
X100000Y23000D02*
D03*
X205000Y135000D02*
D03*
X235000Y165000D02*
D03*
X205000Y125000D02*
D03*
X177000D02*
D03*
X99000Y45500D02*
D03*
X147000Y183000D02*
D03*
X174500Y164500D02*
D03*
X194000D02*
D03*
X182000Y172000D02*
D03*
X187000D02*
D03*
X197000D02*
D03*
X202000D02*
D03*
Y177000D02*
D03*
X197000D02*
D03*
X187000D02*
D03*
X182000D02*
D03*
X151000Y176000D02*
D03*
X144000Y171000D02*
D03*
Y176000D02*
D03*
X62000Y57126D02*
D03*
X147650Y110350D02*
D03*
X147500Y129200D02*
D03*
X136800Y95300D02*
D03*
X144000Y70000D02*
D03*
Y80000D02*
D03*
Y90000D02*
D03*
X135500Y39800D02*
D03*
X143000Y164000D02*
D03*
X19000Y261000D02*
D03*
Y238000D02*
D03*
Y192000D02*
D03*
X23000Y198000D02*
D03*
X89000Y151000D02*
D03*
X82400Y169000D02*
D03*
X73000Y174000D02*
D03*
X50000Y32000D02*
D03*
X79000Y227000D02*
D03*
X132000Y240300D02*
D03*
X185000Y135000D02*
D03*
X38100Y70500D02*
D03*
X185000Y106000D02*
D03*
X120800Y134500D02*
D03*
X35800D02*
D03*
X78300D02*
D03*
X113000Y187000D02*
D03*
X133000Y204000D02*
D03*
X158000Y164000D02*
D03*
X78300Y70500D02*
D03*
X111400D02*
D03*
X122000Y36500D02*
D03*
X50000Y41000D02*
D03*
X102500Y172346D02*
D03*
Y149653D02*
D03*
X73000Y162000D02*
D03*
Y149000D02*
D03*
X68000Y156500D02*
D03*
X113100Y230500D02*
D03*
X44000Y191372D02*
D03*
X28638Y218850D02*
D03*
X132000Y215000D02*
D03*
X129000Y218000D02*
D03*
X95000Y192500D02*
D03*
X140000Y223000D02*
D03*
X196362Y267562D02*
D03*
X256000Y258000D02*
D03*
X196500Y229500D02*
D03*
X188500Y236000D02*
D03*
X167984Y170000D02*
D03*
X83500Y41000D02*
D03*
X50000Y67000D02*
D03*
X68800Y59000D02*
D03*
X83000Y143500D02*
D03*
X110000Y140500D02*
D03*
X87800Y137500D02*
D03*
X83026Y68000D02*
D03*
X87750Y65000D02*
D03*
X136800Y109500D02*
D03*
Y104700D02*
D03*
X191600Y267700D02*
D03*
X92500Y156400D02*
D03*
X102407Y156346D02*
D03*
X79000Y245000D02*
D03*
X105700Y212700D02*
D03*
X72500Y218800D02*
D03*
X38500Y210000D02*
D03*
X38600Y200800D02*
D03*
X63900Y200400D02*
D03*
X181000Y188000D02*
D03*
M02*
