G04*
G04 #@! TF.GenerationSoftware,Altium Limited,Altium Designer,21.6.1 (37)*
G04*
G04 Layer_Color=8421504*
%FSLAX25Y25*%
%MOIN*%
G70*
G04*
G04 #@! TF.SameCoordinates,D5ED3E7B-3BD8-4430-B767-26EEE41716E0*
G04*
G04*
G04 #@! TF.FilePolarity,Positive*
G04*
G01*
G75*
%ADD18R,0.02756X0.02756*%
%ADD19R,0.02756X0.02756*%
%ADD20C,0.05000*%
%ADD21R,0.06299X0.03543*%
%ADD22R,0.10630X0.08661*%
%ADD23R,0.03150X0.03150*%
%ADD24R,0.03937X0.03543*%
%ADD25R,0.07480X0.04331*%
%ADD26R,0.00984X0.01870*%
%ADD27R,0.01870X0.00984*%
%ADD28R,0.03347X0.02756*%
%ADD29R,0.03543X0.03347*%
%ADD30R,0.04134X0.02559*%
%ADD31R,0.07874X0.07874*%
%ADD32R,0.04724X0.02756*%
%ADD33R,0.02756X0.04724*%
%ADD34R,0.01822X0.02182*%
%ADD35R,0.04724X0.04724*%
%ADD36R,0.03543X0.03937*%
%ADD37R,0.04528X0.05709*%
%ADD38R,0.04331X0.04921*%
%ADD39R,0.02756X0.03347*%
G04:AMPARAMS|DCode=40|XSize=29.13mil|YSize=11.02mil|CornerRadius=1.38mil|HoleSize=0mil|Usage=FLASHONLY|Rotation=90.000|XOffset=0mil|YOffset=0mil|HoleType=Round|Shape=RoundedRectangle|*
%AMROUNDEDRECTD40*
21,1,0.02913,0.00827,0,0,90.0*
21,1,0.02638,0.01102,0,0,90.0*
1,1,0.00276,0.00413,0.01319*
1,1,0.00276,0.00413,-0.01319*
1,1,0.00276,-0.00413,-0.01319*
1,1,0.00276,-0.00413,0.01319*
%
%ADD40ROUNDEDRECTD40*%
%ADD41R,0.03543X0.03150*%
%ADD42R,0.03347X0.02953*%
%ADD43R,0.03150X0.03543*%
%ADD44R,0.02756X0.02756*%
%ADD45R,0.03347X0.03543*%
%ADD46R,0.02953X0.03347*%
%ADD47R,0.01575X0.00984*%
%ADD48R,0.06299X0.09843*%
%ADD49R,0.05512X0.04134*%
%ADD50R,0.05709X0.04528*%
%ADD51O,0.00906X0.03150*%
%ADD52O,0.03150X0.00906*%
%ADD53R,0.04724X0.04724*%
%ADD54R,0.03937X0.04921*%
%ADD55R,0.06127X0.05728*%
%ADD56R,0.02756X0.02362*%
%ADD57R,0.02756X0.03937*%
%ADD58R,0.01575X0.05315*%
%ADD59R,0.08268X0.07874*%
%ADD60R,0.06299X0.07480*%
%ADD61R,0.04724X0.07480*%
%ADD62R,0.07480X0.05315*%
%ADD63R,0.04724X0.03937*%
%ADD64R,0.06102X0.05315*%
%ADD65R,0.03347X0.04331*%
%ADD66R,0.02953X0.04331*%
%ADD67R,0.04606X0.07087*%
G36*
X169008Y180102D02*
Y177898D01*
X164992D01*
Y180102D01*
X169008D01*
D02*
G37*
D18*
X117772Y221772D02*
D03*
X114228Y218228D02*
D03*
D19*
X114228Y221772D02*
D03*
X117772Y218228D02*
D03*
D20*
X120000Y172500D02*
D03*
X177000Y95000D02*
D03*
X168000Y80000D02*
D03*
Y90000D02*
D03*
X259000Y217000D02*
D03*
X79000Y256000D02*
D03*
X218500Y217500D02*
D03*
X177000Y85000D02*
D03*
Y75000D02*
D03*
X120000Y150300D02*
D03*
X78300Y65000D02*
D03*
X140000Y235800D02*
D03*
X39000Y32000D02*
D03*
Y14000D02*
D03*
X162500Y157500D02*
D03*
X181000Y156500D02*
D03*
X195000Y125000D02*
D03*
Y135000D02*
D03*
X62300Y160900D02*
D03*
X56000Y160805D02*
D03*
X181000Y236000D02*
D03*
Y252000D02*
D03*
X242500Y217000D02*
D03*
X196500Y236000D02*
D03*
D21*
X167000Y179000D02*
D03*
D22*
X160961Y205000D02*
D03*
X181039D02*
D03*
D23*
X106600Y60953D02*
D03*
Y55047D02*
D03*
D24*
X188043Y164500D02*
D03*
X180957D02*
D03*
X251000Y210850D02*
D03*
Y217150D02*
D03*
X233000Y210850D02*
D03*
Y217150D02*
D03*
X226000Y210850D02*
D03*
Y217150D02*
D03*
X114000Y40350D02*
D03*
Y46650D02*
D03*
X45000Y225150D02*
D03*
Y218850D02*
D03*
X38000Y225150D02*
D03*
Y218850D02*
D03*
X66800Y225200D02*
D03*
Y218901D02*
D03*
X59800Y225200D02*
D03*
Y218901D02*
D03*
X142000Y122850D02*
D03*
Y129150D02*
D03*
X142100Y116650D02*
D03*
Y110350D02*
D03*
X38000Y239657D02*
D03*
Y234343D02*
D03*
D25*
X155000Y124921D02*
D03*
Y115079D02*
D03*
D26*
X86353Y155423D02*
D03*
X84384D02*
D03*
X82416D02*
D03*
X80447D02*
D03*
Y164577D02*
D03*
X82416D02*
D03*
X84384D02*
D03*
X86353D02*
D03*
D27*
X79808Y160000D02*
D03*
X86993D02*
D03*
X86994Y158031D02*
D03*
X79808D02*
D03*
Y161969D02*
D03*
X86993D02*
D03*
D28*
X99000Y50536D02*
D03*
Y55064D02*
D03*
X127000Y240264D02*
D03*
Y235736D02*
D03*
X19000Y187264D02*
D03*
Y182736D02*
D03*
D29*
X13000Y233138D02*
D03*
Y237862D02*
D03*
D30*
X130169Y26232D02*
D03*
X113831D02*
D03*
Y17768D02*
D03*
X130169D02*
D03*
X176000Y176307D02*
D03*
Y183000D02*
D03*
D31*
X51825Y106613D02*
D03*
X60557D02*
D03*
X51825Y98022D02*
D03*
X60557D02*
D03*
X100077Y105802D02*
D03*
X111317D02*
D03*
X100077Y94290D02*
D03*
X111317D02*
D03*
D32*
X131219Y83587D02*
D03*
Y126106D02*
D03*
Y121382D02*
D03*
Y116657D02*
D03*
Y111933D02*
D03*
Y107209D02*
D03*
Y102484D02*
D03*
Y97760D02*
D03*
Y93035D02*
D03*
Y88311D02*
D03*
Y78862D02*
D03*
D33*
X35781Y128878D02*
D03*
X40506D02*
D03*
X45230D02*
D03*
X49955D02*
D03*
X54679D02*
D03*
X59404D02*
D03*
X64128D02*
D03*
X68852D02*
D03*
X73577D02*
D03*
X78301D02*
D03*
X83026D02*
D03*
X87750D02*
D03*
X92474D02*
D03*
X97199D02*
D03*
X101923D02*
D03*
X106648D02*
D03*
X111372D02*
D03*
X116096D02*
D03*
X120821D02*
D03*
X125545D02*
D03*
Y76122D02*
D03*
X120821D02*
D03*
X116096D02*
D03*
X111372D02*
D03*
X106648D02*
D03*
X101923D02*
D03*
X97199D02*
D03*
X92474D02*
D03*
X87750D02*
D03*
X83026D02*
D03*
X78301D02*
D03*
X73577D02*
D03*
X68852D02*
D03*
X64128D02*
D03*
X59404D02*
D03*
X54679D02*
D03*
X49955D02*
D03*
X45230D02*
D03*
X40506D02*
D03*
X35781D02*
D03*
D34*
X73000Y156395D02*
D03*
Y153605D02*
D03*
Y169395D02*
D03*
Y166605D02*
D03*
D35*
X89000Y199866D02*
D03*
Y208134D02*
D03*
Y218866D02*
D03*
Y227134D02*
D03*
D36*
X135150Y223000D02*
D03*
X128850D02*
D03*
X128150Y204000D02*
D03*
X121850D02*
D03*
D37*
X110000Y240000D02*
D03*
X117087D02*
D03*
D38*
X79000Y232653D02*
D03*
Y239347D02*
D03*
X130000Y39854D02*
D03*
Y46546D02*
D03*
D39*
X148736Y164000D02*
D03*
X153264D02*
D03*
X33264Y204000D02*
D03*
X28736D02*
D03*
X98572Y206400D02*
D03*
X103100D02*
D03*
X98736Y219000D02*
D03*
X103264D02*
D03*
X28736Y192000D02*
D03*
X33264D02*
D03*
D40*
X164047Y182878D02*
D03*
X166016D02*
D03*
X167984D02*
D03*
X169953D02*
D03*
Y175122D02*
D03*
X167984D02*
D03*
X166016D02*
D03*
X164047D02*
D03*
D41*
X54654Y41000D02*
D03*
X61347D02*
D03*
X78347D02*
D03*
X71653D02*
D03*
D42*
X122000Y41441D02*
D03*
Y46559D02*
D03*
D43*
X109000Y172346D02*
D03*
Y165654D02*
D03*
Y149653D02*
D03*
Y156346D02*
D03*
D44*
X158500Y183000D02*
D03*
Y177488D02*
D03*
D45*
X196362Y260000D02*
D03*
X191638D02*
D03*
X28638Y210000D02*
D03*
X33362D02*
D03*
X28638Y198000D02*
D03*
X33362D02*
D03*
D46*
X191441Y252000D02*
D03*
X196559D02*
D03*
X191441Y244000D02*
D03*
X196559D02*
D03*
D47*
X49285Y208329D02*
D03*
Y206557D02*
D03*
Y204786D02*
D03*
Y203014D02*
D03*
Y201242D02*
D03*
Y199471D02*
D03*
X59915D02*
D03*
Y201242D02*
D03*
Y203014D02*
D03*
Y204786D02*
D03*
Y206557D02*
D03*
Y208329D02*
D03*
D48*
X54600Y203900D02*
D03*
D49*
X113000Y199740D02*
D03*
Y192260D02*
D03*
D50*
X101000Y199543D02*
D03*
Y192457D02*
D03*
X19000Y247457D02*
D03*
Y254543D02*
D03*
D51*
X118953Y225807D02*
D03*
X116984D02*
D03*
X115016D02*
D03*
X113047D02*
D03*
Y214193D02*
D03*
X115016D02*
D03*
X116984D02*
D03*
X118953D02*
D03*
D52*
X110193Y222953D02*
D03*
Y220984D02*
D03*
Y219016D02*
D03*
Y217047D02*
D03*
X121807D02*
D03*
Y219016D02*
D03*
Y220984D02*
D03*
Y222953D02*
D03*
D53*
X43843Y179642D02*
D03*
X35575D02*
D03*
D54*
X63937Y67000D02*
D03*
X56063D02*
D03*
X131937Y66000D02*
D03*
X124063D02*
D03*
D55*
X27000Y231356D02*
D03*
Y238644D02*
D03*
D56*
X45563Y233260D02*
D03*
Y240740D02*
D03*
X53437D02*
D03*
D57*
Y234047D02*
D03*
D58*
X41882Y250234D02*
D03*
X44441D02*
D03*
X47000D02*
D03*
X49559D02*
D03*
X52118D02*
D03*
D59*
X34795Y251514D02*
D03*
X59205D02*
D03*
D60*
X30858Y260766D02*
D03*
X63142D02*
D03*
D61*
X43654D02*
D03*
X50346D02*
D03*
D62*
X242655Y225691D02*
D03*
X219152D02*
D03*
D63*
X205372Y244096D02*
D03*
Y229530D02*
D03*
D64*
X206061Y267817D02*
D03*
D65*
X215746Y268309D02*
D03*
X220077D02*
D03*
X224408D02*
D03*
X228738D02*
D03*
X233069D02*
D03*
X237400D02*
D03*
X241730D02*
D03*
D66*
X245864D02*
D03*
D67*
X250628Y266931D02*
D03*
M02*
