G04*
G04 #@! TF.GenerationSoftware,Altium Limited,Altium Designer,21.6.1 (37)*
G04*
G04 Layer_Physical_Order=1*
G04 Layer_Color=255*
%FSLAX25Y25*%
%MOIN*%
G70*
G04*
G04 #@! TF.SameCoordinates,818A62AB-FC56-4755-8FE0-4AFC0147D312*
G04*
G04*
G04 #@! TF.FilePolarity,Positive*
G04*
G01*
G75*
%ADD13C,0.01000*%
%ADD20C,0.05000*%
%ADD21R,0.06299X0.03543*%
%ADD22R,0.10630X0.08661*%
%ADD23R,0.03150X0.03150*%
%ADD24R,0.03937X0.03543*%
%ADD25R,0.07480X0.04331*%
%ADD26R,0.00984X0.01870*%
%ADD27R,0.01870X0.00984*%
%ADD28R,0.03347X0.02756*%
%ADD29R,0.03543X0.03347*%
%ADD30R,0.04134X0.02559*%
%ADD31R,0.07874X0.07874*%
%ADD32R,0.04724X0.02756*%
%ADD33R,0.02756X0.04724*%
%ADD34R,0.01822X0.02182*%
%ADD35R,0.04724X0.04724*%
%ADD36R,0.03543X0.03937*%
%ADD37R,0.04528X0.05709*%
%ADD38R,0.04331X0.04921*%
%ADD39R,0.02756X0.03347*%
G04:AMPARAMS|DCode=40|XSize=29.13mil|YSize=11.02mil|CornerRadius=1.38mil|HoleSize=0mil|Usage=FLASHONLY|Rotation=90.000|XOffset=0mil|YOffset=0mil|HoleType=Round|Shape=RoundedRectangle|*
%AMROUNDEDRECTD40*
21,1,0.02913,0.00827,0,0,90.0*
21,1,0.02638,0.01102,0,0,90.0*
1,1,0.00276,0.00413,0.01319*
1,1,0.00276,0.00413,-0.01319*
1,1,0.00276,-0.00413,-0.01319*
1,1,0.00276,-0.00413,0.01319*
%
%ADD40ROUNDEDRECTD40*%
%ADD41R,0.03543X0.03150*%
%ADD42R,0.03347X0.02953*%
%ADD43R,0.03150X0.03543*%
%ADD44R,0.02756X0.02756*%
%ADD45R,0.03347X0.03543*%
%ADD46R,0.02953X0.03347*%
%ADD47R,0.01575X0.00984*%
%ADD48R,0.06299X0.09843*%
%ADD49R,0.05512X0.04134*%
%ADD50R,0.05709X0.04528*%
%ADD53R,0.04724X0.04724*%
%ADD54R,0.03937X0.04921*%
%ADD55R,0.06127X0.05728*%
%ADD56R,0.02756X0.02362*%
%ADD57R,0.02756X0.03937*%
%ADD58R,0.01575X0.05315*%
%ADD59R,0.08268X0.07874*%
%ADD60R,0.06299X0.07480*%
%ADD61R,0.04724X0.07480*%
%ADD62R,0.07480X0.05315*%
%ADD63R,0.04724X0.03937*%
%ADD64R,0.06102X0.05315*%
%ADD65R,0.03347X0.04331*%
%ADD66R,0.02953X0.04331*%
%ADD67R,0.04606X0.07087*%
%ADD131C,0.04000*%
%ADD132O,0.01102X0.03347*%
%ADD133O,0.03347X0.01102*%
%ADD134R,0.06693X0.06693*%
%ADD135C,0.01500*%
%ADD136C,0.01575*%
%ADD137C,0.07087*%
%ADD138R,0.07087X0.07087*%
%ADD139R,0.07087X0.07087*%
%ADD140C,0.03960*%
%ADD141C,0.14173*%
%ADD142C,0.02000*%
%ADD143C,0.01968*%
G36*
X213473Y265544D02*
X218955D01*
Y263541D01*
X208535Y253121D01*
X198635D01*
Y254273D01*
X194483D01*
Y251905D01*
X194417Y251861D01*
X193917Y252128D01*
Y254673D01*
X192759D01*
Y257228D01*
X194311D01*
Y257628D01*
X198635D01*
Y262372D01*
X197484D01*
Y266421D01*
X197541Y266478D01*
X202410D01*
Y264559D01*
X209712D01*
Y270000D01*
X213473D01*
Y265544D01*
D02*
G37*
G36*
X231947Y232000D02*
X227121D01*
Y241000D01*
X227036Y241429D01*
X226793Y241793D01*
X226793Y241793D01*
X225529Y243057D01*
Y265544D01*
X226065D01*
Y265144D01*
X227617D01*
Y259700D01*
X227605Y259696D01*
X227043Y259133D01*
X226781Y258500D01*
X230696D01*
X230434Y259133D01*
X229871Y259696D01*
X229860Y259700D01*
Y265144D01*
X231411D01*
Y265544D01*
X231947D01*
Y232000D01*
D02*
G37*
G36*
X190719Y269500D02*
X190467Y269395D01*
X189904Y268833D01*
X189642Y268200D01*
X191600D01*
Y267200D01*
X189642D01*
X189904Y266567D01*
X190467Y266004D01*
X190516Y265984D01*
Y262772D01*
X188965D01*
Y260500D01*
X191638D01*
Y259500D01*
X188965D01*
Y257228D01*
X190516D01*
Y254673D01*
X188965D01*
Y253121D01*
X184323D01*
X184262Y253351D01*
X183801Y254149D01*
X183149Y254801D01*
X182351Y255261D01*
X181500Y255489D01*
Y252000D01*
Y248511D01*
X182351Y248739D01*
X183149Y249199D01*
X183801Y249851D01*
X184262Y250649D01*
X184323Y250879D01*
X188965D01*
Y249327D01*
X188550Y249121D01*
X187500D01*
X187500Y249122D01*
X187071Y249036D01*
X186707Y248793D01*
X186707Y248793D01*
X180207Y242293D01*
X179964Y241929D01*
X179878Y241500D01*
X179878Y241500D01*
Y238909D01*
X179803Y238889D01*
X179097Y238481D01*
X178519Y237903D01*
X178111Y237197D01*
X178091Y237122D01*
X176000D01*
Y270000D01*
X190620D01*
X190719Y269500D01*
D02*
G37*
G36*
X223286Y242593D02*
X223286Y242593D01*
X223371Y242163D01*
X223614Y241799D01*
X224879Y240535D01*
Y232000D01*
X208334D01*
Y232098D01*
X202410D01*
Y232000D01*
X176000D01*
Y234878D01*
X178091D01*
X178111Y234803D01*
X178519Y234097D01*
X179097Y233519D01*
X179803Y233111D01*
X180592Y232900D01*
X181408D01*
X182197Y233111D01*
X182903Y233519D01*
X183481Y234097D01*
X183889Y234803D01*
X184100Y235592D01*
Y236408D01*
X183889Y237197D01*
X183481Y237903D01*
X182903Y238481D01*
X182197Y238889D01*
X182122Y238909D01*
Y241035D01*
X187965Y246879D01*
X188550D01*
X188965Y246673D01*
X188965Y246378D01*
Y244500D01*
X191441D01*
X193917D01*
Y246673D01*
X193453D01*
X193302Y247173D01*
X193352Y247207D01*
X195872Y249727D01*
X198635D01*
Y250879D01*
X209000D01*
X209000Y250878D01*
X209429Y250964D01*
X209793Y251207D01*
X220870Y262284D01*
X220870Y262284D01*
X221113Y262648D01*
X221198Y263077D01*
X221198Y263077D01*
Y265544D01*
X223286D01*
Y242593D01*
D02*
G37*
G36*
X30061Y246977D02*
X30500D01*
Y242508D01*
X27500D01*
Y238644D01*
X27000D01*
Y238144D01*
X22937D01*
Y234780D01*
X23337D01*
Y227892D01*
X30500D01*
Y219972D01*
X29779D01*
X29544Y220207D01*
X28956Y220450D01*
X28624D01*
X16275Y232799D01*
X16251Y232835D01*
X16251Y232835D01*
X15372Y233715D01*
Y235189D01*
X15772D01*
Y237362D01*
X13000D01*
Y237862D01*
X12500D01*
Y240535D01*
X11000D01*
Y245965D01*
X11500Y246172D01*
X11867Y245805D01*
X12500Y245542D01*
Y247500D01*
X13500D01*
Y245542D01*
X14133Y245805D01*
X14646Y246317D01*
X14879Y246284D01*
X15146Y246164D01*
Y244193D01*
X18500D01*
Y247457D01*
X19500D01*
Y244193D01*
X22854D01*
Y246164D01*
X23121Y246284D01*
X23354Y246317D01*
X23867Y245805D01*
X24500Y245542D01*
Y247500D01*
Y249458D01*
X23867Y249196D01*
X23354Y248683D01*
X23121Y248716D01*
X22854Y248836D01*
X22854Y250721D01*
X23239Y251000D01*
X30061D01*
Y246977D01*
D02*
G37*
G36*
X146000Y224000D02*
X141263D01*
X140906Y224356D01*
X140318Y224600D01*
X139682D01*
X139094Y224356D01*
X138859Y224121D01*
X137521D01*
Y225569D01*
X132778D01*
Y224000D01*
X131222D01*
Y225569D01*
X126479D01*
Y224074D01*
X123191D01*
X122929Y224127D01*
X120685D01*
X120494Y224089D01*
X120091Y224492D01*
X120090Y224500D01*
X120126Y224685D01*
Y226929D01*
X120074Y227191D01*
Y233488D01*
X121201Y234615D01*
X124727D01*
Y233758D01*
X129273D01*
Y234615D01*
X137108D01*
X137111Y234603D01*
X137519Y233897D01*
X138097Y233319D01*
X138803Y232911D01*
X139592Y232700D01*
X140408D01*
X141197Y232911D01*
X141903Y233319D01*
X142481Y233897D01*
X142889Y234603D01*
X143100Y235392D01*
Y236208D01*
X142889Y236997D01*
X142481Y237703D01*
X141903Y238281D01*
X141197Y238689D01*
X140408Y238900D01*
X139592D01*
X138803Y238689D01*
X138097Y238281D01*
X137519Y237703D01*
X137111Y236997D01*
X137074Y236858D01*
X129273D01*
Y237714D01*
X124727D01*
Y236858D01*
X120736D01*
X120350Y237174D01*
Y239500D01*
X117087D01*
X113823D01*
Y236146D01*
X115965D01*
Y228716D01*
X115516Y228451D01*
Y225807D01*
X114516D01*
Y228603D01*
X114222Y228820D01*
Y229359D01*
X114456Y229594D01*
X114700Y230182D01*
Y230818D01*
X114456Y231406D01*
X114006Y231856D01*
X113418Y232100D01*
X112782D01*
X112194Y231856D01*
X111744Y231406D01*
X111500Y230818D01*
Y230182D01*
X111744Y229594D01*
X111978Y229359D01*
Y227402D01*
X111963Y227378D01*
X111873Y226929D01*
Y225097D01*
X110903Y224127D01*
X109071D01*
X109000Y224185D01*
Y236546D01*
X112864D01*
Y243454D01*
X109000D01*
Y267000D01*
X146000D01*
Y224000D01*
D02*
G37*
G36*
X27038Y218864D02*
Y218532D01*
X27281Y217944D01*
X27516Y217709D01*
Y212372D01*
X26365D01*
Y207628D01*
X29835D01*
X30042Y207128D01*
X29187Y206273D01*
X26758D01*
Y201727D01*
X30500D01*
Y200372D01*
X26365D01*
Y199122D01*
X24141D01*
X23906Y199356D01*
X23318Y199600D01*
X22682D01*
X22094Y199356D01*
X21644Y198906D01*
X21400Y198318D01*
Y197682D01*
X21644Y197094D01*
X22094Y196644D01*
X22682Y196400D01*
X23318D01*
X23906Y196644D01*
X24141Y196878D01*
X26365D01*
Y195628D01*
X30500D01*
Y194673D01*
X29236D01*
Y192000D01*
X28236D01*
Y194673D01*
X26358D01*
Y193122D01*
X20700D01*
X20696Y193133D01*
X20133Y193695D01*
X19500Y193958D01*
Y192000D01*
X19000D01*
Y191500D01*
X17042D01*
X17304Y190867D01*
X17867Y190305D01*
X17878Y190300D01*
Y189642D01*
X16327D01*
Y187764D01*
X19000D01*
Y186764D01*
X16327D01*
Y186000D01*
X11000D01*
Y230865D01*
X15037D01*
X27038Y218864D01*
D02*
G37*
G36*
X166519Y210685D02*
X166166Y210331D01*
X161461D01*
Y205000D01*
Y199669D01*
X166542D01*
X166572Y185798D01*
X166516Y185748D01*
Y182878D01*
X165516D01*
Y185340D01*
X165167Y185270D01*
X150000Y200599D01*
Y219000D01*
X166501D01*
X166519Y210685D01*
D02*
G37*
G36*
X163178Y185737D02*
X163039Y185168D01*
X162814Y185017D01*
X162562Y184641D01*
X162474Y184197D01*
Y183378D01*
X164047D01*
Y182378D01*
X162474D01*
Y181559D01*
X162363Y181423D01*
X160878D01*
Y182500D01*
X158500D01*
X156122D01*
Y180622D01*
X155934Y180200D01*
X140000D01*
Y193500D01*
X155500D01*
X163178Y185737D01*
D02*
G37*
G36*
X187000Y219000D02*
X200000Y206000D01*
Y181704D01*
X199646Y181351D01*
X179067Y181403D01*
Y182500D01*
X176000D01*
X172933D01*
Y181773D01*
X172579Y181420D01*
X171638Y181422D01*
X171526Y181559D01*
Y182378D01*
X169953D01*
Y183378D01*
X171526D01*
Y184197D01*
X171438Y184641D01*
X171186Y185017D01*
X170810Y185269D01*
X170366Y185357D01*
X169764D01*
X169557Y185857D01*
X175600Y191900D01*
Y199669D01*
X180539D01*
Y205000D01*
Y210331D01*
X175600D01*
Y219000D01*
X187000Y219000D01*
D02*
G37*
G36*
X205114Y169302D02*
X204760Y168949D01*
X179666Y169050D01*
X175288Y173567D01*
X175483Y174028D01*
X175500D01*
Y176307D01*
X176000D01*
D01*
X175500D01*
Y178587D01*
X172933D01*
Y176663D01*
X172470Y176476D01*
X171772Y177195D01*
X171150D01*
Y178500D01*
X167000D01*
X162850D01*
Y177195D01*
X162695D01*
X162330Y176830D01*
X162316Y173834D01*
X156150Y168000D01*
X140000D01*
Y178895D01*
X156122D01*
Y177988D01*
X158500D01*
X160878D01*
Y179866D01*
X159997D01*
X159806Y180328D01*
X160287Y180809D01*
X160792D01*
X160878Y180774D01*
X162362D01*
X162550Y180703D01*
X162850Y180525D01*
Y179500D01*
X167000D01*
X171150D01*
Y180522D01*
X171453Y180703D01*
X171634Y180772D01*
X171650Y180773D01*
X172577Y180770D01*
X172578Y180771D01*
X172578Y180770D01*
X172673Y180809D01*
X178932D01*
X179065Y180754D01*
X199644Y180702D01*
X199645Y180702D01*
X199645Y180702D01*
X199873Y180796D01*
X199906Y180809D01*
X205114D01*
Y169302D01*
D02*
G37*
G36*
X116000Y166775D02*
X111175D01*
Y168025D01*
X106825D01*
Y166775D01*
X97000D01*
X96571Y166690D01*
X96207Y166447D01*
X96207Y166447D01*
X92850Y163090D01*
X87445D01*
Y164429D01*
X87474Y164577D01*
X87445Y164725D01*
Y166112D01*
X83537D01*
Y167875D01*
X83756Y168094D01*
X84000Y168682D01*
Y169318D01*
X83756Y169906D01*
X83306Y170356D01*
X82718Y170600D01*
X82082D01*
X81494Y170356D01*
X81044Y169906D01*
X80800Y169318D01*
Y168682D01*
X80932Y168364D01*
X80964Y168202D01*
X81207Y167838D01*
X81294Y167751D01*
Y166112D01*
X79355D01*
Y163461D01*
X77872D01*
Y163090D01*
X74713D01*
X74695Y163133D01*
X74133Y163696D01*
X74122Y163700D01*
Y164514D01*
X74911D01*
Y166105D01*
X73000D01*
X71089D01*
Y164514D01*
X71878D01*
Y163700D01*
X71867Y163696D01*
X71305Y163133D01*
X71042Y162500D01*
X73000D01*
Y162000D01*
X73500D01*
Y160042D01*
X74133Y160304D01*
X74675Y160847D01*
X77872D01*
Y160476D01*
X78272D01*
Y158083D01*
X77706Y157517D01*
X74511D01*
Y158086D01*
X71489D01*
Y157517D01*
X69246D01*
X68906Y157856D01*
X68318Y158100D01*
X67682D01*
X67094Y157856D01*
X66644Y157406D01*
X66400Y156818D01*
Y156182D01*
X66644Y155594D01*
X67094Y155144D01*
X67682Y154900D01*
X68318D01*
X68906Y155144D01*
X69036Y155273D01*
X71089D01*
Y154105D01*
X73000D01*
Y153105D01*
X71089D01*
Y151514D01*
X71878D01*
Y150700D01*
X71867Y150696D01*
X71305Y150133D01*
X71042Y149500D01*
X74958D01*
X74695Y150133D01*
X74133Y150696D01*
X74122Y150700D01*
Y151514D01*
X74911D01*
Y152483D01*
X78629D01*
X78629Y152483D01*
X79058Y152569D01*
X79422Y152812D01*
X79947Y153337D01*
Y155423D01*
X80947D01*
Y153488D01*
X81939D01*
Y153888D01*
X87445D01*
Y153888D01*
X87878Y153728D01*
Y152700D01*
X87867Y152696D01*
X87305Y152133D01*
X87042Y151500D01*
X89000D01*
Y151000D01*
X89500D01*
Y149042D01*
X90133Y149304D01*
X90696Y149867D01*
X90878Y150309D01*
X91378Y150209D01*
Y145000D01*
X83560D01*
X83318Y145100D01*
X82682D01*
X82440Y145000D01*
X71586D01*
X65000Y151586D01*
Y159377D01*
X65189Y159703D01*
X65400Y160492D01*
Y161308D01*
X65189Y162097D01*
X65000Y162424D01*
Y166414D01*
X68193Y169607D01*
X68436Y169971D01*
X68522Y170400D01*
X68522Y170400D01*
Y180000D01*
X116000D01*
Y166775D01*
D02*
G37*
G36*
X185000Y152500D02*
X170000D01*
Y167500D01*
X177583D01*
X177988Y167272D01*
X177988Y167000D01*
Y165622D01*
X176200D01*
X176196Y165633D01*
X175633Y166195D01*
X175000Y166458D01*
Y164500D01*
Y162542D01*
X175633Y162804D01*
X176196Y163367D01*
X176200Y163378D01*
X177988D01*
Y161728D01*
X179835D01*
Y159811D01*
X179649Y159762D01*
X178851Y159301D01*
X178199Y158649D01*
X177738Y157851D01*
X177510Y157000D01*
X181000D01*
X184490D01*
X184262Y157851D01*
X183801Y158649D01*
X183149Y159301D01*
X182351Y159762D01*
X182078Y159835D01*
Y161728D01*
X183925D01*
Y164000D01*
X180957D01*
Y165000D01*
X183925D01*
Y167000D01*
X183925Y167272D01*
X184331Y167500D01*
X185000D01*
Y152500D01*
D02*
G37*
G36*
X116000Y157468D02*
X111175D01*
Y158718D01*
X106825D01*
Y157468D01*
X103548D01*
X103313Y157703D01*
X102725Y157947D01*
X102089D01*
X101500Y157703D01*
X101050Y157253D01*
X100807Y156665D01*
Y156028D01*
X101050Y155440D01*
X101500Y154990D01*
X102089Y154746D01*
X102725D01*
X103313Y154990D01*
X103548Y155225D01*
X106825D01*
Y153975D01*
X111175D01*
Y155225D01*
X116000D01*
Y147122D01*
X111575D01*
Y149153D01*
X109000D01*
Y149653D01*
X108500D01*
Y152425D01*
X106425D01*
Y150775D01*
X104200D01*
X104195Y150786D01*
X103633Y151349D01*
X103000Y151611D01*
Y149653D01*
Y147696D01*
X103633Y147958D01*
X104195Y148521D01*
X104200Y148532D01*
X106425D01*
Y146882D01*
X109189D01*
X109396Y146382D01*
X108014Y145000D01*
X98320D01*
Y158085D01*
X98235Y158514D01*
X97992Y158878D01*
X97992Y158878D01*
X94901Y161969D01*
X97465Y164532D01*
X106825D01*
Y163282D01*
X111175D01*
Y164532D01*
X116000D01*
Y157468D01*
D02*
G37*
G36*
X96077Y157620D02*
Y145000D01*
X93622D01*
Y155259D01*
X93856Y155494D01*
X94100Y156082D01*
Y156718D01*
X93856Y157306D01*
X93406Y157756D01*
X92818Y158000D01*
X92486D01*
X90139Y160347D01*
X90346Y160847D01*
X92850D01*
X96077Y157620D01*
D02*
G37*
G36*
X53495Y70000D02*
Y68122D01*
X51141D01*
X50906Y68356D01*
X50318Y68600D01*
X49682D01*
X49094Y68356D01*
X48644Y67906D01*
X48400Y67318D01*
Y66682D01*
X48644Y66094D01*
X49094Y65644D01*
X49682Y65400D01*
X50318D01*
X50906Y65644D01*
X51141Y65878D01*
X53495D01*
Y63939D01*
X58631D01*
Y70000D01*
X60969D01*
Y67500D01*
X63937D01*
X66905D01*
Y70000D01*
X67731D01*
Y60194D01*
X67444Y59906D01*
X67200Y59318D01*
Y58682D01*
X67444Y58094D01*
X67894Y57644D01*
X68482Y57400D01*
X69118D01*
X69706Y57644D01*
X70156Y58094D01*
X70400Y58682D01*
Y59318D01*
X70156Y59906D01*
X69974Y60089D01*
Y70000D01*
X72455D01*
Y53695D01*
X61935Y43175D01*
X58975D01*
Y38825D01*
X60378D01*
Y27143D01*
X57357D01*
Y20443D01*
X52035Y15122D01*
X46000D01*
Y30878D01*
X48859D01*
X49094Y30644D01*
X49682Y30400D01*
X50318D01*
X50906Y30644D01*
X51356Y31094D01*
X51600Y31682D01*
Y32318D01*
X51356Y32906D01*
X50906Y33356D01*
X50318Y33600D01*
X49682D01*
X49094Y33356D01*
X48859Y33122D01*
X46000D01*
Y70000D01*
X53495D01*
D02*
G37*
G36*
X76775D02*
X76944Y69594D01*
X77177Y69360D01*
Y67909D01*
X77103Y67889D01*
X76397Y67481D01*
X75819Y66903D01*
X75411Y66197D01*
X75200Y65408D01*
Y64592D01*
X75411Y63803D01*
X75819Y63097D01*
X76397Y62519D01*
X77103Y62111D01*
X77892Y61900D01*
X78708D01*
X79497Y62111D01*
X80203Y62519D01*
X80781Y63097D01*
X81189Y63803D01*
X81400Y64592D01*
Y65408D01*
X81189Y66197D01*
X80781Y66903D01*
X80203Y67481D01*
X79497Y67889D01*
X79420Y67909D01*
Y69358D01*
X79656Y69594D01*
X79825Y70000D01*
X81904D01*
Y69141D01*
X81669Y68906D01*
X81426Y68318D01*
Y67682D01*
X81669Y67094D01*
X82119Y66644D01*
X82707Y66400D01*
X83344D01*
X83932Y66644D01*
X84382Y67094D01*
X84626Y67682D01*
Y68318D01*
X84382Y68906D01*
X84147Y69141D01*
Y70000D01*
X86628D01*
Y66141D01*
X86394Y65906D01*
X86150Y65318D01*
Y64682D01*
X86394Y64094D01*
X86844Y63644D01*
X87432Y63400D01*
X88068D01*
X88656Y63644D01*
X89106Y64094D01*
X89350Y64682D01*
Y65318D01*
X89106Y65906D01*
X88872Y66141D01*
Y70000D01*
X98414Y70000D01*
X98606Y69538D01*
X72242Y43175D01*
X69282D01*
Y38825D01*
X70532D01*
Y27030D01*
X69901Y26861D01*
X68956Y26316D01*
X68185Y25544D01*
X67639Y24599D01*
X67357Y23546D01*
Y22455D01*
X67639Y21401D01*
X68185Y20456D01*
X68956Y19684D01*
X69901Y19139D01*
X70955Y18857D01*
X72045D01*
X73099Y19139D01*
X74044Y19684D01*
X74815Y20456D01*
X75361Y21401D01*
X75643Y22455D01*
Y23546D01*
X75361Y24599D01*
X74815Y25544D01*
X74044Y26316D01*
X73099Y26861D01*
X72775Y26948D01*
Y38825D01*
X74025D01*
Y41785D01*
X75113Y42873D01*
X75575Y42682D01*
Y41500D01*
X77846D01*
Y43575D01*
X76468D01*
X76276Y44037D01*
X102240Y70000D01*
X105526D01*
Y63128D01*
X104425D01*
Y58778D01*
X108775D01*
Y63128D01*
X107769D01*
Y70000D01*
X109875D01*
X110044Y69594D01*
X110494Y69144D01*
X111082Y68900D01*
X111414D01*
X115107Y65207D01*
X115107Y65207D01*
X115471Y64964D01*
X115900Y64878D01*
X115900Y64878D01*
X121494D01*
Y62939D01*
X126631D01*
Y67360D01*
X126653Y67469D01*
X126653Y67469D01*
Y68477D01*
X126667Y68546D01*
Y70000D01*
X130097D01*
Y69461D01*
X128969D01*
Y66500D01*
X131937D01*
Y66000D01*
X132437D01*
Y62539D01*
X134906D01*
Y63878D01*
X137300D01*
X137304Y63867D01*
X137867Y63305D01*
X138602Y63000D01*
X139000D01*
Y57133D01*
X131474Y49607D01*
X127235D01*
Y47681D01*
X124273D01*
Y48635D01*
X119727D01*
Y47771D01*
X116569D01*
Y49021D01*
X111432D01*
Y44278D01*
X116569D01*
Y45528D01*
X119727D01*
Y44483D01*
X124273D01*
Y45437D01*
X127235D01*
Y43486D01*
X132765D01*
Y47726D01*
X138538Y53498D01*
X139000Y53307D01*
Y12500D01*
X53345D01*
X53273Y12592D01*
X53293Y13207D01*
X58943Y18857D01*
X65643D01*
Y27143D01*
X62622D01*
Y38825D01*
X63718D01*
Y41785D01*
X74370Y52437D01*
X74370Y52437D01*
X74613Y52801D01*
X74698Y53230D01*
X74698Y53230D01*
Y70000D01*
X76775D01*
D02*
G37*
%LPC*%
G36*
X230696Y257500D02*
X229238D01*
Y256042D01*
X229871Y256305D01*
X230434Y256867D01*
X230696Y257500D01*
D02*
G37*
G36*
X228238D02*
X226781D01*
X227043Y256867D01*
X227605Y256305D01*
X228238Y256042D01*
Y257500D01*
D02*
G37*
G36*
X181500Y261958D02*
Y260500D01*
X182958D01*
X182695Y261133D01*
X182133Y261696D01*
X181500Y261958D01*
D02*
G37*
G36*
X180500D02*
X179867Y261696D01*
X179305Y261133D01*
X179042Y260500D01*
X180500D01*
Y261958D01*
D02*
G37*
G36*
X182958Y259500D02*
X181500D01*
Y258042D01*
X182133Y258305D01*
X182695Y258867D01*
X182958Y259500D01*
D02*
G37*
G36*
X180500D02*
X179042D01*
X179305Y258867D01*
X179867Y258305D01*
X180500Y258042D01*
Y259500D01*
D02*
G37*
G36*
X180500Y255489D02*
X179649Y255261D01*
X178851Y254801D01*
X178199Y254149D01*
X177738Y253351D01*
X177510Y252500D01*
X180500D01*
Y255489D01*
D02*
G37*
G36*
Y251500D02*
X177510D01*
X177738Y250649D01*
X178199Y249851D01*
X178851Y249199D01*
X179649Y248739D01*
X180500Y248511D01*
Y251500D01*
D02*
G37*
G36*
X208334Y246665D02*
X202410D01*
Y245122D01*
X198635D01*
Y246273D01*
X194483D01*
Y241727D01*
X195438D01*
Y238925D01*
X195303Y238889D01*
X194597Y238481D01*
X194019Y237903D01*
X193611Y237197D01*
X193400Y236408D01*
Y235592D01*
X193611Y234803D01*
X194019Y234097D01*
X194597Y233519D01*
X195303Y233111D01*
X196092Y232900D01*
X196908D01*
X197697Y233111D01*
X198403Y233519D01*
X198981Y234097D01*
X199389Y234803D01*
X199600Y235592D01*
Y236408D01*
X199389Y237197D01*
X198981Y237903D01*
X198403Y238481D01*
X197697Y238889D01*
X197681Y238893D01*
Y241727D01*
X198635D01*
Y242879D01*
X202410D01*
Y241528D01*
X208334D01*
Y246665D01*
D02*
G37*
G36*
X193917Y243500D02*
X191941D01*
Y241327D01*
X193917D01*
Y243500D01*
D02*
G37*
G36*
X190941D02*
X188965D01*
Y243110D01*
X187707Y241852D01*
X187464Y241488D01*
X187378Y241059D01*
X187378Y241059D01*
Y237700D01*
X187367Y237696D01*
X186804Y237133D01*
X186542Y236500D01*
X190458D01*
X190196Y237133D01*
X189633Y237696D01*
X189622Y237700D01*
Y240595D01*
X190354Y241327D01*
X190941D01*
Y243500D01*
D02*
G37*
G36*
X190458Y235500D02*
X189000D01*
Y234042D01*
X189633Y234304D01*
X190196Y234867D01*
X190458Y235500D01*
D02*
G37*
G36*
X188000D02*
X186542D01*
X186804Y234867D01*
X187367Y234304D01*
X188000Y234042D01*
Y235500D01*
D02*
G37*
G36*
X25500Y249458D02*
Y248000D01*
X26958D01*
X26695Y248633D01*
X26133Y249196D01*
X25500Y249458D01*
D02*
G37*
G36*
X26958Y247000D02*
X25500D01*
Y245542D01*
X26133Y245805D01*
X26695Y246367D01*
X26958Y247000D01*
D02*
G37*
G36*
X26500Y242508D02*
X22937D01*
Y239144D01*
X26500D01*
Y242508D01*
D02*
G37*
G36*
X19500Y239958D02*
Y238500D01*
X20958D01*
X20696Y239133D01*
X20133Y239696D01*
X19500Y239958D01*
D02*
G37*
G36*
X18500D02*
X17867Y239696D01*
X17304Y239133D01*
X17042Y238500D01*
X18500D01*
Y239958D01*
D02*
G37*
G36*
X15772Y240535D02*
X13500D01*
Y238362D01*
X15772D01*
Y240535D01*
D02*
G37*
G36*
X20958Y237500D02*
X19500D01*
Y236042D01*
X20133Y236304D01*
X20696Y236867D01*
X20958Y237500D01*
D02*
G37*
G36*
X18500D02*
X17042D01*
X17304Y236867D01*
X17867Y236304D01*
X18500Y236042D01*
Y237500D01*
D02*
G37*
G36*
X124598Y264543D02*
X124500D01*
Y260500D01*
X128543D01*
Y260598D01*
X128234Y261754D01*
X127636Y262790D01*
X126790Y263635D01*
X125754Y264234D01*
X124598Y264543D01*
D02*
G37*
G36*
X141500Y261958D02*
Y260500D01*
X142958D01*
X142695Y261133D01*
X142133Y261696D01*
X141500Y261958D01*
D02*
G37*
G36*
X140500D02*
X139867Y261696D01*
X139304Y261133D01*
X139042Y260500D01*
X140500D01*
Y261958D01*
D02*
G37*
G36*
X132500D02*
Y260500D01*
X133958D01*
X133695Y261133D01*
X133133Y261696D01*
X132500Y261958D01*
D02*
G37*
G36*
X131500D02*
X130867Y261696D01*
X130305Y261133D01*
X130042Y260500D01*
X131500D01*
Y261958D01*
D02*
G37*
G36*
X123500Y264543D02*
X123402D01*
X122246Y264234D01*
X121210Y263635D01*
X120364Y262790D01*
X119766Y261754D01*
X119457Y260598D01*
Y260500D01*
X123500D01*
Y264543D01*
D02*
G37*
G36*
X142958Y259500D02*
X141500D01*
Y258042D01*
X142133Y258305D01*
X142695Y258867D01*
X142958Y259500D01*
D02*
G37*
G36*
X140500D02*
X139042D01*
X139304Y258867D01*
X139867Y258305D01*
X140500Y258042D01*
Y259500D01*
D02*
G37*
G36*
X133958D02*
X132500D01*
Y258042D01*
X133133Y258305D01*
X133695Y258867D01*
X133958Y259500D01*
D02*
G37*
G36*
X131500D02*
X130042D01*
X130305Y258867D01*
X130867Y258305D01*
X131500Y258042D01*
Y259500D01*
D02*
G37*
G36*
X114546Y264143D02*
X113454D01*
X112401Y263861D01*
X111456Y263316D01*
X110685Y262544D01*
X110139Y261599D01*
X109857Y260545D01*
Y259454D01*
X110139Y258401D01*
X110685Y257456D01*
X111456Y256684D01*
X112401Y256139D01*
X113454Y255857D01*
X114546D01*
X115599Y256139D01*
X116544Y256684D01*
X117315Y257456D01*
X117861Y258401D01*
X118143Y259454D01*
Y260545D01*
X117861Y261599D01*
X117315Y262544D01*
X116544Y263316D01*
X115599Y263861D01*
X114546Y264143D01*
D02*
G37*
G36*
X128543Y259500D02*
X124500D01*
Y255457D01*
X124598D01*
X125754Y255766D01*
X126790Y256364D01*
X127636Y257210D01*
X128234Y258246D01*
X128543Y259402D01*
Y259500D01*
D02*
G37*
G36*
X123500D02*
X119457D01*
Y259402D01*
X119766Y258246D01*
X120364Y257210D01*
X121210Y256364D01*
X122246Y255766D01*
X123402Y255457D01*
X123500D01*
Y259500D01*
D02*
G37*
G36*
X141500Y252958D02*
Y251500D01*
X142958D01*
X142695Y252133D01*
X142133Y252695D01*
X141500Y252958D01*
D02*
G37*
G36*
X140500D02*
X139867Y252695D01*
X139304Y252133D01*
X139042Y251500D01*
X140500D01*
Y252958D01*
D02*
G37*
G36*
X132500D02*
Y251500D01*
X133958D01*
X133695Y252133D01*
X133133Y252695D01*
X132500Y252958D01*
D02*
G37*
G36*
X131500D02*
X130867Y252695D01*
X130305Y252133D01*
X130042Y251500D01*
X131500D01*
Y252958D01*
D02*
G37*
G36*
X114500D02*
Y251500D01*
X115958D01*
X115696Y252133D01*
X115133Y252695D01*
X114500Y252958D01*
D02*
G37*
G36*
X113500D02*
X112867Y252695D01*
X112304Y252133D01*
X112042Y251500D01*
X113500D01*
Y252958D01*
D02*
G37*
G36*
X142958Y250500D02*
X141500D01*
Y249042D01*
X142133Y249305D01*
X142695Y249867D01*
X142958Y250500D01*
D02*
G37*
G36*
X140500D02*
X139042D01*
X139304Y249867D01*
X139867Y249305D01*
X140500Y249042D01*
Y250500D01*
D02*
G37*
G36*
X133958D02*
X132500D01*
Y249042D01*
X133133Y249305D01*
X133695Y249867D01*
X133958Y250500D01*
D02*
G37*
G36*
X131500D02*
X130042D01*
X130305Y249867D01*
X130867Y249305D01*
X131500Y249042D01*
Y250500D01*
D02*
G37*
G36*
X115958D02*
X114500D01*
Y249042D01*
X115133Y249305D01*
X115696Y249867D01*
X115958Y250500D01*
D02*
G37*
G36*
X113500D02*
X112042D01*
X112304Y249867D01*
X112867Y249305D01*
X113500Y249042D01*
Y250500D01*
D02*
G37*
G36*
X120350Y243854D02*
X117587D01*
Y240500D01*
X120350D01*
Y243854D01*
D02*
G37*
G36*
X116587D02*
X113823D01*
Y240500D01*
X116587D01*
Y243854D01*
D02*
G37*
G36*
X129273Y242242D02*
X124727D01*
Y238286D01*
X129273D01*
Y239142D01*
X130895D01*
X131094Y238944D01*
X131682Y238700D01*
X132318D01*
X132906Y238944D01*
X133356Y239394D01*
X133600Y239982D01*
Y240618D01*
X133356Y241206D01*
X132906Y241656D01*
X132318Y241900D01*
X131682D01*
X131094Y241656D01*
X130823Y241385D01*
X129273D01*
Y242242D01*
D02*
G37*
G36*
X19500Y222958D02*
Y221500D01*
X20958D01*
X20696Y222133D01*
X20133Y222695D01*
X19500Y222958D01*
D02*
G37*
G36*
X18500D02*
X17867Y222695D01*
X17304Y222133D01*
X17042Y221500D01*
X18500D01*
Y222958D01*
D02*
G37*
G36*
X20958Y220500D02*
X19500D01*
Y219042D01*
X20133Y219304D01*
X20696Y219867D01*
X20958Y220500D01*
D02*
G37*
G36*
X18500D02*
X17042D01*
X17304Y219867D01*
X17867Y219304D01*
X18500Y219042D01*
Y220500D01*
D02*
G37*
G36*
X23500Y215958D02*
Y214500D01*
X24958D01*
X24696Y215133D01*
X24133Y215696D01*
X23500Y215958D01*
D02*
G37*
G36*
X22500D02*
X21867Y215696D01*
X21305Y215133D01*
X21042Y214500D01*
X22500D01*
Y215958D01*
D02*
G37*
G36*
X15500D02*
Y214500D01*
X16958D01*
X16695Y215133D01*
X16133Y215696D01*
X15500Y215958D01*
D02*
G37*
G36*
X14500D02*
X13867Y215696D01*
X13305Y215133D01*
X13042Y214500D01*
X14500D01*
Y215958D01*
D02*
G37*
G36*
X24958Y213500D02*
X23500D01*
Y212042D01*
X24133Y212304D01*
X24696Y212867D01*
X24958Y213500D01*
D02*
G37*
G36*
X22500D02*
X21042D01*
X21305Y212867D01*
X21867Y212304D01*
X22500Y212042D01*
Y213500D01*
D02*
G37*
G36*
X16958D02*
X15500D01*
Y212042D01*
X16133Y212304D01*
X16695Y212867D01*
X16958Y213500D01*
D02*
G37*
G36*
X14500D02*
X13042D01*
X13305Y212867D01*
X13867Y212304D01*
X14500Y212042D01*
Y213500D01*
D02*
G37*
G36*
X23500Y207958D02*
Y206500D01*
X24958D01*
X24696Y207133D01*
X24133Y207696D01*
X23500Y207958D01*
D02*
G37*
G36*
X22500D02*
X21867Y207696D01*
X21305Y207133D01*
X21042Y206500D01*
X22500D01*
Y207958D01*
D02*
G37*
G36*
X15500D02*
Y206500D01*
X16958D01*
X16695Y207133D01*
X16133Y207696D01*
X15500Y207958D01*
D02*
G37*
G36*
X14500D02*
X13867Y207696D01*
X13305Y207133D01*
X13042Y206500D01*
X14500D01*
Y207958D01*
D02*
G37*
G36*
X24958Y205500D02*
X23500D01*
Y204042D01*
X24133Y204305D01*
X24696Y204867D01*
X24958Y205500D01*
D02*
G37*
G36*
X22500D02*
X21042D01*
X21305Y204867D01*
X21867Y204305D01*
X22500Y204042D01*
Y205500D01*
D02*
G37*
G36*
X16958D02*
X15500D01*
Y204042D01*
X16133Y204305D01*
X16695Y204867D01*
X16958Y205500D01*
D02*
G37*
G36*
X14500D02*
X13042D01*
X13305Y204867D01*
X13867Y204305D01*
X14500Y204042D01*
Y205500D01*
D02*
G37*
G36*
X15500Y199958D02*
Y198500D01*
X16958D01*
X16695Y199133D01*
X16133Y199696D01*
X15500Y199958D01*
D02*
G37*
G36*
X14500D02*
X13867Y199696D01*
X13305Y199133D01*
X13042Y198500D01*
X14500D01*
Y199958D01*
D02*
G37*
G36*
X16958Y197500D02*
X15500D01*
Y196042D01*
X16133Y196305D01*
X16695Y196867D01*
X16958Y197500D01*
D02*
G37*
G36*
X14500D02*
X13042D01*
X13305Y196867D01*
X13867Y196305D01*
X14500Y196042D01*
Y197500D01*
D02*
G37*
G36*
X18500Y193958D02*
X17867Y193695D01*
X17304Y193133D01*
X17042Y192500D01*
X18500D01*
Y193958D01*
D02*
G37*
G36*
X160461Y210331D02*
X154646D01*
Y205500D01*
X160461D01*
Y210331D01*
D02*
G37*
G36*
Y204500D02*
X154646D01*
Y199669D01*
X160461D01*
Y204500D01*
D02*
G37*
G36*
X147500Y184958D02*
Y183500D01*
X148958D01*
X148696Y184133D01*
X148133Y184695D01*
X147500Y184958D01*
D02*
G37*
G36*
X146500D02*
X145867Y184695D01*
X145305Y184133D01*
X145042Y183500D01*
X146500D01*
Y184958D01*
D02*
G37*
G36*
X160878Y185378D02*
X159000D01*
Y183500D01*
X160878D01*
Y185378D01*
D02*
G37*
G36*
X158000D02*
X156122D01*
Y183500D01*
X158000D01*
Y185378D01*
D02*
G37*
G36*
X148958Y182500D02*
X147500D01*
Y181042D01*
X148133Y181305D01*
X148696Y181867D01*
X148958Y182500D01*
D02*
G37*
G36*
X146500D02*
X145042D01*
X145305Y181867D01*
X145867Y181305D01*
X146500Y181042D01*
Y182500D01*
D02*
G37*
G36*
X187354Y210331D02*
X181539D01*
Y205500D01*
X187354D01*
Y210331D01*
D02*
G37*
G36*
Y204500D02*
X181539D01*
Y199669D01*
X187354D01*
Y204500D01*
D02*
G37*
G36*
X181500Y189958D02*
Y188500D01*
X182958D01*
X182695Y189133D01*
X182133Y189696D01*
X181500Y189958D01*
D02*
G37*
G36*
X180500D02*
X179867Y189696D01*
X179305Y189133D01*
X179042Y188500D01*
X180500D01*
Y189958D01*
D02*
G37*
G36*
X182958Y187500D02*
X181500D01*
Y186042D01*
X182133Y186304D01*
X182695Y186867D01*
X182958Y187500D01*
D02*
G37*
G36*
X180500D02*
X179042D01*
X179305Y186867D01*
X179867Y186304D01*
X180500Y186042D01*
Y187500D01*
D02*
G37*
G36*
X179067Y185280D02*
X176500D01*
Y183500D01*
X179067D01*
Y185280D01*
D02*
G37*
G36*
X175500D02*
X172933D01*
Y183500D01*
X175500D01*
Y185280D01*
D02*
G37*
G36*
X202500Y178958D02*
Y177500D01*
X203958D01*
X203696Y178133D01*
X203133Y178695D01*
X202500Y178958D01*
D02*
G37*
G36*
X201500D02*
X200867Y178695D01*
X200305Y178133D01*
X200042Y177500D01*
X201500D01*
Y178958D01*
D02*
G37*
G36*
X197500D02*
Y177500D01*
X198958D01*
X198696Y178133D01*
X198133Y178695D01*
X197500Y178958D01*
D02*
G37*
G36*
X196500D02*
X195867Y178695D01*
X195305Y178133D01*
X195042Y177500D01*
X196500D01*
Y178958D01*
D02*
G37*
G36*
X187500D02*
Y177500D01*
X188958D01*
X188696Y178133D01*
X188133Y178695D01*
X187500Y178958D01*
D02*
G37*
G36*
X186500D02*
X185867Y178695D01*
X185304Y178133D01*
X185042Y177500D01*
X186500D01*
Y178958D01*
D02*
G37*
G36*
X182500D02*
Y177500D01*
X183958D01*
X183695Y178133D01*
X183133Y178695D01*
X182500Y178958D01*
D02*
G37*
G36*
X181500D02*
X180867Y178695D01*
X180305Y178133D01*
X180042Y177500D01*
X181500D01*
Y178958D01*
D02*
G37*
G36*
X179067Y178587D02*
X176500D01*
Y176807D01*
X179067D01*
Y178587D01*
D02*
G37*
G36*
X151500Y177958D02*
Y176500D01*
X152958D01*
X152696Y177133D01*
X152133Y177696D01*
X151500Y177958D01*
D02*
G37*
G36*
X150500D02*
X149867Y177696D01*
X149304Y177133D01*
X149042Y176500D01*
X150500D01*
Y177958D01*
D02*
G37*
G36*
X144500D02*
Y176500D01*
X145958D01*
X145695Y177133D01*
X145133Y177696D01*
X144500Y177958D01*
D02*
G37*
G36*
X143500D02*
X142867Y177696D01*
X142305Y177133D01*
X142042Y176500D01*
X143500D01*
Y177958D01*
D02*
G37*
G36*
X160878Y176988D02*
X159000D01*
Y175110D01*
X160878D01*
Y176988D01*
D02*
G37*
G36*
X158000D02*
X156122D01*
Y175110D01*
X158000D01*
Y176988D01*
D02*
G37*
G36*
X203958Y176500D02*
X202500D01*
Y175042D01*
X203133Y175304D01*
X203696Y175867D01*
X203958Y176500D01*
D02*
G37*
G36*
X201500D02*
X200042D01*
X200305Y175867D01*
X200867Y175304D01*
X201500Y175042D01*
Y176500D01*
D02*
G37*
G36*
X198958D02*
X197500D01*
Y175042D01*
X198133Y175304D01*
X198696Y175867D01*
X198958Y176500D01*
D02*
G37*
G36*
X196500D02*
X195042D01*
X195305Y175867D01*
X195867Y175304D01*
X196500Y175042D01*
Y176500D01*
D02*
G37*
G36*
X188958D02*
X187500D01*
Y175042D01*
X188133Y175304D01*
X188696Y175867D01*
X188958Y176500D01*
D02*
G37*
G36*
X186500D02*
X185042D01*
X185304Y175867D01*
X185867Y175304D01*
X186500Y175042D01*
Y176500D01*
D02*
G37*
G36*
X183958D02*
X182500D01*
Y175042D01*
X183133Y175304D01*
X183695Y175867D01*
X183958Y176500D01*
D02*
G37*
G36*
X181500D02*
X180042D01*
X180305Y175867D01*
X180867Y175304D01*
X181500Y175042D01*
Y176500D01*
D02*
G37*
G36*
X152958Y175500D02*
X151500D01*
Y174042D01*
X152133Y174304D01*
X152696Y174867D01*
X152958Y175500D01*
D02*
G37*
G36*
X150500D02*
X149042D01*
X149304Y174867D01*
X149867Y174304D01*
X150500Y174042D01*
Y175500D01*
D02*
G37*
G36*
X145958D02*
X144500D01*
Y174042D01*
X145133Y174304D01*
X145695Y174867D01*
X145958Y175500D01*
D02*
G37*
G36*
X143500D02*
X142042D01*
X142305Y174867D01*
X142867Y174304D01*
X143500Y174042D01*
Y175500D01*
D02*
G37*
G36*
X179067Y175807D02*
X176500D01*
Y174028D01*
X179067D01*
Y175807D01*
D02*
G37*
G36*
X202500Y173958D02*
Y172500D01*
X203958D01*
X203696Y173133D01*
X203133Y173696D01*
X202500Y173958D01*
D02*
G37*
G36*
X201500D02*
X200867Y173696D01*
X200305Y173133D01*
X200042Y172500D01*
X201500D01*
Y173958D01*
D02*
G37*
G36*
X197500D02*
Y172500D01*
X198958D01*
X198696Y173133D01*
X198133Y173696D01*
X197500Y173958D01*
D02*
G37*
G36*
X196500D02*
X195867Y173696D01*
X195305Y173133D01*
X195042Y172500D01*
X196500D01*
Y173958D01*
D02*
G37*
G36*
X187500D02*
Y172500D01*
X188958D01*
X188696Y173133D01*
X188133Y173696D01*
X187500Y173958D01*
D02*
G37*
G36*
X186500D02*
X185867Y173696D01*
X185304Y173133D01*
X185042Y172500D01*
X186500D01*
Y173958D01*
D02*
G37*
G36*
X182500D02*
Y172500D01*
X183958D01*
X183695Y173133D01*
X183133Y173696D01*
X182500Y173958D01*
D02*
G37*
G36*
X181500D02*
X180867Y173696D01*
X180305Y173133D01*
X180042Y172500D01*
X181500D01*
Y173958D01*
D02*
G37*
G36*
X144500Y172958D02*
Y171500D01*
X145958D01*
X145695Y172133D01*
X145133Y172696D01*
X144500Y172958D01*
D02*
G37*
G36*
X143500D02*
X142867Y172696D01*
X142305Y172133D01*
X142042Y171500D01*
X143500D01*
Y172958D01*
D02*
G37*
G36*
X203958Y171500D02*
X202500D01*
Y170042D01*
X203133Y170305D01*
X203696Y170867D01*
X203958Y171500D01*
D02*
G37*
G36*
X201500D02*
X200042D01*
X200305Y170867D01*
X200867Y170305D01*
X201500Y170042D01*
Y171500D01*
D02*
G37*
G36*
X198958D02*
X197500D01*
Y170042D01*
X198133Y170305D01*
X198696Y170867D01*
X198958Y171500D01*
D02*
G37*
G36*
X196500D02*
X195042D01*
X195305Y170867D01*
X195867Y170305D01*
X196500Y170042D01*
Y171500D01*
D02*
G37*
G36*
X188958D02*
X187500D01*
Y170042D01*
X188133Y170305D01*
X188696Y170867D01*
X188958Y171500D01*
D02*
G37*
G36*
X186500D02*
X185042D01*
X185304Y170867D01*
X185867Y170305D01*
X186500Y170042D01*
Y171500D01*
D02*
G37*
G36*
X183958D02*
X182500D01*
Y170042D01*
X183133Y170305D01*
X183695Y170867D01*
X183958Y171500D01*
D02*
G37*
G36*
X181500D02*
X180042D01*
X180305Y170867D01*
X180867Y170305D01*
X181500Y170042D01*
Y171500D01*
D02*
G37*
G36*
X145958Y170500D02*
X144500D01*
Y169042D01*
X145133Y169305D01*
X145695Y169867D01*
X145958Y170500D01*
D02*
G37*
G36*
X143500D02*
X142042D01*
X142305Y169867D01*
X142867Y169305D01*
X143500Y169042D01*
Y170500D01*
D02*
G37*
G36*
X96500Y177958D02*
Y176500D01*
X97958D01*
X97695Y177133D01*
X97133Y177696D01*
X96500Y177958D01*
D02*
G37*
G36*
X95500D02*
X94867Y177696D01*
X94305Y177133D01*
X94042Y176500D01*
X95500D01*
Y177958D01*
D02*
G37*
G36*
X87500D02*
Y176500D01*
X88958D01*
X88696Y177133D01*
X88133Y177696D01*
X87500Y177958D01*
D02*
G37*
G36*
X86500D02*
X85867Y177696D01*
X85304Y177133D01*
X85042Y176500D01*
X86500D01*
Y177958D01*
D02*
G37*
G36*
X78500D02*
Y176500D01*
X79958D01*
X79695Y177133D01*
X79133Y177696D01*
X78500Y177958D01*
D02*
G37*
G36*
X77500D02*
X76867Y177696D01*
X76305Y177133D01*
X76042Y176500D01*
X77500D01*
Y177958D01*
D02*
G37*
G36*
X97958Y175500D02*
X96500D01*
Y174042D01*
X97133Y174304D01*
X97695Y174867D01*
X97958Y175500D01*
D02*
G37*
G36*
X95500D02*
X94042D01*
X94305Y174867D01*
X94867Y174304D01*
X95500Y174042D01*
Y175500D01*
D02*
G37*
G36*
X88958D02*
X87500D01*
Y174042D01*
X88133Y174304D01*
X88696Y174867D01*
X88958Y175500D01*
D02*
G37*
G36*
X86500D02*
X85042D01*
X85304Y174867D01*
X85867Y174304D01*
X86500Y174042D01*
Y175500D01*
D02*
G37*
G36*
X79958D02*
X78500D01*
Y174042D01*
X79133Y174304D01*
X79695Y174867D01*
X79958Y175500D01*
D02*
G37*
G36*
X77500D02*
X76042D01*
X76305Y174867D01*
X76867Y174304D01*
X77500Y174042D01*
Y175500D01*
D02*
G37*
G36*
X108500Y175118D02*
X106425D01*
Y173468D01*
X104200D01*
X104195Y173479D01*
X103633Y174042D01*
X103000Y174304D01*
Y172346D01*
Y170389D01*
X103633Y170651D01*
X104195Y171214D01*
X104200Y171225D01*
X106425D01*
Y169575D01*
X108500D01*
Y172346D01*
Y175118D01*
D02*
G37*
G36*
X111575D02*
X109500D01*
Y172846D01*
X111575D01*
Y175118D01*
D02*
G37*
G36*
X102000Y174304D02*
X101367Y174042D01*
X100804Y173479D01*
X100542Y172846D01*
X102000D01*
Y174304D01*
D02*
G37*
G36*
Y171846D02*
X100542D01*
X100804Y171214D01*
X101367Y170651D01*
X102000Y170389D01*
Y171846D01*
D02*
G37*
G36*
X92000Y171458D02*
Y170000D01*
X93458D01*
X93195Y170633D01*
X92633Y171195D01*
X92000Y171458D01*
D02*
G37*
G36*
X91000D02*
X90367Y171195D01*
X89805Y170633D01*
X89542Y170000D01*
X91000D01*
Y171458D01*
D02*
G37*
G36*
X111575Y171846D02*
X109500D01*
Y169575D01*
X111575D01*
Y171846D01*
D02*
G37*
G36*
X93458Y169000D02*
X92000D01*
Y167542D01*
X92633Y167805D01*
X93195Y168367D01*
X93458Y169000D01*
D02*
G37*
G36*
X91000D02*
X89542D01*
X89805Y168367D01*
X90367Y167805D01*
X91000Y167542D01*
Y169000D01*
D02*
G37*
G36*
X73318Y175600D02*
X72682D01*
X72094Y175356D01*
X71644Y174906D01*
X71400Y174318D01*
Y173682D01*
X71644Y173094D01*
X71878Y172859D01*
Y171086D01*
X71489D01*
Y168696D01*
X71089D01*
Y167105D01*
X73000D01*
X74911D01*
Y168696D01*
X74511D01*
Y171086D01*
X74122D01*
Y172859D01*
X74356Y173094D01*
X74600Y173682D01*
Y174318D01*
X74356Y174906D01*
X73906Y175356D01*
X73318Y175600D01*
D02*
G37*
G36*
X72500Y161500D02*
X71042D01*
X71305Y160867D01*
X71867Y160304D01*
X72500Y160042D01*
Y161500D01*
D02*
G37*
G36*
X88500Y150500D02*
X87042D01*
X87305Y149867D01*
X87867Y149304D01*
X88500Y149042D01*
Y150500D01*
D02*
G37*
G36*
X74958Y148500D02*
X73500D01*
Y147042D01*
X74133Y147304D01*
X74695Y147867D01*
X74958Y148500D01*
D02*
G37*
G36*
X72500D02*
X71042D01*
X71305Y147867D01*
X71867Y147304D01*
X72500Y147042D01*
Y148500D01*
D02*
G37*
G36*
X174000Y166458D02*
X173367Y166195D01*
X172804Y165633D01*
X172542Y165000D01*
X174000D01*
Y166458D01*
D02*
G37*
G36*
Y164000D02*
X172542D01*
X172804Y163367D01*
X173367Y162804D01*
X174000Y162542D01*
Y164000D01*
D02*
G37*
G36*
X180500Y156000D02*
X177510D01*
X177738Y155149D01*
X178199Y154351D01*
X178851Y153699D01*
X179649Y153238D01*
X180500Y153010D01*
Y156000D01*
D02*
G37*
G36*
X184490D02*
X181500D01*
Y153010D01*
X182351Y153238D01*
X183149Y153699D01*
X183801Y154351D01*
X184262Y155149D01*
X184490Y156000D01*
D02*
G37*
G36*
X111575Y152425D02*
X109500D01*
Y150154D01*
X111575D01*
Y152425D01*
D02*
G37*
G36*
X102000Y151611D02*
X101367Y151349D01*
X100804Y150786D01*
X100542Y150154D01*
X102000D01*
Y151611D01*
D02*
G37*
G36*
Y149153D02*
X100542D01*
X100804Y148521D01*
X101367Y147958D01*
X102000Y147696D01*
Y149153D01*
D02*
G37*
G36*
X66905Y66500D02*
X63937D01*
X60969D01*
Y63539D01*
X62815D01*
Y59527D01*
X62500Y59212D01*
Y57626D01*
X64086D01*
X64730Y58270D01*
X64730Y58270D01*
X64973Y58634D01*
X65059Y59063D01*
X65059Y59063D01*
Y63539D01*
X66905D01*
Y66500D01*
D02*
G37*
G36*
X61500Y59084D02*
X60867Y58821D01*
X60304Y58259D01*
X60042Y57626D01*
X61500D01*
Y59084D01*
D02*
G37*
G36*
X63958Y56626D02*
X62500D01*
Y55168D01*
X63133Y55431D01*
X63696Y55993D01*
X63958Y56626D01*
D02*
G37*
G36*
X61500D02*
X60042D01*
X60304Y55993D01*
X60867Y55431D01*
X61500Y55168D01*
Y56626D01*
D02*
G37*
G36*
X50500Y53958D02*
Y52500D01*
X51958D01*
X51696Y53133D01*
X51133Y53695D01*
X50500Y53958D01*
D02*
G37*
G36*
X49500D02*
X48867Y53695D01*
X48305Y53133D01*
X48042Y52500D01*
X49500D01*
Y53958D01*
D02*
G37*
G36*
X51958Y51500D02*
X50500D01*
Y50042D01*
X51133Y50305D01*
X51696Y50867D01*
X51958Y51500D01*
D02*
G37*
G36*
X49500D02*
X48042D01*
X48305Y50867D01*
X48867Y50305D01*
X49500Y50042D01*
Y51500D01*
D02*
G37*
G36*
X54154Y43575D02*
X51882D01*
Y42654D01*
X51382Y42447D01*
X51133Y42696D01*
X50500Y42958D01*
Y41000D01*
Y39042D01*
X51133Y39305D01*
X51382Y39553D01*
X51882Y39346D01*
Y38425D01*
X54154D01*
Y41000D01*
Y43575D01*
D02*
G37*
G36*
X57425D02*
X55154D01*
Y41500D01*
X57425D01*
Y43575D01*
D02*
G37*
G36*
X49500Y42958D02*
X48867Y42696D01*
X48305Y42133D01*
X48042Y41500D01*
X49500D01*
Y42958D01*
D02*
G37*
G36*
Y40500D02*
X48042D01*
X48305Y39867D01*
X48867Y39305D01*
X49500Y39042D01*
Y40500D01*
D02*
G37*
G36*
X57425D02*
X55154D01*
Y38425D01*
X57425D01*
Y40500D01*
D02*
G37*
G36*
X131437Y65500D02*
X128969D01*
Y62539D01*
X131437D01*
Y65500D01*
D02*
G37*
G36*
X108775Y57222D02*
X104425D01*
Y56185D01*
X101273D01*
Y57042D01*
X96727D01*
X96727Y53156D01*
X96327Y52914D01*
X96327Y52844D01*
X96327Y52844D01*
Y51036D01*
X99000D01*
X101673D01*
Y52844D01*
X101673Y52844D01*
Y52914D01*
X101339Y53116D01*
X101303Y53618D01*
X101627Y53942D01*
X104425D01*
Y52872D01*
X108775D01*
Y57222D01*
D02*
G37*
G36*
X101673Y50036D02*
X99000D01*
X96327D01*
Y48158D01*
X97878D01*
Y47200D01*
X97867Y47196D01*
X97304Y46633D01*
X97042Y46000D01*
X100958D01*
X100696Y46633D01*
X100133Y47196D01*
X100122Y47200D01*
Y48158D01*
X101673D01*
Y50036D01*
D02*
G37*
G36*
X100958Y45000D02*
X99500D01*
Y43542D01*
X100133Y43804D01*
X100696Y44367D01*
X100958Y45000D01*
D02*
G37*
G36*
X98500D02*
X97042D01*
X97304Y44367D01*
X97867Y43804D01*
X98500Y43542D01*
Y45000D01*
D02*
G37*
G36*
X124673Y43917D02*
X122500D01*
Y41941D01*
X124673D01*
Y43917D01*
D02*
G37*
G36*
X121500D02*
X119327D01*
Y41941D01*
X121500D01*
Y43917D01*
D02*
G37*
G36*
X84000Y42958D02*
Y41500D01*
X85458D01*
X85195Y42133D01*
X84633Y42696D01*
X84000Y42958D01*
D02*
G37*
G36*
X77846Y40500D02*
X75575D01*
Y38425D01*
X77846D01*
Y40500D01*
D02*
G37*
G36*
X132765Y42914D02*
X127235D01*
Y36793D01*
X132765D01*
Y38532D01*
X134505D01*
X134594Y38444D01*
X135182Y38200D01*
X135818D01*
X136406Y38444D01*
X136856Y38894D01*
X137100Y39482D01*
Y40118D01*
X136856Y40706D01*
X136406Y41156D01*
X135818Y41400D01*
X135182D01*
X134594Y41156D01*
X134212Y40775D01*
X132765D01*
Y42914D01*
D02*
G37*
G36*
X124673Y40941D02*
X119327D01*
Y38965D01*
X120878D01*
Y38200D01*
X120867Y38195D01*
X120305Y37633D01*
X120042Y37000D01*
X123958D01*
X123696Y37633D01*
X123133Y38195D01*
X123122Y38200D01*
Y38965D01*
X124673D01*
Y40941D01*
D02*
G37*
G36*
X123958Y36000D02*
X122500D01*
Y34542D01*
X123133Y34804D01*
X123696Y35367D01*
X123958Y36000D01*
D02*
G37*
G36*
X121500D02*
X120042D01*
X120305Y35367D01*
X120867Y34804D01*
X121500Y34542D01*
Y36000D01*
D02*
G37*
G36*
X106500Y35958D02*
Y34500D01*
X107958D01*
X107695Y35133D01*
X107133Y35695D01*
X106500Y35958D01*
D02*
G37*
G36*
X105500D02*
X104867Y35695D01*
X104305Y35133D01*
X104042Y34500D01*
X105500D01*
Y35958D01*
D02*
G37*
G36*
X107958Y33500D02*
X106500D01*
Y32042D01*
X107133Y32304D01*
X107695Y32867D01*
X107958Y33500D01*
D02*
G37*
G36*
X105500D02*
X104042D01*
X104305Y32867D01*
X104867Y32304D01*
X105500Y32042D01*
Y33500D01*
D02*
G37*
G36*
X116569Y42722D02*
X111432D01*
Y37979D01*
X112878D01*
Y28112D01*
X111164D01*
Y24353D01*
X116498D01*
Y25111D01*
X127502D01*
Y24353D01*
X132836D01*
Y28112D01*
X127502D01*
Y27354D01*
X116498D01*
Y28112D01*
X115122D01*
Y37979D01*
X116569D01*
Y42722D01*
D02*
G37*
G36*
X81118Y43575D02*
X78847D01*
Y41000D01*
Y38425D01*
X81118D01*
Y39878D01*
X81800D01*
X81805Y39867D01*
X82367Y39305D01*
X82378Y39300D01*
Y27758D01*
X82098Y27543D01*
X82000D01*
Y23500D01*
X86043D01*
Y23598D01*
X85734Y24754D01*
X85136Y25790D01*
X84568Y26358D01*
X84622Y26629D01*
X84622Y26629D01*
Y39300D01*
X84633Y39305D01*
X85195Y39867D01*
X85458Y40500D01*
X83500D01*
Y41000D01*
X83000D01*
Y42958D01*
X82367Y42696D01*
X81805Y42133D01*
X81800Y42122D01*
X81118D01*
Y43575D01*
D02*
G37*
G36*
X81000Y27543D02*
X80902D01*
X79746Y27234D01*
X78710Y26636D01*
X77864Y25790D01*
X77266Y24754D01*
X76957Y23598D01*
Y23500D01*
X81000D01*
Y27543D01*
D02*
G37*
G36*
X86043Y22500D02*
X82000D01*
Y18457D01*
X82098D01*
X83254Y18766D01*
X84290Y19365D01*
X85136Y20210D01*
X85734Y21246D01*
X86043Y22402D01*
Y22500D01*
D02*
G37*
G36*
X81000D02*
X76957D01*
Y22402D01*
X77266Y21246D01*
X77864Y20210D01*
X78710Y19365D01*
X79746Y18766D01*
X80902Y18457D01*
X81000D01*
Y22500D01*
D02*
G37*
G36*
X92045Y27143D02*
X90955D01*
X89901Y26861D01*
X88956Y26316D01*
X88184Y25544D01*
X87639Y24599D01*
X87357Y23546D01*
Y22455D01*
X87639Y21401D01*
X88184Y20456D01*
X88956Y19684D01*
X89901Y19139D01*
X90955Y18857D01*
X92045D01*
X93099Y19139D01*
X94044Y19684D01*
X94815Y20456D01*
X95361Y21401D01*
X95489Y21879D01*
X98859D01*
X99094Y21644D01*
X99682Y21400D01*
X100014D01*
X104439Y16975D01*
X104439Y16975D01*
X104803Y16732D01*
X105232Y16646D01*
X105232Y16646D01*
X111164D01*
Y15888D01*
X116498D01*
Y16646D01*
X127502D01*
Y15888D01*
X132836D01*
Y19647D01*
X127502D01*
Y18889D01*
X116498D01*
Y19647D01*
X111164D01*
Y18889D01*
X105697D01*
X101600Y22986D01*
Y23318D01*
X101356Y23906D01*
X100906Y24356D01*
X100318Y24600D01*
X99682D01*
X99094Y24356D01*
X98859Y24122D01*
X95489D01*
X95361Y24599D01*
X94815Y25544D01*
X94044Y26316D01*
X93099Y26861D01*
X92045Y27143D01*
D02*
G37*
%LPD*%
D13*
X121853Y216147D02*
Y217047D01*
X19000Y187815D02*
X19315Y187500D01*
X19000Y192000D02*
X28736D01*
X19000Y187815D02*
Y192000D01*
X19315Y187500D02*
X34044D01*
X35781Y72818D02*
Y76122D01*
X100077Y94290D02*
Y105802D01*
X111317D01*
Y94290D02*
Y105802D01*
Y94290D02*
X119090D01*
X119100Y94300D01*
X118998Y105802D02*
X119000Y105800D01*
X111317Y105802D02*
X118998D01*
X92510Y94290D02*
X100077D01*
X92500Y94300D02*
X92510Y94290D01*
X92502Y105802D02*
X100077D01*
X92500Y105800D02*
X92502Y105802D01*
X44000Y98000D02*
X51803D01*
X51825Y98022D01*
X60557D02*
Y106613D01*
X67987D01*
X43913D02*
X51825D01*
X60557Y98022D02*
X68000D01*
X51825D02*
Y106613D01*
X60557D01*
X225000Y73000D02*
Y184850D01*
X250803Y210850D02*
X251000D01*
X249532Y209579D02*
X250803Y210850D01*
X249532Y209382D02*
Y209579D01*
X225000Y184850D02*
X249532Y209382D01*
X220000Y75500D02*
Y197850D01*
X232803Y210850D02*
X233000D01*
X231532Y209579D02*
X232803Y210850D01*
X231532Y209382D02*
Y209579D01*
X220000Y197850D02*
X231532Y209382D01*
X215000Y77500D02*
Y199850D01*
X225803Y210850D02*
X226000D01*
X224532Y209579D02*
X225803Y210850D01*
X224532Y209382D02*
Y209579D01*
X215000Y199850D02*
X224532Y209382D01*
X204000Y52000D02*
X225000Y73000D01*
X200500Y56000D02*
X220000Y75500D01*
X197500Y60000D02*
X215000Y77500D01*
X251526Y262474D02*
Y266033D01*
X250628Y266931D02*
X251526Y266033D01*
Y262474D02*
X256000Y258000D01*
X35013Y231356D02*
X36531Y232874D01*
Y233071D02*
X37803Y234343D01*
X38000D01*
X27000Y231356D02*
X35013D01*
X36531Y232874D02*
Y233071D01*
X89000Y208134D02*
X90734Y206400D01*
X98572D01*
X119954Y156346D02*
X120000Y156300D01*
Y150300D02*
Y156300D01*
X109000Y156346D02*
X119954D01*
X102407D02*
X109000D01*
Y165654D02*
X119947D01*
X120000Y165600D01*
Y172000D01*
X97000Y165654D02*
X109000D01*
X182000Y90000D02*
X185000D01*
X177000Y95000D02*
X182000Y90000D01*
X133081Y122260D02*
Y122265D01*
X133667Y122850D01*
X131219Y121382D02*
X132203D01*
X133081Y122260D01*
X133667Y122850D02*
X142000D01*
X134400Y97700D02*
X136800Y95300D01*
X131219Y97760D02*
X131278Y97700D01*
X134400D01*
X141795Y95000D02*
X151000D01*
X134300Y102495D02*
X141795Y95000D01*
X131346Y111805D02*
X134495D01*
X131219Y111933D02*
X131346Y111805D01*
X134495D02*
X136800Y109500D01*
X131227Y107200D02*
X134300D01*
X136800Y104700D01*
X131219Y107209D02*
X131227Y107200D01*
X131219Y102484D02*
X131229Y102495D01*
X134300D01*
X104000Y240000D02*
X110000D01*
X156000Y85000D02*
X177000D01*
X162500Y80000D02*
X169000D01*
X140000Y69000D02*
Y87600D01*
X134565Y93035D02*
X140000Y87600D01*
Y69000D02*
X144000Y65000D01*
X185000Y98500D02*
Y106000D01*
X151000Y95000D02*
X156000Y90000D01*
X131219Y66719D02*
X132937Y65000D01*
X139000D01*
X131804Y67961D02*
X131968D01*
Y67437D02*
Y67961D01*
X125531Y67469D02*
Y68533D01*
X124063Y66000D02*
X125531Y67469D01*
Y68533D02*
X125545Y68546D01*
Y76122D01*
X115900Y66000D02*
X124063D01*
X155491Y91310D02*
X155690D01*
X144000Y60546D02*
Y65000D01*
X131961Y48507D02*
X144000Y60546D01*
X91500Y23000D02*
X100000D01*
X105232Y17768D01*
X130169D01*
X39000Y14000D02*
X52500D01*
X61500Y23000D01*
Y24000D02*
Y40846D01*
X61347Y41000D02*
X61500Y40846D01*
X71500Y24000D02*
X71653Y24153D01*
Y41000D01*
X83500Y26629D02*
Y41000D01*
X81500Y23000D02*
Y24629D01*
X83500Y26629D01*
X195000Y135000D02*
X205000D01*
X185000D02*
X195000D01*
X235000Y165000D02*
X255000Y185000D01*
X195000Y125000D02*
X205000D01*
X177000D02*
X195000D01*
X109631Y140000D02*
X110000D01*
X28736Y204295D02*
X29614Y205173D01*
X29673D02*
X32500Y208000D01*
X28736Y204000D02*
Y204295D01*
X29614Y205173D02*
X29673D01*
X32500Y208000D02*
Y209138D01*
X33362Y210000D01*
X99000Y45500D02*
Y50536D01*
X106583Y55064D02*
X106600Y55047D01*
X99000Y55064D02*
X106583D01*
X106600Y60953D02*
X106648Y61000D01*
Y76122D01*
X174500Y164500D02*
X180957D01*
X188043D02*
X194000D01*
X179700Y156500D02*
Y158000D01*
X180957Y157543D02*
Y164500D01*
X62000Y57126D02*
X63937Y59063D01*
X64000Y66937D02*
X64128Y67065D01*
X63937Y59063D02*
Y67000D01*
X101923Y137323D02*
X110600Y146000D01*
X101923Y128878D02*
Y137323D01*
X110600Y146000D02*
X125000D01*
X135000Y195000D02*
X145000Y205000D01*
X135000Y156000D02*
Y195000D01*
X125000Y146000D02*
X135000Y156000D01*
X142000Y122850D02*
X151354D01*
X153425Y124921D01*
X155000D01*
X153429Y116650D02*
X155000Y115079D01*
X142100Y116650D02*
X153429D01*
X142100Y110350D02*
X147650D01*
X141803Y109850D02*
X142000D01*
X146850Y129150D02*
X147000Y129000D01*
X142000Y129150D02*
X146850D01*
X125817D02*
X142000D01*
X125545Y128878D02*
X125817Y129150D01*
X156000Y90000D02*
X169000D01*
X156000Y70000D02*
X172000D01*
X177000Y75000D01*
X113831Y26232D02*
X130169D01*
X113831D02*
X114000Y26402D01*
Y40350D01*
X130000Y46842D02*
X131665Y48507D01*
X131961D01*
X130000Y46546D02*
Y46842D01*
X122000Y46559D02*
X129987D01*
X130000Y46546D01*
X120909Y46650D02*
X121000Y46559D01*
X114000Y46650D02*
X120909D01*
X162500Y157500D02*
Y164516D01*
X167984Y170000D01*
X145000Y205000D02*
Y220000D01*
X161000Y236000D01*
X181000D01*
X143000Y164000D02*
X148736D01*
X19000Y261000D02*
X19234Y260766D01*
X19000Y261000D02*
X19000Y261000D01*
Y254543D02*
Y261000D01*
X19234Y260766D02*
X30858D01*
X19000Y247457D02*
X19000Y247457D01*
X15458Y232030D02*
Y232042D01*
X14300Y233200D02*
X15458Y232042D01*
X13062Y233200D02*
X14300D01*
X13000Y233138D02*
X13062Y233200D01*
X15458Y232030D02*
X28638Y218850D01*
X13000Y237862D02*
X13138Y238000D01*
X26356D02*
X27000Y238644D01*
X23000Y198000D02*
X28638D01*
X19000Y182736D02*
X25664D01*
X62300Y165300D02*
X67400Y170400D01*
Y201224D01*
X62300Y152700D02*
Y165300D01*
X68852Y128878D02*
Y139148D01*
X56000Y152000D02*
Y160805D01*
Y152000D02*
X68852Y139148D01*
X73577Y128878D02*
Y141423D01*
X62300Y152700D02*
X73577Y141423D01*
X56000Y160805D02*
Y164800D01*
X89000Y151000D02*
Y157000D01*
X82416Y164577D02*
Y168216D01*
X82000Y168631D02*
Y169000D01*
Y168631D02*
X82416Y168216D01*
X73000Y169395D02*
Y174000D01*
X39000Y32000D02*
X50000D01*
X53437Y234047D02*
X77606D01*
X79000Y232653D01*
Y227000D02*
Y232653D01*
X113100Y227010D02*
Y230500D01*
X113047Y225807D02*
Y226957D01*
X113100Y227010D01*
X113000Y230000D02*
X113047Y229953D01*
X131964Y240264D02*
X132000Y240300D01*
X127000Y240264D02*
X131964D01*
X111372Y70628D02*
Y76122D01*
X111400Y70500D02*
X115900Y66000D01*
X35781Y72818D02*
X38100Y70500D01*
X78299Y65001D02*
Y70499D01*
X78300Y70500D02*
Y76121D01*
X83000Y143000D02*
X83026Y142974D01*
Y128878D02*
Y142974D01*
X106648Y137148D02*
X110000Y140500D01*
X106648Y128878D02*
Y137148D01*
X35700Y134600D02*
X35781Y134519D01*
Y128878D02*
Y134519D01*
X117968Y221862D02*
X118846Y220984D01*
X121807D01*
X117968Y221862D02*
Y221969D01*
X116000Y220000D02*
Y220000D01*
X114032Y218032D02*
X116000Y220000D01*
Y220000D02*
X117968Y218032D01*
X116000Y220000D02*
X117968Y221969D01*
X114032Y221969D02*
X116000Y220000D01*
X114032Y221969D02*
X114032D01*
X120800Y128899D02*
Y134500D01*
Y128899D02*
X120821Y128878D01*
X78300Y134500D02*
X78301Y134499D01*
Y128878D02*
Y134499D01*
X113000Y187000D02*
Y192260D01*
X113000Y187000D02*
X113000Y187000D01*
X128150Y204000D02*
X133000D01*
X153264Y164000D02*
X158000D01*
X164000Y170000D01*
Y175075D01*
X72925Y42272D02*
X101923Y71270D01*
Y76122D01*
X135354Y39654D02*
X135500Y39800D01*
X130000Y39654D02*
X135354D01*
X122000Y36500D02*
Y41441D01*
X164000Y175075D02*
X164047Y175122D01*
X50000Y41000D02*
X54654D01*
X102500Y172346D02*
X109000D01*
X102500Y149653D02*
X109000D01*
X86994Y158031D02*
X87968D01*
X89000Y157000D01*
X73000Y161969D02*
X79808D01*
X73000Y162000D02*
Y166605D01*
X68105Y156395D02*
X73000D01*
X68000Y156500D02*
X68105Y156395D01*
X73000Y149000D02*
Y153605D01*
X79000Y245000D02*
Y256000D01*
Y240347D02*
Y245000D01*
X28638Y218850D02*
X38000D01*
X28638Y210000D02*
Y218850D01*
X44000Y198480D02*
X46763Y201242D01*
X44000Y191372D02*
Y198480D01*
X52631Y200357D02*
Y200561D01*
X49285Y201242D02*
X51950D01*
X52631Y200561D01*
X39000Y192456D02*
Y196600D01*
X34044Y187500D02*
X39000Y192456D01*
Y196600D02*
X45414Y203014D01*
X38000Y234343D02*
X38197D01*
X39469Y235614D01*
Y235811D01*
X41882Y238224D01*
Y250234D01*
X39083Y233260D02*
X45563D01*
X38000Y234343D02*
X39083Y233260D01*
X31161Y254951D02*
X34598Y251514D01*
X31161Y254951D02*
Y255148D01*
X34598Y251514D02*
X34795D01*
X30858Y255451D02*
X31161Y255148D01*
X30858Y255451D02*
Y260766D01*
X50254D02*
X50300Y260719D01*
X43654Y260766D02*
X50254D01*
X139936Y235736D02*
X140000Y235800D01*
X127000Y235736D02*
X139936D01*
X123000Y215000D02*
X131914D01*
X121853Y216147D02*
X123000Y215000D01*
X121807Y217047D02*
X121853D01*
X126300Y218000D02*
X129000D01*
X125284Y219016D02*
X126300Y218000D01*
X95000Y192500D02*
X95043Y192457D01*
X101000D01*
X135150Y223000D02*
X140000D01*
X205835Y267600D02*
X205840Y267596D01*
X196362Y260000D02*
Y267562D01*
X196400Y267600D02*
X205835D01*
X196362Y267562D02*
X196400Y267600D01*
X237400Y258000D02*
Y268309D01*
X228738Y258000D02*
Y268309D01*
X196500Y229500D02*
X196529Y229530D01*
X205372D01*
X181000Y236000D02*
Y241500D01*
X187500Y248000D01*
X192559D01*
X190465Y242827D02*
X191441Y243803D01*
X188500Y241059D02*
X190268Y242827D01*
X191441Y243803D02*
Y244000D01*
X190268Y242827D02*
X190465D01*
X188500Y236000D02*
Y241059D01*
X181000Y252000D02*
X191441D01*
X191638Y252197D02*
Y260000D01*
X191441Y252000D02*
X191638Y252197D01*
X167984Y170000D02*
Y175122D01*
X55925Y42075D02*
Y42272D01*
X54850Y41000D02*
X55925Y42075D01*
X54654Y41000D02*
X54850D01*
X78347D02*
X83500D01*
X50000Y67000D02*
X56063D01*
X68800Y59000D02*
X68852Y59052D01*
Y76122D01*
X87800Y128928D02*
Y137500D01*
X87750Y128878D02*
X87800Y128928D01*
X83026Y68000D02*
Y76122D01*
X87750Y65000D02*
Y76122D01*
X72925Y42075D02*
Y42272D01*
X71850Y41000D02*
X72925Y42075D01*
X71653Y41000D02*
X71850D01*
X131219Y93035D02*
X134565D01*
X141492Y116657D02*
X142000Y116150D01*
X195583Y250827D02*
X196559Y251803D01*
X195386Y250827D02*
X195583D01*
X196559Y251803D02*
Y252000D01*
X192559Y248000D02*
X195386Y250827D01*
X131219Y66719D02*
Y78862D01*
X191638Y260000D02*
Y267662D01*
X191600Y267700D02*
X191638Y267662D01*
X251000Y217150D02*
Y233000D01*
X241730Y242270D02*
Y268309D01*
Y242270D02*
X251000Y233000D01*
X226000Y217150D02*
Y241000D01*
X224408Y242593D02*
X226000Y241000D01*
X224408Y242593D02*
Y268309D01*
X93315Y161969D02*
X97000Y165654D01*
X86993Y161969D02*
X93315D01*
X86993Y160000D02*
X88900D01*
X92500Y156400D01*
X92474Y128878D02*
X92500Y128903D01*
Y156400D01*
X73000Y153605D02*
X78629D01*
X73000Y156395D02*
X78171D01*
X84384Y164577D02*
X86353D01*
X82416D02*
X84384D01*
X79808Y158031D02*
Y160000D01*
X78629Y153605D02*
X80012Y154988D01*
X80439D01*
X80447Y154996D01*
Y155423D01*
X78171Y156395D02*
X79808Y158031D01*
X93315Y161969D02*
X97199Y158085D01*
Y128878D02*
Y158085D01*
X154929Y124850D02*
X155000Y124921D01*
X131219Y116657D02*
X141492D01*
X251000Y217150D02*
X258850D01*
X259000Y217000D01*
X233000Y217150D02*
X242350D01*
X242500Y217000D01*
X218850Y217150D02*
X226000D01*
X218500Y217500D02*
X218850Y217150D01*
X196500Y236000D02*
X196559Y236059D01*
Y244000D01*
X205276D02*
X205372Y244096D01*
X196559Y244000D02*
X205276D01*
X233000Y218150D02*
X233069Y218218D01*
Y268309D01*
X196559Y252000D02*
X209000D01*
X220077Y263077D02*
Y268309D01*
X209000Y252000D02*
X220077Y263077D01*
X205840Y267596D02*
X206061Y267817D01*
X33362Y210000D02*
X38500D01*
X61543Y41000D02*
X62618Y42075D01*
X61347Y41000D02*
X61543D01*
X73577Y53230D02*
Y76122D01*
X62618Y42272D02*
X73577Y53230D01*
X62618Y42075D02*
Y42272D01*
X64128Y67065D02*
Y76122D01*
X45000Y215300D02*
X49285Y211015D01*
Y208329D02*
Y211015D01*
X45000Y215300D02*
Y218850D01*
X59800Y208329D02*
Y218901D01*
X103100Y206400D02*
X106376D01*
X113047Y213071D01*
X166016Y175122D02*
X167984D01*
X121807Y219016D02*
X125284D01*
X116984Y225807D02*
Y226957D01*
X117087Y227059D02*
Y240000D01*
X116984Y226957D02*
X117087Y227059D01*
X115016Y225807D02*
X116984D01*
X82900Y224000D02*
X86034Y227134D01*
X89000D01*
X82900Y205966D02*
Y224000D01*
Y205966D02*
X89000Y199866D01*
X89323Y199543D01*
X101000D01*
X101197Y199740D01*
X113000D01*
Y207100D01*
X115016Y209116D01*
Y214193D01*
X113047Y213071D02*
Y214193D01*
X118953Y207095D02*
X121850Y204197D01*
X118953Y207095D02*
Y214193D01*
X121850Y204000D02*
Y204197D01*
X105800Y212800D02*
Y215200D01*
X107647Y217047D01*
X105700Y212700D02*
X105800Y212800D01*
X107647Y217047D02*
X110193D01*
X115016Y214193D02*
X116984D01*
X121807Y219016D02*
Y220984D01*
Y222953D02*
X128803D01*
X128850Y223000D01*
X118953Y225807D02*
Y233953D01*
X120736Y235736D01*
X127000D01*
X103264Y219000D02*
X103279Y219016D01*
X110193D01*
X89000Y218866D02*
X98602D01*
X98736Y219000D01*
X110173Y221004D02*
X110193Y220984D01*
X107696Y221004D02*
X110173D01*
X101566Y227134D02*
X107696Y221004D01*
X89000Y227134D02*
X101566D01*
X111315Y222953D02*
X113047Y224685D01*
X110193Y222953D02*
X111315D01*
X113047Y224685D02*
Y225807D01*
X117087Y240000D02*
Y240591D01*
X66800Y218901D02*
X66901Y218800D01*
X42386Y204786D02*
X49285D01*
X38600Y201000D02*
X42386Y204786D01*
X38600Y200800D02*
Y201000D01*
X45414Y203014D02*
X49285D01*
X46763Y201242D02*
X49285D01*
X38157Y206557D02*
X49285D01*
X35600Y204000D02*
X38157Y206557D01*
X43843Y179642D02*
X44185Y179985D01*
X43500Y179300D02*
X43843Y179642D01*
X43500Y179300D02*
Y183300D01*
X49285Y189085D01*
Y199471D01*
X63065Y171865D02*
Y196600D01*
X56000Y164800D02*
X63065Y171865D01*
X60194Y199471D02*
X63065Y196600D01*
X59915Y199471D02*
X60194D01*
X59923Y203006D02*
X61294D01*
X63900Y200400D01*
X59915Y204786D02*
X64214D01*
X59915Y203014D02*
X59923Y203006D01*
X64214Y204786D02*
X67400Y201600D01*
X25664Y182736D02*
X29100Y179300D01*
X35232D01*
X33264Y204000D02*
X35600D01*
X57925Y250234D02*
X59205Y251514D01*
X52118Y250234D02*
X57925D01*
X52118D02*
Y254782D01*
X50300Y256600D02*
X52118Y254782D01*
X50300Y256600D02*
Y260719D01*
X50346Y260766D01*
X63142D01*
X30858D02*
X43654D01*
X33264Y192000D02*
Y197902D01*
X33362Y198000D01*
X33264Y198098D02*
Y204000D01*
Y198098D02*
X33362Y198000D01*
X34795Y242665D02*
X37803Y239657D01*
X38000D01*
X34795Y242665D02*
Y251514D01*
X160600Y204639D02*
X160961Y205000D01*
X163996Y183000D02*
X164047Y182949D01*
Y182878D02*
Y182949D01*
X169953Y182888D02*
Y183783D01*
X176787Y183000D02*
X177567Y183780D01*
X176000Y183000D02*
X176787D01*
X169953Y182878D02*
Y182888D01*
X170004Y182939D01*
D20*
X120000Y172500D02*
D03*
X177000Y95000D02*
D03*
X168000Y80000D02*
D03*
Y90000D02*
D03*
X259000Y217000D02*
D03*
X79000Y256000D02*
D03*
X218500Y217500D02*
D03*
X177000Y85000D02*
D03*
Y75000D02*
D03*
X120000Y150300D02*
D03*
X78300Y65000D02*
D03*
X140000Y235800D02*
D03*
X39000Y32000D02*
D03*
Y14000D02*
D03*
X162500Y157500D02*
D03*
X181000Y156500D02*
D03*
X195000Y125000D02*
D03*
Y135000D02*
D03*
X62300Y160900D02*
D03*
X56000Y160805D02*
D03*
X181000Y236000D02*
D03*
Y252000D02*
D03*
X242500Y217000D02*
D03*
X196500Y236000D02*
D03*
D21*
X167000Y179000D02*
D03*
D22*
X160961Y205000D02*
D03*
X181039D02*
D03*
D23*
X106600Y60953D02*
D03*
Y55047D02*
D03*
D24*
X188043Y164500D02*
D03*
X180957D02*
D03*
X251000Y210850D02*
D03*
Y217150D02*
D03*
X233000Y210850D02*
D03*
Y217150D02*
D03*
X226000Y210850D02*
D03*
Y217150D02*
D03*
X114000Y40350D02*
D03*
Y46650D02*
D03*
X45000Y225150D02*
D03*
Y218850D02*
D03*
X38000Y225150D02*
D03*
Y218850D02*
D03*
X66800Y225200D02*
D03*
Y218901D02*
D03*
X59800Y225200D02*
D03*
Y218901D02*
D03*
X142000Y122850D02*
D03*
Y129150D02*
D03*
X142100Y116650D02*
D03*
Y110350D02*
D03*
X38000Y239657D02*
D03*
Y234343D02*
D03*
D25*
X155000Y124921D02*
D03*
Y115079D02*
D03*
D26*
X86353Y155423D02*
D03*
X84384D02*
D03*
X82416D02*
D03*
X80447D02*
D03*
Y164577D02*
D03*
X82416D02*
D03*
X84384D02*
D03*
X86353D02*
D03*
D27*
X79808Y160000D02*
D03*
X86993D02*
D03*
X86994Y158031D02*
D03*
X79808D02*
D03*
Y161969D02*
D03*
X86993D02*
D03*
D28*
X99000Y50536D02*
D03*
Y55064D02*
D03*
X127000Y240264D02*
D03*
Y235736D02*
D03*
X19000Y187264D02*
D03*
Y182736D02*
D03*
D29*
X13000Y233138D02*
D03*
Y237862D02*
D03*
D30*
X130169Y26232D02*
D03*
X113831D02*
D03*
Y17768D02*
D03*
X130169D02*
D03*
X176000Y176307D02*
D03*
Y183000D02*
D03*
D31*
X51825Y106613D02*
D03*
X60557D02*
D03*
X51825Y98022D02*
D03*
X60557D02*
D03*
X100077Y105802D02*
D03*
X111317D02*
D03*
X100077Y94290D02*
D03*
X111317D02*
D03*
D32*
X131219Y83587D02*
D03*
Y126106D02*
D03*
Y121382D02*
D03*
Y116657D02*
D03*
Y111933D02*
D03*
Y107209D02*
D03*
Y102484D02*
D03*
Y97760D02*
D03*
Y93035D02*
D03*
Y88311D02*
D03*
Y78862D02*
D03*
D33*
X35781Y128878D02*
D03*
X40506D02*
D03*
X45230D02*
D03*
X49955D02*
D03*
X54679D02*
D03*
X59404D02*
D03*
X64128D02*
D03*
X68852D02*
D03*
X73577D02*
D03*
X78301D02*
D03*
X83026D02*
D03*
X87750D02*
D03*
X92474D02*
D03*
X97199D02*
D03*
X101923D02*
D03*
X106648D02*
D03*
X111372D02*
D03*
X116096D02*
D03*
X120821D02*
D03*
X125545D02*
D03*
Y76122D02*
D03*
X120821D02*
D03*
X116096D02*
D03*
X111372D02*
D03*
X106648D02*
D03*
X101923D02*
D03*
X97199D02*
D03*
X92474D02*
D03*
X87750D02*
D03*
X83026D02*
D03*
X78301D02*
D03*
X73577D02*
D03*
X68852D02*
D03*
X64128D02*
D03*
X59404D02*
D03*
X54679D02*
D03*
X49955D02*
D03*
X45230D02*
D03*
X40506D02*
D03*
X35781D02*
D03*
D34*
X73000Y156395D02*
D03*
Y153605D02*
D03*
Y169395D02*
D03*
Y166605D02*
D03*
D35*
X89000Y199866D02*
D03*
Y208134D02*
D03*
Y218866D02*
D03*
Y227134D02*
D03*
D36*
X135150Y223000D02*
D03*
X128850D02*
D03*
X128150Y204000D02*
D03*
X121850D02*
D03*
D37*
X110000Y240000D02*
D03*
X117087D02*
D03*
D38*
X79000Y232653D02*
D03*
Y239347D02*
D03*
X130000Y39854D02*
D03*
Y46546D02*
D03*
D39*
X148736Y164000D02*
D03*
X153264D02*
D03*
X33264Y204000D02*
D03*
X28736D02*
D03*
X98572Y206400D02*
D03*
X103100D02*
D03*
X98736Y219000D02*
D03*
X103264D02*
D03*
X28736Y192000D02*
D03*
X33264D02*
D03*
D40*
X164047Y182878D02*
D03*
X166016D02*
D03*
X167984D02*
D03*
X169953D02*
D03*
Y175122D02*
D03*
X167984D02*
D03*
X166016D02*
D03*
X164047D02*
D03*
D41*
X54654Y41000D02*
D03*
X61347D02*
D03*
X78347D02*
D03*
X71653D02*
D03*
D42*
X122000Y41441D02*
D03*
Y46559D02*
D03*
D43*
X109000Y172346D02*
D03*
Y165654D02*
D03*
Y149653D02*
D03*
Y156346D02*
D03*
D44*
X158500Y183000D02*
D03*
Y177488D02*
D03*
D45*
X196362Y260000D02*
D03*
X191638D02*
D03*
X28638Y210000D02*
D03*
X33362D02*
D03*
X28638Y198000D02*
D03*
X33362D02*
D03*
D46*
X191441Y252000D02*
D03*
X196559D02*
D03*
X191441Y244000D02*
D03*
X196559D02*
D03*
D47*
X49285Y208329D02*
D03*
Y206557D02*
D03*
Y204786D02*
D03*
Y203014D02*
D03*
Y201242D02*
D03*
Y199471D02*
D03*
X59915D02*
D03*
Y201242D02*
D03*
Y203014D02*
D03*
Y204786D02*
D03*
Y206557D02*
D03*
Y208329D02*
D03*
D48*
X54600Y203900D02*
D03*
D49*
X113000Y199740D02*
D03*
Y192260D02*
D03*
D50*
X101000Y199543D02*
D03*
Y192457D02*
D03*
X19000Y247457D02*
D03*
Y254543D02*
D03*
D53*
X43843Y179642D02*
D03*
X35575D02*
D03*
D54*
X63937Y67000D02*
D03*
X56063D02*
D03*
X131937Y66000D02*
D03*
X124063D02*
D03*
D55*
X27000Y231356D02*
D03*
Y238644D02*
D03*
D56*
X45563Y233260D02*
D03*
Y240740D02*
D03*
X53437D02*
D03*
D57*
Y234047D02*
D03*
D58*
X41882Y250234D02*
D03*
X44441D02*
D03*
X47000D02*
D03*
X49559D02*
D03*
X52118D02*
D03*
D59*
X34795Y251514D02*
D03*
X59205D02*
D03*
D60*
X30858Y260766D02*
D03*
X63142D02*
D03*
D61*
X43654D02*
D03*
X50346D02*
D03*
D62*
X242655Y225691D02*
D03*
X219152D02*
D03*
D63*
X205372Y244096D02*
D03*
Y229530D02*
D03*
D64*
X206061Y267817D02*
D03*
D65*
X215746Y268309D02*
D03*
X220077D02*
D03*
X224408D02*
D03*
X228738D02*
D03*
X233069D02*
D03*
X237400D02*
D03*
X241730D02*
D03*
D66*
X245864D02*
D03*
D67*
X250628Y266931D02*
D03*
D131*
X145000Y10000D02*
D03*
X267000Y249000D02*
D03*
X7500Y153000D02*
D03*
D132*
X118953Y225807D02*
D03*
X116984D02*
D03*
X115016D02*
D03*
X113047D02*
D03*
Y214193D02*
D03*
X115016D02*
D03*
X116984D02*
D03*
X118953D02*
D03*
D133*
X110193Y222953D02*
D03*
Y220984D02*
D03*
Y219016D02*
D03*
Y217047D02*
D03*
X121807D02*
D03*
Y219016D02*
D03*
Y220984D02*
D03*
Y222953D02*
D03*
D134*
X116000Y220000D02*
D03*
D135*
X167984Y182878D02*
Y187984D01*
X171000Y191000D02*
Y195500D01*
X167984Y187984D02*
X171000Y191000D01*
X66901Y218800D02*
X72500D01*
X50554Y230246D02*
X55600Y225200D01*
X66800D01*
X50400Y230400D02*
Y238700D01*
X45943Y229171D02*
X48291Y231520D01*
Y235000D01*
X47400Y235891D02*
X48291Y235000D01*
X66800Y225200D02*
X66800Y225200D01*
X38000Y225150D02*
X45000D01*
X38000Y225150D02*
X38000Y225150D01*
X53297Y240600D02*
X53437Y240740D01*
X53377Y240800D02*
X53437Y240740D01*
X52300Y240600D02*
X53297D01*
X50400Y238700D02*
X52300Y240600D01*
X45563Y237737D02*
Y240740D01*
Y237737D02*
X47400Y235900D01*
Y235891D02*
Y235900D01*
X45000Y225150D02*
X45943Y226092D01*
Y229171D01*
X45563Y240740D02*
Y243937D01*
X53500Y241000D02*
Y242900D01*
X50800Y245600D02*
X53500Y242900D01*
X48839Y245600D02*
X50800D01*
X47037Y247402D02*
Y250197D01*
X47000Y250234D02*
X47037Y250197D01*
Y247402D02*
X48839Y245600D01*
X44441Y245059D02*
X45563Y243937D01*
X44441Y245059D02*
Y250234D01*
D136*
X164835Y179000D02*
D03*
X169165D02*
D03*
D137*
X91500Y23000D02*
D03*
X81500D02*
D03*
X71500D02*
D03*
X255000Y105000D02*
D03*
Y115000D02*
D03*
Y125000D02*
D03*
X114000Y260000D02*
D03*
X124000D02*
D03*
X255000Y75000D02*
D03*
Y65000D02*
D03*
Y55000D02*
D03*
Y175000D02*
D03*
Y165000D02*
D03*
Y155000D02*
D03*
D138*
X61500Y23000D02*
D03*
X104000Y260000D02*
D03*
D139*
X255000Y135000D02*
D03*
Y85000D02*
D03*
Y185000D02*
D03*
D140*
X151000Y90000D02*
D03*
Y85000D02*
D03*
X156000Y90000D02*
D03*
Y85000D02*
D03*
Y75000D02*
D03*
Y80000D02*
D03*
X151000Y75000D02*
D03*
Y80000D02*
D03*
Y70000D02*
D03*
X156000D02*
D03*
D141*
X8500Y8500D02*
D03*
Y267000D02*
D03*
X267000Y8500D02*
D03*
Y267000D02*
D03*
D142*
X50000Y52000D02*
D03*
X19000Y221000D02*
D03*
X181000Y260000D02*
D03*
X106000Y34000D02*
D03*
X91500Y169500D02*
D03*
X96000Y176000D02*
D03*
X87000D02*
D03*
X78000D02*
D03*
X114000Y251000D02*
D03*
X132000D02*
D03*
X141000D02*
D03*
Y260000D02*
D03*
X132000D02*
D03*
X15000Y214000D02*
D03*
X23000D02*
D03*
Y206000D02*
D03*
X15000D02*
D03*
Y198000D02*
D03*
X25000Y247500D02*
D03*
X13000D02*
D03*
X119100Y94300D02*
D03*
X119000Y105800D02*
D03*
X92500Y94300D02*
D03*
Y105800D02*
D03*
X44000Y98000D02*
D03*
X43913Y106613D02*
D03*
X67987D02*
D03*
X68000Y98022D02*
D03*
X200500Y56000D02*
D03*
X204000Y52000D02*
D03*
X197500Y60000D02*
D03*
X120000Y156300D02*
D03*
Y165600D02*
D03*
X185000Y90000D02*
D03*
X104000Y240000D02*
D03*
X162500Y85000D02*
D03*
Y80000D02*
D03*
X185000Y98500D02*
D03*
X139000Y65000D02*
D03*
X144000D02*
D03*
X100000Y23000D02*
D03*
X205000Y135000D02*
D03*
X235000Y165000D02*
D03*
X205000Y125000D02*
D03*
X177000D02*
D03*
X99000Y45500D02*
D03*
X147000Y183000D02*
D03*
X174500Y164500D02*
D03*
X194000D02*
D03*
X182000Y172000D02*
D03*
X187000D02*
D03*
X197000D02*
D03*
X202000D02*
D03*
Y177000D02*
D03*
X197000D02*
D03*
X187000D02*
D03*
X182000D02*
D03*
X151000Y176000D02*
D03*
X144000Y171000D02*
D03*
Y176000D02*
D03*
X62000Y57126D02*
D03*
X147650Y110350D02*
D03*
X147500Y129200D02*
D03*
X136800Y95300D02*
D03*
X144000Y70000D02*
D03*
Y80000D02*
D03*
Y90000D02*
D03*
X135500Y39800D02*
D03*
X143000Y164000D02*
D03*
X19000Y261000D02*
D03*
Y238000D02*
D03*
Y192000D02*
D03*
X23000Y198000D02*
D03*
X89000Y151000D02*
D03*
X82400Y169000D02*
D03*
X73000Y174000D02*
D03*
X50000Y32000D02*
D03*
X79000Y227000D02*
D03*
X132000Y240300D02*
D03*
X247000Y105000D02*
D03*
Y115000D02*
D03*
Y155000D02*
D03*
Y165000D02*
D03*
X185000Y135000D02*
D03*
X38100Y70500D02*
D03*
X185000Y106000D02*
D03*
X120800Y134500D02*
D03*
X35800D02*
D03*
X78300D02*
D03*
X113000Y187000D02*
D03*
X133000Y204000D02*
D03*
X158000Y164000D02*
D03*
X78300Y70500D02*
D03*
X111400D02*
D03*
X122000Y36500D02*
D03*
X50000Y41000D02*
D03*
X102500Y172346D02*
D03*
Y149653D02*
D03*
X73000Y162000D02*
D03*
Y149000D02*
D03*
X68000Y156500D02*
D03*
X113100Y230500D02*
D03*
X44000Y191372D02*
D03*
X28638Y218850D02*
D03*
X132000Y215000D02*
D03*
X129000Y218000D02*
D03*
X104000Y253000D02*
D03*
X95000Y192500D02*
D03*
X140000Y223000D02*
D03*
X171000Y195500D02*
D03*
X196362Y267562D02*
D03*
X256000Y258000D02*
D03*
X237400D02*
D03*
X228738D02*
D03*
X196500Y229500D02*
D03*
X188500Y236000D02*
D03*
X167984Y170000D02*
D03*
X83500Y41000D02*
D03*
X50000Y67000D02*
D03*
X68800Y59000D02*
D03*
X83000Y143500D02*
D03*
X110000Y140500D02*
D03*
X87800Y137500D02*
D03*
X83026Y68000D02*
D03*
X87750Y65000D02*
D03*
X136800Y109500D02*
D03*
Y104700D02*
D03*
X191600Y267700D02*
D03*
X92500Y156400D02*
D03*
X102407Y156346D02*
D03*
X79000Y245000D02*
D03*
X105700Y212700D02*
D03*
X72500Y218800D02*
D03*
X38500Y210000D02*
D03*
X38600Y200800D02*
D03*
X63900Y200400D02*
D03*
X181000Y188000D02*
D03*
D143*
X56568Y203900D02*
D03*
Y200357D02*
D03*
X52631D02*
D03*
Y203900D02*
D03*
X56568Y207443D02*
D03*
X52631D02*
D03*
X117968Y221969D02*
D03*
X114032Y221969D02*
D03*
X114032Y218032D02*
D03*
X117968Y218032D02*
D03*
X116000Y220000D02*
D03*
M02*
