G04*
G04 #@! TF.GenerationSoftware,Altium Limited,Altium Designer,21.6.1 (37)*
G04*
G04 Layer_Physical_Order=3*
G04 Layer_Color=16440176*
%FSLAX25Y25*%
%MOIN*%
G70*
G04*
G04 #@! TF.SameCoordinates,3B14360B-83DB-492C-B473-3A93FED6D837*
G04*
G04*
G04 #@! TF.FilePolarity,Positive*
G04*
G01*
G75*
%ADD138C,0.07087*%
%ADD141C,0.03960*%
%ADD143C,0.02000*%
G36*
X260791Y271543D02*
X260188Y270641D01*
X259609Y269242D01*
X259313Y267757D01*
Y266243D01*
X259609Y264758D01*
X260188Y263359D01*
X261029Y262100D01*
X262100Y261029D01*
X263359Y260188D01*
X264758Y259609D01*
X266243Y259313D01*
X267757D01*
X269242Y259609D01*
X270641Y260188D01*
X271900Y261029D01*
X272971Y262100D01*
X273812Y263359D01*
X274071Y263985D01*
X274571Y263885D01*
Y11615D01*
X274071Y11515D01*
X273812Y12141D01*
X272971Y13400D01*
X271900Y14471D01*
X270641Y15312D01*
X269242Y15891D01*
X267757Y16187D01*
X266243D01*
X264758Y15891D01*
X263359Y15312D01*
X262100Y14471D01*
X261029Y13400D01*
X260188Y12141D01*
X259609Y10742D01*
X259313Y9257D01*
Y7743D01*
X259609Y6258D01*
X260188Y4859D01*
X261029Y3600D01*
X262100Y2529D01*
X263359Y1688D01*
X263766Y1520D01*
X263667Y1020D01*
X27000D01*
Y62139D01*
X27341Y62480D01*
X27584Y63068D01*
Y63704D01*
X27341Y64292D01*
X27000Y64633D01*
Y71981D01*
X27341Y72322D01*
X27584Y72910D01*
Y73547D01*
X27341Y74135D01*
X27000Y74475D01*
Y81824D01*
X27341Y82165D01*
X27584Y82753D01*
Y83389D01*
X27341Y83977D01*
X27000Y84318D01*
Y91666D01*
X27341Y92007D01*
X27584Y92595D01*
Y93232D01*
X27341Y93820D01*
X27000Y94160D01*
Y101509D01*
X27341Y101850D01*
X27584Y102438D01*
Y103074D01*
X27341Y103662D01*
X27000Y104003D01*
Y111351D01*
X27341Y111692D01*
X27584Y112280D01*
Y112917D01*
X27341Y113505D01*
X27000Y113845D01*
Y121194D01*
X27341Y121535D01*
X27584Y122123D01*
Y122759D01*
X27341Y123347D01*
X27000Y123688D01*
Y131036D01*
X27341Y131377D01*
X27584Y131965D01*
Y132602D01*
X27341Y133190D01*
X27000Y133530D01*
Y140879D01*
X27341Y141220D01*
X27584Y141808D01*
Y142444D01*
X27341Y143032D01*
X27000Y143373D01*
Y189000D01*
X112341D01*
X112440Y188500D01*
X112094Y188356D01*
X111644Y187906D01*
X111400Y187318D01*
Y186682D01*
X111644Y186094D01*
X112094Y185644D01*
X112682Y185400D01*
X113318D01*
X113906Y185644D01*
X114356Y186094D01*
X114600Y186682D01*
Y187318D01*
X114356Y187906D01*
X113906Y188356D01*
X113560Y188500D01*
X113659Y189000D01*
X149000D01*
Y272043D01*
X205234D01*
X205486Y271792D01*
X205581Y271728D01*
X205664Y271649D01*
X206411Y271180D01*
X206518Y271139D01*
X206616Y271081D01*
X207449Y270790D01*
X207562Y270774D01*
X207671Y270739D01*
X208547Y270640D01*
X208605Y270645D01*
X208661Y270634D01*
X248031D01*
X248088Y270645D01*
X248146Y270640D01*
X249022Y270739D01*
X249131Y270774D01*
X249244Y270790D01*
X250076Y271081D01*
X250175Y271139D01*
X250282Y271180D01*
X251029Y271649D01*
X251112Y271728D01*
X251207Y271792D01*
X251459Y272043D01*
X260524D01*
X260791Y271543D01*
D02*
G37*
G36*
X85000Y246500D02*
X148000Y246500D01*
Y190000D01*
X45598D01*
X45356Y190465D01*
X45600Y191054D01*
Y191690D01*
X45356Y192278D01*
X44906Y192728D01*
X44318Y192972D01*
X43682D01*
X43094Y192728D01*
X42644Y192278D01*
X42400Y191690D01*
Y191054D01*
X42644Y190465D01*
X42402Y190000D01*
X26000D01*
Y179600D01*
X1020D01*
Y203000D01*
Y263667D01*
X1519Y263766D01*
X1688Y263359D01*
X2529Y262100D01*
X3600Y261029D01*
X4859Y260188D01*
X6258Y259609D01*
X7743Y259313D01*
X9257D01*
X10742Y259609D01*
X12141Y260188D01*
X13400Y261029D01*
X14471Y262100D01*
X15312Y263359D01*
X15891Y264758D01*
X16187Y266243D01*
Y267757D01*
X15891Y269242D01*
X15312Y270641D01*
X14930Y271213D01*
X15166Y271654D01*
X24557D01*
X24562Y271649D01*
X25308Y271180D01*
X25415Y271139D01*
X25514Y271081D01*
X26346Y270790D01*
X26460Y270774D01*
X26569Y270739D01*
X27445Y270640D01*
X27502Y270645D01*
X27559Y270634D01*
X66929D01*
X66986Y270645D01*
X67043Y270640D01*
X67919Y270739D01*
X68028Y270774D01*
X68142Y270790D01*
X68974Y271081D01*
X69073Y271139D01*
X69180Y271180D01*
X69926Y271649D01*
X69931Y271654D01*
X85000D01*
Y246500D01*
D02*
G37*
G36*
X148000Y247500D02*
X86000D01*
Y274571D01*
X148000D01*
Y247500D01*
D02*
G37*
%LPC*%
G36*
X192100Y269658D02*
Y268200D01*
X193558D01*
X193296Y268833D01*
X192733Y269395D01*
X192100Y269658D01*
D02*
G37*
G36*
X191100D02*
X190467Y269395D01*
X189904Y268833D01*
X189642Y268200D01*
X191100D01*
Y269658D01*
D02*
G37*
G36*
X196680Y269162D02*
X196044D01*
X195456Y268919D01*
X195006Y268468D01*
X194762Y267881D01*
Y267244D01*
X195006Y266656D01*
X195456Y266206D01*
X196044Y265962D01*
X196680D01*
X197268Y266206D01*
X197719Y266656D01*
X197962Y267244D01*
Y267881D01*
X197719Y268468D01*
X197268Y268919D01*
X196680Y269162D01*
D02*
G37*
G36*
X193558Y267200D02*
X192100D01*
Y265742D01*
X192733Y266004D01*
X193296Y266567D01*
X193558Y267200D01*
D02*
G37*
G36*
X191100D02*
X189642D01*
X189904Y266567D01*
X190467Y266004D01*
X191100Y265742D01*
Y267200D01*
D02*
G37*
G36*
X181500Y261958D02*
Y260500D01*
X182958D01*
X182695Y261133D01*
X182133Y261696D01*
X181500Y261958D01*
D02*
G37*
G36*
X180500D02*
X179867Y261696D01*
X179305Y261133D01*
X179042Y260500D01*
X180500D01*
Y261958D01*
D02*
G37*
G36*
X229238Y259958D02*
Y258500D01*
X230696D01*
X230434Y259133D01*
X229871Y259696D01*
X229238Y259958D01*
D02*
G37*
G36*
X228238D02*
X227605Y259696D01*
X227043Y259133D01*
X226781Y258500D01*
X228238D01*
Y259958D01*
D02*
G37*
G36*
X182958Y259500D02*
X181500D01*
Y258042D01*
X182133Y258305D01*
X182695Y258867D01*
X182958Y259500D01*
D02*
G37*
G36*
X180500D02*
X179042D01*
X179305Y258867D01*
X179867Y258305D01*
X180500Y258042D01*
Y259500D01*
D02*
G37*
G36*
X256318Y259600D02*
X255682D01*
X255094Y259356D01*
X254644Y258906D01*
X254400Y258318D01*
Y257682D01*
X254644Y257094D01*
X255094Y256644D01*
X255682Y256400D01*
X256318D01*
X256906Y256644D01*
X257356Y257094D01*
X257600Y257682D01*
Y258318D01*
X257356Y258906D01*
X256906Y259356D01*
X256318Y259600D01*
D02*
G37*
G36*
X237718D02*
X237081D01*
X236493Y259356D01*
X236043Y258906D01*
X235800Y258318D01*
Y257682D01*
X236043Y257094D01*
X236493Y256644D01*
X237081Y256400D01*
X237718D01*
X238306Y256644D01*
X238756Y257094D01*
X239000Y257682D01*
Y258318D01*
X238756Y258906D01*
X238306Y259356D01*
X237718Y259600D01*
D02*
G37*
G36*
X230696Y257500D02*
X229238D01*
Y256042D01*
X229871Y256305D01*
X230434Y256867D01*
X230696Y257500D01*
D02*
G37*
G36*
X228238D02*
X226781D01*
X227043Y256867D01*
X227605Y256305D01*
X228238Y256042D01*
Y257500D01*
D02*
G37*
G36*
X189000Y237958D02*
Y236500D01*
X190458D01*
X190196Y237133D01*
X189633Y237696D01*
X189000Y237958D01*
D02*
G37*
G36*
X188000D02*
X187367Y237696D01*
X186804Y237133D01*
X186542Y236500D01*
X188000D01*
Y237958D01*
D02*
G37*
G36*
X190458Y235500D02*
X189000D01*
Y234042D01*
X189633Y234304D01*
X190196Y234867D01*
X190458Y235500D01*
D02*
G37*
G36*
X188000D02*
X186542D01*
X186804Y234867D01*
X187367Y234304D01*
X188000Y234042D01*
Y235500D01*
D02*
G37*
G36*
X196818Y231100D02*
X196182D01*
X195594Y230856D01*
X195144Y230406D01*
X194900Y229818D01*
Y229182D01*
X195144Y228594D01*
X195594Y228144D01*
X196182Y227900D01*
X196818D01*
X197406Y228144D01*
X197856Y228594D01*
X198100Y229182D01*
Y229818D01*
X197856Y230406D01*
X197406Y230856D01*
X196818Y231100D01*
D02*
G37*
G36*
X171500Y197458D02*
Y196000D01*
X172958D01*
X172696Y196633D01*
X172133Y197195D01*
X171500Y197458D01*
D02*
G37*
G36*
X170500D02*
X169867Y197195D01*
X169305Y196633D01*
X169042Y196000D01*
X170500D01*
Y197458D01*
D02*
G37*
G36*
X172958Y195000D02*
X171500D01*
Y193542D01*
X172133Y193805D01*
X172696Y194367D01*
X172958Y195000D01*
D02*
G37*
G36*
X170500D02*
X169042D01*
X169305Y194367D01*
X169867Y193805D01*
X170500Y193542D01*
Y195000D01*
D02*
G37*
G36*
X181318Y189600D02*
X180682D01*
X180094Y189356D01*
X179644Y188906D01*
X179400Y188318D01*
Y187682D01*
X179644Y187094D01*
X180094Y186644D01*
X180682Y186400D01*
X181318D01*
X181906Y186644D01*
X182356Y187094D01*
X182600Y187682D01*
Y188318D01*
X182356Y188906D01*
X181906Y189356D01*
X181318Y189600D01*
D02*
G37*
G36*
X147318Y184600D02*
X146682D01*
X146094Y184356D01*
X145644Y183906D01*
X145400Y183318D01*
Y182682D01*
X145644Y182094D01*
X146094Y181644D01*
X146682Y181400D01*
X147318D01*
X147906Y181644D01*
X148356Y182094D01*
X148600Y182682D01*
Y183318D01*
X148356Y183906D01*
X147906Y184356D01*
X147318Y184600D01*
D02*
G37*
G36*
X259143Y189143D02*
X250857D01*
Y180857D01*
X259143D01*
Y189143D01*
D02*
G37*
G36*
X169441Y180387D02*
X168889D01*
X168379Y180176D01*
X167989Y179786D01*
X167778Y179276D01*
Y178724D01*
X167989Y178214D01*
X168379Y177824D01*
X168889Y177613D01*
X169441D01*
X169951Y177824D01*
X170342Y178214D01*
X170553Y178724D01*
Y179276D01*
X170342Y179786D01*
X169951Y180176D01*
X169441Y180387D01*
D02*
G37*
G36*
X165111D02*
X164559D01*
X164049Y180176D01*
X163658Y179786D01*
X163447Y179276D01*
Y178724D01*
X163658Y178214D01*
X164049Y177824D01*
X164559Y177613D01*
X165111D01*
X165621Y177824D01*
X166011Y178214D01*
X166222Y178724D01*
Y179276D01*
X166011Y179786D01*
X165621Y180176D01*
X165111Y180387D01*
D02*
G37*
G36*
X96500Y177958D02*
Y176500D01*
X97958D01*
X97695Y177133D01*
X97133Y177696D01*
X96500Y177958D01*
D02*
G37*
G36*
X95500D02*
X94867Y177696D01*
X94305Y177133D01*
X94042Y176500D01*
X95500D01*
Y177958D01*
D02*
G37*
G36*
X87500D02*
Y176500D01*
X88958D01*
X88696Y177133D01*
X88133Y177696D01*
X87500Y177958D01*
D02*
G37*
G36*
X86500D02*
X85867Y177696D01*
X85304Y177133D01*
X85042Y176500D01*
X86500D01*
Y177958D01*
D02*
G37*
G36*
X78500D02*
Y176500D01*
X79958D01*
X79695Y177133D01*
X79133Y177696D01*
X78500Y177958D01*
D02*
G37*
G36*
X77500D02*
X76867Y177696D01*
X76305Y177133D01*
X76042Y176500D01*
X77500D01*
Y177958D01*
D02*
G37*
G36*
X202318Y178600D02*
X201682D01*
X201094Y178356D01*
X200644Y177906D01*
X200400Y177318D01*
Y176682D01*
X200644Y176094D01*
X201094Y175644D01*
X201682Y175400D01*
X202318D01*
X202906Y175644D01*
X203356Y176094D01*
X203600Y176682D01*
Y177318D01*
X203356Y177906D01*
X202906Y178356D01*
X202318Y178600D01*
D02*
G37*
G36*
X197318D02*
X196682D01*
X196094Y178356D01*
X195644Y177906D01*
X195400Y177318D01*
Y176682D01*
X195644Y176094D01*
X196094Y175644D01*
X196682Y175400D01*
X197318D01*
X197906Y175644D01*
X198356Y176094D01*
X198600Y176682D01*
Y177318D01*
X198356Y177906D01*
X197906Y178356D01*
X197318Y178600D01*
D02*
G37*
G36*
X187318D02*
X186682D01*
X186094Y178356D01*
X185644Y177906D01*
X185400Y177318D01*
Y176682D01*
X185644Y176094D01*
X186094Y175644D01*
X186682Y175400D01*
X187318D01*
X187906Y175644D01*
X188356Y176094D01*
X188600Y176682D01*
Y177318D01*
X188356Y177906D01*
X187906Y178356D01*
X187318Y178600D01*
D02*
G37*
G36*
X182318D02*
X181682D01*
X181094Y178356D01*
X180644Y177906D01*
X180400Y177318D01*
Y176682D01*
X180644Y176094D01*
X181094Y175644D01*
X181682Y175400D01*
X182318D01*
X182906Y175644D01*
X183356Y176094D01*
X183600Y176682D01*
Y177318D01*
X183356Y177906D01*
X182906Y178356D01*
X182318Y178600D01*
D02*
G37*
G36*
X151318Y177600D02*
X150682D01*
X150094Y177356D01*
X149644Y176906D01*
X149400Y176318D01*
Y175682D01*
X149644Y175094D01*
X150094Y174644D01*
X150682Y174400D01*
X151318D01*
X151906Y174644D01*
X152356Y175094D01*
X152600Y175682D01*
Y176318D01*
X152356Y176906D01*
X151906Y177356D01*
X151318Y177600D01*
D02*
G37*
G36*
X144318D02*
X143682D01*
X143094Y177356D01*
X142644Y176906D01*
X142400Y176318D01*
Y175682D01*
X142644Y175094D01*
X143094Y174644D01*
X143682Y174400D01*
X144318D01*
X144906Y174644D01*
X145356Y175094D01*
X145600Y175682D01*
Y176318D01*
X145356Y176906D01*
X144906Y177356D01*
X144318Y177600D01*
D02*
G37*
G36*
X97958Y175500D02*
X96500D01*
Y174042D01*
X97133Y174304D01*
X97695Y174867D01*
X97958Y175500D01*
D02*
G37*
G36*
X95500D02*
X94042D01*
X94305Y174867D01*
X94867Y174304D01*
X95500Y174042D01*
Y175500D01*
D02*
G37*
G36*
X88958D02*
X87500D01*
Y174042D01*
X88133Y174304D01*
X88696Y174867D01*
X88958Y175500D01*
D02*
G37*
G36*
X86500D02*
X85042D01*
X85304Y174867D01*
X85867Y174304D01*
X86500Y174042D01*
Y175500D01*
D02*
G37*
G36*
X79958D02*
X78500D01*
Y174042D01*
X79133Y174304D01*
X79695Y174867D01*
X79958Y175500D01*
D02*
G37*
G36*
X77500D02*
X76042D01*
X76305Y174867D01*
X76867Y174304D01*
X77500Y174042D01*
Y175500D01*
D02*
G37*
G36*
X103000Y174304D02*
Y172846D01*
X104458D01*
X104195Y173479D01*
X103633Y174042D01*
X103000Y174304D01*
D02*
G37*
G36*
X102000D02*
X101367Y174042D01*
X100804Y173479D01*
X100542Y172846D01*
X102000D01*
Y174304D01*
D02*
G37*
G36*
X73318Y175600D02*
X72682D01*
X72094Y175356D01*
X71644Y174906D01*
X71400Y174318D01*
Y173682D01*
X71644Y173094D01*
X72094Y172644D01*
X72682Y172400D01*
X73318D01*
X73906Y172644D01*
X74356Y173094D01*
X74600Y173682D01*
Y174318D01*
X74356Y174906D01*
X73906Y175356D01*
X73318Y175600D01*
D02*
G37*
G36*
X255545Y179143D02*
X254454D01*
X253401Y178861D01*
X252456Y178315D01*
X251684Y177544D01*
X251139Y176599D01*
X250857Y175546D01*
Y174454D01*
X251139Y173401D01*
X251684Y172456D01*
X252456Y171685D01*
X253401Y171139D01*
X254454Y170857D01*
X255545D01*
X256599Y171139D01*
X257544Y171685D01*
X258315Y172456D01*
X258861Y173401D01*
X259143Y174454D01*
Y175546D01*
X258861Y176599D01*
X258315Y177544D01*
X257544Y178315D01*
X256599Y178861D01*
X255545Y179143D01*
D02*
G37*
G36*
X202318Y173600D02*
X201682D01*
X201094Y173356D01*
X200644Y172906D01*
X200400Y172318D01*
Y171682D01*
X200644Y171094D01*
X201094Y170644D01*
X201682Y170400D01*
X202318D01*
X202906Y170644D01*
X203356Y171094D01*
X203600Y171682D01*
Y172318D01*
X203356Y172906D01*
X202906Y173356D01*
X202318Y173600D01*
D02*
G37*
G36*
X197318D02*
X196682D01*
X196094Y173356D01*
X195644Y172906D01*
X195400Y172318D01*
Y171682D01*
X195644Y171094D01*
X196094Y170644D01*
X196682Y170400D01*
X197318D01*
X197906Y170644D01*
X198356Y171094D01*
X198600Y171682D01*
Y172318D01*
X198356Y172906D01*
X197906Y173356D01*
X197318Y173600D01*
D02*
G37*
G36*
X187318D02*
X186682D01*
X186094Y173356D01*
X185644Y172906D01*
X185400Y172318D01*
Y171682D01*
X185644Y171094D01*
X186094Y170644D01*
X186682Y170400D01*
X187318D01*
X187906Y170644D01*
X188356Y171094D01*
X188600Y171682D01*
Y172318D01*
X188356Y172906D01*
X187906Y173356D01*
X187318Y173600D01*
D02*
G37*
G36*
X182318D02*
X181682D01*
X181094Y173356D01*
X180644Y172906D01*
X180400Y172318D01*
Y171682D01*
X180644Y171094D01*
X181094Y170644D01*
X181682Y170400D01*
X182318D01*
X182906Y170644D01*
X183356Y171094D01*
X183600Y171682D01*
Y172318D01*
X183356Y172906D01*
X182906Y173356D01*
X182318Y173600D01*
D02*
G37*
G36*
X104458Y171846D02*
X103000D01*
Y170389D01*
X103633Y170651D01*
X104195Y171214D01*
X104458Y171846D01*
D02*
G37*
G36*
X102000D02*
X100542D01*
X100804Y171214D01*
X101367Y170651D01*
X102000Y170389D01*
Y171846D01*
D02*
G37*
G36*
X92000Y171458D02*
Y170000D01*
X93458D01*
X93195Y170633D01*
X92633Y171195D01*
X92000Y171458D01*
D02*
G37*
G36*
X91000D02*
X90367Y171195D01*
X89805Y170633D01*
X89542Y170000D01*
X91000D01*
Y171458D01*
D02*
G37*
G36*
X144318Y172600D02*
X143682D01*
X143094Y172356D01*
X142644Y171906D01*
X142400Y171318D01*
Y170682D01*
X142644Y170094D01*
X143094Y169644D01*
X143682Y169400D01*
X144318D01*
X144906Y169644D01*
X145356Y170094D01*
X145600Y170682D01*
Y171318D01*
X145356Y171906D01*
X144906Y172356D01*
X144318Y172600D01*
D02*
G37*
G36*
X168303Y171600D02*
X167666D01*
X167078Y171356D01*
X166628Y170906D01*
X166384Y170318D01*
Y169682D01*
X166628Y169094D01*
X167078Y168644D01*
X167666Y168400D01*
X168303D01*
X168891Y168644D01*
X169341Y169094D01*
X169584Y169682D01*
Y170318D01*
X169341Y170906D01*
X168891Y171356D01*
X168303Y171600D01*
D02*
G37*
G36*
X93458Y169000D02*
X92000D01*
Y167542D01*
X92633Y167805D01*
X93195Y168367D01*
X93458Y169000D01*
D02*
G37*
G36*
X91000D02*
X89542D01*
X89805Y168367D01*
X90367Y167805D01*
X91000Y167542D01*
Y169000D01*
D02*
G37*
G36*
X82718Y170600D02*
X82082D01*
X81494Y170356D01*
X81044Y169906D01*
X80800Y169318D01*
Y168682D01*
X81044Y168094D01*
X81494Y167644D01*
X82082Y167400D01*
X82718D01*
X83306Y167644D01*
X83756Y168094D01*
X84000Y168682D01*
Y169318D01*
X83756Y169906D01*
X83306Y170356D01*
X82718Y170600D01*
D02*
G37*
G36*
X247500Y166958D02*
Y165500D01*
X248958D01*
X248695Y166133D01*
X248133Y166695D01*
X247500Y166958D01*
D02*
G37*
G36*
X246500D02*
X245867Y166695D01*
X245304Y166133D01*
X245042Y165500D01*
X246500D01*
Y166958D01*
D02*
G37*
G36*
X255598Y169543D02*
X255500D01*
Y165500D01*
X259543D01*
Y165598D01*
X259234Y166754D01*
X258635Y167790D01*
X257790Y168635D01*
X256754Y169234D01*
X255598Y169543D01*
D02*
G37*
G36*
X254500D02*
X254402D01*
X253246Y169234D01*
X252210Y168635D01*
X251364Y167790D01*
X250766Y166754D01*
X250457Y165598D01*
Y165500D01*
X254500D01*
Y169543D01*
D02*
G37*
G36*
X175000Y166458D02*
Y165000D01*
X176458D01*
X176196Y165633D01*
X175633Y166195D01*
X175000Y166458D01*
D02*
G37*
G36*
X174000D02*
X173367Y166195D01*
X172804Y165633D01*
X172542Y165000D01*
X174000D01*
Y166458D01*
D02*
G37*
G36*
X120318Y167200D02*
X119682D01*
X119094Y166956D01*
X118644Y166506D01*
X118400Y165918D01*
Y165282D01*
X118644Y164694D01*
X119094Y164244D01*
X119682Y164000D01*
X120318D01*
X120906Y164244D01*
X121356Y164694D01*
X121600Y165282D01*
Y165918D01*
X121356Y166506D01*
X120906Y166956D01*
X120318Y167200D01*
D02*
G37*
G36*
X235318Y166600D02*
X234682D01*
X234094Y166356D01*
X233644Y165906D01*
X233400Y165318D01*
Y164682D01*
X233644Y164094D01*
X234094Y163644D01*
X234682Y163400D01*
X235318D01*
X235906Y163644D01*
X236356Y164094D01*
X236600Y164682D01*
Y165318D01*
X236356Y165906D01*
X235906Y166356D01*
X235318Y166600D01*
D02*
G37*
G36*
X248958Y164500D02*
X247500D01*
Y163042D01*
X248133Y163304D01*
X248695Y163867D01*
X248958Y164500D01*
D02*
G37*
G36*
X246500D02*
X245042D01*
X245304Y163867D01*
X245867Y163304D01*
X246500Y163042D01*
Y164500D01*
D02*
G37*
G36*
X194318Y166100D02*
X193682D01*
X193094Y165856D01*
X192644Y165406D01*
X192400Y164818D01*
Y164182D01*
X192644Y163594D01*
X193094Y163144D01*
X193682Y162900D01*
X194318D01*
X194906Y163144D01*
X195356Y163594D01*
X195600Y164182D01*
Y164818D01*
X195356Y165406D01*
X194906Y165856D01*
X194318Y166100D01*
D02*
G37*
G36*
X176458Y164000D02*
X175000D01*
Y162542D01*
X175633Y162804D01*
X176196Y163367D01*
X176458Y164000D01*
D02*
G37*
G36*
X174000D02*
X172542D01*
X172804Y163367D01*
X173367Y162804D01*
X174000Y162542D01*
Y164000D01*
D02*
G37*
G36*
X73500Y163958D02*
Y162500D01*
X74958D01*
X74695Y163133D01*
X74133Y163696D01*
X73500Y163958D01*
D02*
G37*
G36*
X72500D02*
X71867Y163696D01*
X71305Y163133D01*
X71042Y162500D01*
X72500D01*
Y163958D01*
D02*
G37*
G36*
X158318Y165600D02*
X157682D01*
X157094Y165356D01*
X156644Y164906D01*
X156400Y164318D01*
Y163682D01*
X156644Y163094D01*
X157094Y162644D01*
X157682Y162400D01*
X158318D01*
X158906Y162644D01*
X159356Y163094D01*
X159600Y163682D01*
Y164318D01*
X159356Y164906D01*
X158906Y165356D01*
X158318Y165600D01*
D02*
G37*
G36*
X143318D02*
X142682D01*
X142094Y165356D01*
X141644Y164906D01*
X141400Y164318D01*
Y163682D01*
X141644Y163094D01*
X142094Y162644D01*
X142682Y162400D01*
X143318D01*
X143906Y162644D01*
X144356Y163094D01*
X144600Y163682D01*
Y164318D01*
X144356Y164906D01*
X143906Y165356D01*
X143318Y165600D01*
D02*
G37*
G36*
X259543Y164500D02*
X255500D01*
Y160457D01*
X255598D01*
X256754Y160766D01*
X257790Y161364D01*
X258635Y162210D01*
X259234Y163246D01*
X259543Y164402D01*
Y164500D01*
D02*
G37*
G36*
X254500D02*
X250457D01*
Y164402D01*
X250766Y163246D01*
X251364Y162210D01*
X252210Y161364D01*
X253246Y160766D01*
X254402Y160457D01*
X254500D01*
Y164500D01*
D02*
G37*
G36*
X74958Y161500D02*
X73500D01*
Y160042D01*
X74133Y160304D01*
X74695Y160867D01*
X74958Y161500D01*
D02*
G37*
G36*
X72500D02*
X71042D01*
X71305Y160867D01*
X71867Y160304D01*
X72500Y160042D01*
Y161500D01*
D02*
G37*
G36*
X68318Y158100D02*
X67682D01*
X67094Y157856D01*
X66644Y157406D01*
X66400Y156818D01*
Y156182D01*
X66644Y155594D01*
X67094Y155144D01*
X67682Y154900D01*
X68318D01*
X68906Y155144D01*
X69356Y155594D01*
X69600Y156182D01*
Y156818D01*
X69356Y157406D01*
X68906Y157856D01*
X68318Y158100D01*
D02*
G37*
G36*
X92818Y158000D02*
X92182D01*
X91594Y157756D01*
X91144Y157306D01*
X90900Y156718D01*
Y156082D01*
X91144Y155494D01*
X91594Y155044D01*
X92182Y154800D01*
X92818D01*
X93406Y155044D01*
X93856Y155494D01*
X94100Y156082D01*
Y156718D01*
X93856Y157306D01*
X93406Y157756D01*
X92818Y158000D01*
D02*
G37*
G36*
X102725Y157947D02*
X102089D01*
X101500Y157703D01*
X101050Y157253D01*
X100807Y156665D01*
Y156028D01*
X101050Y155440D01*
X101500Y154990D01*
X102089Y154746D01*
X102725D01*
X103313Y154990D01*
X103763Y155440D01*
X104007Y156028D01*
Y156665D01*
X103763Y157253D01*
X103313Y157703D01*
X102725Y157947D01*
D02*
G37*
G36*
X120318Y157900D02*
X119682D01*
X119094Y157656D01*
X118644Y157206D01*
X118400Y156618D01*
Y155982D01*
X118644Y155394D01*
X119094Y154944D01*
X119682Y154700D01*
X120318D01*
X120906Y154944D01*
X121356Y155394D01*
X121600Y155982D01*
Y156618D01*
X121356Y157206D01*
X120906Y157656D01*
X120318Y157900D01*
D02*
G37*
G36*
X247318Y156600D02*
X246682D01*
X246094Y156356D01*
X245644Y155906D01*
X245400Y155318D01*
Y154682D01*
X245644Y154094D01*
X246094Y153644D01*
X246682Y153400D01*
X247318D01*
X247906Y153644D01*
X248356Y154094D01*
X248600Y154682D01*
Y155318D01*
X248356Y155906D01*
X247906Y156356D01*
X247318Y156600D01*
D02*
G37*
G36*
X89500Y152958D02*
Y151500D01*
X90958D01*
X90696Y152133D01*
X90133Y152696D01*
X89500Y152958D01*
D02*
G37*
G36*
X88500D02*
X87867Y152696D01*
X87305Y152133D01*
X87042Y151500D01*
X88500D01*
Y152958D01*
D02*
G37*
G36*
X255545Y159143D02*
X254454D01*
X253401Y158861D01*
X252456Y158316D01*
X251684Y157544D01*
X251139Y156599D01*
X250857Y155545D01*
Y154455D01*
X251139Y153401D01*
X251684Y152456D01*
X252456Y151684D01*
X253401Y151139D01*
X254454Y150857D01*
X255545D01*
X256599Y151139D01*
X257544Y151684D01*
X258315Y152456D01*
X258861Y153401D01*
X259143Y154455D01*
Y155545D01*
X258861Y156599D01*
X258315Y157544D01*
X257544Y158316D01*
X256599Y158861D01*
X255545Y159143D01*
D02*
G37*
G36*
X103000Y151611D02*
Y150154D01*
X104458D01*
X104195Y150786D01*
X103633Y151349D01*
X103000Y151611D01*
D02*
G37*
G36*
X102000D02*
X101367Y151349D01*
X100804Y150786D01*
X100542Y150154D01*
X102000D01*
Y151611D01*
D02*
G37*
G36*
X73500Y150958D02*
Y149500D01*
X74958D01*
X74695Y150133D01*
X74133Y150696D01*
X73500Y150958D01*
D02*
G37*
G36*
X72500D02*
X71867Y150696D01*
X71305Y150133D01*
X71042Y149500D01*
X72500D01*
Y150958D01*
D02*
G37*
G36*
X90958Y150500D02*
X89500D01*
Y149042D01*
X90133Y149304D01*
X90696Y149867D01*
X90958Y150500D01*
D02*
G37*
G36*
X88500D02*
X87042D01*
X87305Y149867D01*
X87867Y149304D01*
X88500Y149042D01*
Y150500D01*
D02*
G37*
G36*
X104458Y149153D02*
X103000D01*
Y147696D01*
X103633Y147958D01*
X104195Y148521D01*
X104458Y149153D01*
D02*
G37*
G36*
X102000D02*
X100542D01*
X100804Y148521D01*
X101367Y147958D01*
X102000Y147696D01*
Y149153D01*
D02*
G37*
G36*
X74958Y148500D02*
X73500D01*
Y147042D01*
X74133Y147304D01*
X74695Y147867D01*
X74958Y148500D01*
D02*
G37*
G36*
X72500D02*
X71042D01*
X71305Y147867D01*
X71867Y147304D01*
X72500Y147042D01*
Y148500D01*
D02*
G37*
G36*
X83318Y145100D02*
X82682D01*
X82094Y144856D01*
X81644Y144406D01*
X81400Y143818D01*
Y143182D01*
X81644Y142594D01*
X82094Y142144D01*
X82682Y141900D01*
X83318D01*
X83906Y142144D01*
X84356Y142594D01*
X84600Y143182D01*
Y143818D01*
X84356Y144406D01*
X83906Y144856D01*
X83318Y145100D01*
D02*
G37*
G36*
X110318Y142100D02*
X109682D01*
X109094Y141856D01*
X108644Y141406D01*
X108400Y140818D01*
Y140182D01*
X108644Y139594D01*
X109094Y139144D01*
X109682Y138900D01*
X110318D01*
X110906Y139144D01*
X111356Y139594D01*
X111600Y140182D01*
Y140818D01*
X111356Y141406D01*
X110906Y141856D01*
X110318Y142100D01*
D02*
G37*
G36*
X88118Y139100D02*
X87482D01*
X86894Y138856D01*
X86444Y138406D01*
X86200Y137818D01*
Y137182D01*
X86444Y136594D01*
X86894Y136144D01*
X87482Y135900D01*
X88118D01*
X88706Y136144D01*
X89156Y136594D01*
X89400Y137182D01*
Y137818D01*
X89156Y138406D01*
X88706Y138856D01*
X88118Y139100D01*
D02*
G37*
G36*
X205318Y136600D02*
X204682D01*
X204094Y136356D01*
X203644Y135906D01*
X203400Y135318D01*
Y134682D01*
X203644Y134094D01*
X204094Y133644D01*
X204682Y133400D01*
X205318D01*
X205906Y133644D01*
X206356Y134094D01*
X206600Y134682D01*
Y135318D01*
X206356Y135906D01*
X205906Y136356D01*
X205318Y136600D01*
D02*
G37*
G36*
X185318D02*
X184682D01*
X184094Y136356D01*
X183644Y135906D01*
X183400Y135318D01*
Y134682D01*
X183644Y134094D01*
X184094Y133644D01*
X184682Y133400D01*
X185318D01*
X185906Y133644D01*
X186356Y134094D01*
X186600Y134682D01*
Y135318D01*
X186356Y135906D01*
X185906Y136356D01*
X185318Y136600D01*
D02*
G37*
G36*
X121118Y136100D02*
X120482D01*
X119894Y135856D01*
X119444Y135406D01*
X119200Y134818D01*
Y134182D01*
X119444Y133594D01*
X119894Y133144D01*
X120482Y132900D01*
X121118D01*
X121706Y133144D01*
X122156Y133594D01*
X122400Y134182D01*
Y134818D01*
X122156Y135406D01*
X121706Y135856D01*
X121118Y136100D01*
D02*
G37*
G36*
X78618D02*
X77982D01*
X77394Y135856D01*
X76944Y135406D01*
X76700Y134818D01*
Y134182D01*
X76944Y133594D01*
X77394Y133144D01*
X77982Y132900D01*
X78618D01*
X79206Y133144D01*
X79656Y133594D01*
X79900Y134182D01*
Y134818D01*
X79656Y135406D01*
X79206Y135856D01*
X78618Y136100D01*
D02*
G37*
G36*
X36118D02*
X35482D01*
X34894Y135856D01*
X34444Y135406D01*
X34200Y134818D01*
Y134182D01*
X34444Y133594D01*
X34894Y133144D01*
X35482Y132900D01*
X36118D01*
X36706Y133144D01*
X37156Y133594D01*
X37400Y134182D01*
Y134818D01*
X37156Y135406D01*
X36706Y135856D01*
X36118Y136100D01*
D02*
G37*
G36*
X259143Y139143D02*
X250857D01*
Y130857D01*
X259143D01*
Y139143D01*
D02*
G37*
G36*
X147818Y130800D02*
X147182D01*
X146594Y130556D01*
X146144Y130106D01*
X145900Y129518D01*
Y128882D01*
X146144Y128294D01*
X146594Y127844D01*
X147182Y127600D01*
X147818D01*
X148406Y127844D01*
X148856Y128294D01*
X149100Y128882D01*
Y129518D01*
X148856Y130106D01*
X148406Y130556D01*
X147818Y130800D01*
D02*
G37*
G36*
X205318Y126600D02*
X204682D01*
X204094Y126356D01*
X203644Y125906D01*
X203400Y125318D01*
Y124682D01*
X203644Y124094D01*
X204094Y123644D01*
X204682Y123400D01*
X205318D01*
X205906Y123644D01*
X206356Y124094D01*
X206600Y124682D01*
Y125318D01*
X206356Y125906D01*
X205906Y126356D01*
X205318Y126600D01*
D02*
G37*
G36*
X177318D02*
X176682D01*
X176094Y126356D01*
X175644Y125906D01*
X175400Y125318D01*
Y124682D01*
X175644Y124094D01*
X176094Y123644D01*
X176682Y123400D01*
X177318D01*
X177906Y123644D01*
X178356Y124094D01*
X178600Y124682D01*
Y125318D01*
X178356Y125906D01*
X177906Y126356D01*
X177318Y126600D01*
D02*
G37*
G36*
X255545Y129143D02*
X254454D01*
X253401Y128861D01*
X252456Y128315D01*
X251684Y127544D01*
X251139Y126599D01*
X250857Y125546D01*
Y124454D01*
X251139Y123401D01*
X251684Y122456D01*
X252456Y121685D01*
X253401Y121139D01*
X254454Y120857D01*
X255545D01*
X256599Y121139D01*
X257544Y121685D01*
X258315Y122456D01*
X258861Y123401D01*
X259143Y124454D01*
Y125546D01*
X258861Y126599D01*
X258315Y127544D01*
X257544Y128315D01*
X256599Y128861D01*
X255545Y129143D01*
D02*
G37*
G36*
X247318Y116600D02*
X246682D01*
X246094Y116356D01*
X245644Y115906D01*
X245400Y115318D01*
Y114682D01*
X245644Y114094D01*
X246094Y113644D01*
X246682Y113400D01*
X247318D01*
X247906Y113644D01*
X248356Y114094D01*
X248600Y114682D01*
Y115318D01*
X248356Y115906D01*
X247906Y116356D01*
X247318Y116600D01*
D02*
G37*
G36*
X255545Y119143D02*
X254454D01*
X253401Y118861D01*
X252456Y118315D01*
X251684Y117544D01*
X251139Y116599D01*
X250857Y115545D01*
Y114454D01*
X251139Y113401D01*
X251684Y112456D01*
X252456Y111685D01*
X253401Y111139D01*
X254454Y110857D01*
X255545D01*
X256599Y111139D01*
X257544Y111685D01*
X258315Y112456D01*
X258861Y113401D01*
X259143Y114454D01*
Y115545D01*
X258861Y116599D01*
X258315Y117544D01*
X257544Y118315D01*
X256599Y118861D01*
X255545Y119143D01*
D02*
G37*
G36*
X147968Y111950D02*
X147331D01*
X146743Y111707D01*
X146293Y111257D01*
X146050Y110669D01*
Y110032D01*
X146293Y109444D01*
X146743Y108994D01*
X147331Y108750D01*
X147968D01*
X148556Y108994D01*
X149006Y109444D01*
X149250Y110032D01*
Y110669D01*
X149006Y111257D01*
X148556Y111707D01*
X147968Y111950D01*
D02*
G37*
G36*
X137118Y111100D02*
X136482D01*
X135894Y110856D01*
X135444Y110406D01*
X135200Y109818D01*
Y109182D01*
X135444Y108594D01*
X135894Y108144D01*
X136482Y107900D01*
X137118D01*
X137706Y108144D01*
X138156Y108594D01*
X138400Y109182D01*
Y109818D01*
X138156Y110406D01*
X137706Y110856D01*
X137118Y111100D01*
D02*
G37*
G36*
X247500Y106958D02*
Y105500D01*
X248958D01*
X248695Y106133D01*
X248133Y106695D01*
X247500Y106958D01*
D02*
G37*
G36*
X246500D02*
X245867Y106695D01*
X245304Y106133D01*
X245042Y105500D01*
X246500D01*
Y106958D01*
D02*
G37*
G36*
X255598Y109543D02*
X255500D01*
Y105500D01*
X259543D01*
Y105598D01*
X259234Y106754D01*
X258635Y107790D01*
X257790Y108635D01*
X256754Y109234D01*
X255598Y109543D01*
D02*
G37*
G36*
X254500D02*
X254402D01*
X253246Y109234D01*
X252210Y108635D01*
X251364Y107790D01*
X250766Y106754D01*
X250457Y105598D01*
Y105500D01*
X254500D01*
Y109543D01*
D02*
G37*
G36*
X68306Y108213D02*
X67669D01*
X67081Y107969D01*
X66631Y107519D01*
X66387Y106931D01*
Y106294D01*
X66631Y105706D01*
X67081Y105256D01*
X67669Y105013D01*
X68306D01*
X68894Y105256D01*
X69344Y105706D01*
X69587Y106294D01*
Y106931D01*
X69344Y107519D01*
X68894Y107969D01*
X68306Y108213D01*
D02*
G37*
G36*
X44231D02*
X43594D01*
X43006Y107969D01*
X42556Y107519D01*
X42313Y106931D01*
Y106294D01*
X42556Y105706D01*
X43006Y105256D01*
X43594Y105013D01*
X44231D01*
X44819Y105256D01*
X45269Y105706D01*
X45513Y106294D01*
Y106931D01*
X45269Y107519D01*
X44819Y107969D01*
X44231Y108213D01*
D02*
G37*
G36*
X185318Y107600D02*
X184682D01*
X184094Y107356D01*
X183644Y106906D01*
X183400Y106318D01*
Y105682D01*
X183644Y105094D01*
X184094Y104644D01*
X184682Y104400D01*
X185318D01*
X185906Y104644D01*
X186356Y105094D01*
X186600Y105682D01*
Y106318D01*
X186356Y106906D01*
X185906Y107356D01*
X185318Y107600D01*
D02*
G37*
G36*
X119318Y107400D02*
X118682D01*
X118094Y107156D01*
X117644Y106706D01*
X117400Y106118D01*
Y105482D01*
X117644Y104894D01*
X118094Y104444D01*
X118682Y104200D01*
X119318D01*
X119906Y104444D01*
X120356Y104894D01*
X120600Y105482D01*
Y106118D01*
X120356Y106706D01*
X119906Y107156D01*
X119318Y107400D01*
D02*
G37*
G36*
X92818D02*
X92182D01*
X91594Y107156D01*
X91144Y106706D01*
X90900Y106118D01*
Y105482D01*
X91144Y104894D01*
X91594Y104444D01*
X92182Y104200D01*
X92818D01*
X93406Y104444D01*
X93856Y104894D01*
X94100Y105482D01*
Y106118D01*
X93856Y106706D01*
X93406Y107156D01*
X92818Y107400D01*
D02*
G37*
G36*
X137118Y106300D02*
X136482D01*
X135894Y106056D01*
X135444Y105606D01*
X135200Y105018D01*
Y104382D01*
X135444Y103794D01*
X135894Y103344D01*
X136482Y103100D01*
X137118D01*
X137706Y103344D01*
X138156Y103794D01*
X138400Y104382D01*
Y105018D01*
X138156Y105606D01*
X137706Y106056D01*
X137118Y106300D01*
D02*
G37*
G36*
X248958Y104500D02*
X247500D01*
Y103042D01*
X248133Y103305D01*
X248695Y103867D01*
X248958Y104500D01*
D02*
G37*
G36*
X246500D02*
X245042D01*
X245304Y103867D01*
X245867Y103305D01*
X246500Y103042D01*
Y104500D01*
D02*
G37*
G36*
X259543Y104500D02*
X255500D01*
Y100457D01*
X255598D01*
X256754Y100766D01*
X257790Y101365D01*
X258635Y102210D01*
X259234Y103246D01*
X259543Y104402D01*
Y104500D01*
D02*
G37*
G36*
X254500D02*
X250457D01*
Y104402D01*
X250766Y103246D01*
X251364Y102210D01*
X252210Y101365D01*
X253246Y100766D01*
X254402Y100457D01*
X254500D01*
Y104500D01*
D02*
G37*
G36*
X185318Y100100D02*
X184682D01*
X184094Y99856D01*
X183644Y99406D01*
X183400Y98818D01*
Y98182D01*
X183644Y97594D01*
X184094Y97144D01*
X184682Y96900D01*
X185318D01*
X185906Y97144D01*
X186356Y97594D01*
X186600Y98182D01*
Y98818D01*
X186356Y99406D01*
X185906Y99856D01*
X185318Y100100D01*
D02*
G37*
G36*
X68318Y99622D02*
X67682D01*
X67094Y99379D01*
X66644Y98928D01*
X66400Y98340D01*
Y97704D01*
X66644Y97116D01*
X67094Y96666D01*
X67682Y96422D01*
X68318D01*
X68906Y96666D01*
X69356Y97116D01*
X69600Y97704D01*
Y98340D01*
X69356Y98928D01*
X68906Y99379D01*
X68318Y99622D01*
D02*
G37*
G36*
X44318Y99600D02*
X43682D01*
X43094Y99356D01*
X42644Y98906D01*
X42400Y98318D01*
Y97682D01*
X42644Y97094D01*
X43094Y96644D01*
X43682Y96400D01*
X44318D01*
X44906Y96644D01*
X45356Y97094D01*
X45600Y97682D01*
Y98318D01*
X45356Y98906D01*
X44906Y99356D01*
X44318Y99600D01*
D02*
G37*
G36*
X137118Y96900D02*
X136482D01*
X135894Y96656D01*
X135444Y96206D01*
X135200Y95618D01*
Y94982D01*
X135444Y94394D01*
X135894Y93944D01*
X136482Y93700D01*
X137118D01*
X137706Y93944D01*
X138156Y94394D01*
X138400Y94982D01*
Y95618D01*
X138156Y96206D01*
X137706Y96656D01*
X137118Y96900D01*
D02*
G37*
G36*
X119418Y95900D02*
X118782D01*
X118194Y95656D01*
X117744Y95206D01*
X117500Y94618D01*
Y93982D01*
X117744Y93394D01*
X118194Y92944D01*
X118782Y92700D01*
X119418D01*
X120006Y92944D01*
X120456Y93394D01*
X120700Y93982D01*
Y94618D01*
X120456Y95206D01*
X120006Y95656D01*
X119418Y95900D01*
D02*
G37*
G36*
X92818D02*
X92182D01*
X91594Y95656D01*
X91144Y95206D01*
X90900Y94618D01*
Y93982D01*
X91144Y93394D01*
X91594Y92944D01*
X92182Y92700D01*
X92818D01*
X93406Y92944D01*
X93856Y93394D01*
X94100Y93982D01*
Y94618D01*
X93856Y95206D01*
X93406Y95656D01*
X92818Y95900D01*
D02*
G37*
G36*
X185500Y91958D02*
Y90500D01*
X186958D01*
X186696Y91133D01*
X186133Y91695D01*
X185500Y91958D01*
D02*
G37*
G36*
X184500D02*
X183867Y91695D01*
X183305Y91133D01*
X183042Y90500D01*
X184500D01*
Y91958D01*
D02*
G37*
G36*
X144500D02*
Y90500D01*
X145958D01*
X145695Y91133D01*
X145133Y91695D01*
X144500Y91958D01*
D02*
G37*
G36*
X143500D02*
X142867Y91695D01*
X142305Y91133D01*
X142042Y90500D01*
X143500D01*
Y91958D01*
D02*
G37*
G36*
X150500Y92951D02*
X149850Y92777D01*
X149170Y92385D01*
X148615Y91830D01*
X148223Y91150D01*
X148049Y90500D01*
X150500D01*
Y92951D01*
D02*
G37*
G36*
X186958Y89500D02*
X185500D01*
Y88042D01*
X186133Y88305D01*
X186696Y88867D01*
X186958Y89500D01*
D02*
G37*
G36*
X184500D02*
X183042D01*
X183305Y88867D01*
X183867Y88305D01*
X184500Y88042D01*
Y89500D01*
D02*
G37*
G36*
X145958D02*
X144500D01*
Y88042D01*
X145133Y88305D01*
X145695Y88867D01*
X145958Y89500D01*
D02*
G37*
G36*
X143500D02*
X142042D01*
X142305Y88867D01*
X142867Y88305D01*
X143500Y88042D01*
Y89500D01*
D02*
G37*
G36*
X162818Y86600D02*
X162182D01*
X161594Y86356D01*
X161144Y85906D01*
X160900Y85318D01*
Y84682D01*
X161144Y84094D01*
X161594Y83644D01*
X162182Y83400D01*
X162818D01*
X163406Y83644D01*
X163856Y84094D01*
X164100Y84682D01*
Y85318D01*
X163856Y85906D01*
X163406Y86356D01*
X162818Y86600D01*
D02*
G37*
G36*
X259143Y89143D02*
X250857D01*
Y80857D01*
X259143D01*
Y89143D01*
D02*
G37*
G36*
X162818Y81600D02*
X162182D01*
X161594Y81356D01*
X161144Y80906D01*
X160900Y80318D01*
Y79682D01*
X161144Y79094D01*
X161594Y78644D01*
X162182Y78400D01*
X162818D01*
X163406Y78644D01*
X163856Y79094D01*
X164100Y79682D01*
Y80318D01*
X163856Y80906D01*
X163406Y81356D01*
X162818Y81600D01*
D02*
G37*
G36*
X144318D02*
X143682D01*
X143094Y81356D01*
X142644Y80906D01*
X142400Y80318D01*
Y79682D01*
X142644Y79094D01*
X143094Y78644D01*
X143682Y78400D01*
X144318D01*
X144906Y78644D01*
X145356Y79094D01*
X145600Y79682D01*
Y80318D01*
X145356Y80906D01*
X144906Y81356D01*
X144318Y81600D01*
D02*
G37*
G36*
X255545Y79143D02*
X254454D01*
X253401Y78861D01*
X252456Y78316D01*
X251684Y77544D01*
X251139Y76599D01*
X250857Y75546D01*
Y74454D01*
X251139Y73401D01*
X251684Y72456D01*
X252456Y71684D01*
X253401Y71139D01*
X254454Y70857D01*
X255545D01*
X256599Y71139D01*
X257544Y71684D01*
X258315Y72456D01*
X258861Y73401D01*
X259143Y74454D01*
Y75546D01*
X258861Y76599D01*
X258315Y77544D01*
X257544Y78316D01*
X256599Y78861D01*
X255545Y79143D01*
D02*
G37*
G36*
X111718Y72100D02*
X111082D01*
X110494Y71856D01*
X110044Y71406D01*
X109800Y70818D01*
Y70182D01*
X110044Y69594D01*
X110494Y69144D01*
X111082Y68900D01*
X111718D01*
X112306Y69144D01*
X112756Y69594D01*
X113000Y70182D01*
Y70818D01*
X112756Y71406D01*
X112306Y71856D01*
X111718Y72100D01*
D02*
G37*
G36*
X78618D02*
X77982D01*
X77394Y71856D01*
X76944Y71406D01*
X76700Y70818D01*
Y70182D01*
X76944Y69594D01*
X77394Y69144D01*
X77982Y68900D01*
X78618D01*
X79206Y69144D01*
X79656Y69594D01*
X79900Y70182D01*
Y70818D01*
X79656Y71406D01*
X79206Y71856D01*
X78618Y72100D01*
D02*
G37*
G36*
X38418D02*
X37782D01*
X37194Y71856D01*
X36744Y71406D01*
X36500Y70818D01*
Y70182D01*
X36744Y69594D01*
X37194Y69144D01*
X37782Y68900D01*
X38418D01*
X39006Y69144D01*
X39456Y69594D01*
X39700Y70182D01*
Y70818D01*
X39456Y71406D01*
X39006Y71856D01*
X38418Y72100D01*
D02*
G37*
G36*
X144318Y71600D02*
X143682D01*
X143094Y71356D01*
X142644Y70906D01*
X142400Y70318D01*
Y69682D01*
X142644Y69094D01*
X143094Y68644D01*
X143682Y68400D01*
X144318D01*
X144906Y68644D01*
X145356Y69094D01*
X145600Y69682D01*
Y70318D01*
X145356Y70906D01*
X144906Y71356D01*
X144318Y71600D01*
D02*
G37*
G36*
X151500Y92951D02*
Y90000D01*
X151000D01*
Y89500D01*
X148049D01*
X148223Y88850D01*
X148615Y88170D01*
X149170Y87615D01*
X149324Y87527D01*
X149309Y86958D01*
X148935Y86584D01*
X148596Y85996D01*
X148420Y85340D01*
Y84660D01*
X148596Y84004D01*
X148935Y83416D01*
X149416Y82936D01*
X149670Y82789D01*
Y82211D01*
X149416Y82064D01*
X148935Y81584D01*
X148596Y80996D01*
X148420Y80340D01*
Y79660D01*
X148596Y79004D01*
X148935Y78416D01*
X149416Y77935D01*
X149670Y77789D01*
Y77211D01*
X149416Y77065D01*
X148935Y76584D01*
X148596Y75996D01*
X148420Y75340D01*
Y74660D01*
X148596Y74004D01*
X148935Y73416D01*
X149416Y72935D01*
X149670Y72789D01*
Y72211D01*
X149416Y72065D01*
X148935Y71584D01*
X148596Y70996D01*
X148420Y70340D01*
Y69660D01*
X148596Y69004D01*
X148935Y68416D01*
X149416Y67936D01*
X150004Y67596D01*
X150660Y67420D01*
X151340D01*
X151996Y67596D01*
X152584Y67936D01*
X153065Y68416D01*
X153211Y68670D01*
X153789D01*
X153936Y68416D01*
X154416Y67936D01*
X155004Y67596D01*
X155660Y67420D01*
X156340D01*
X156996Y67596D01*
X157584Y67936D01*
X158064Y68416D01*
X158404Y69004D01*
X158580Y69660D01*
Y70340D01*
X158404Y70996D01*
X158064Y71584D01*
X157584Y72065D01*
X157330Y72211D01*
Y72789D01*
X157584Y72935D01*
X158064Y73416D01*
X158404Y74004D01*
X158580Y74660D01*
Y75340D01*
X158404Y75996D01*
X158064Y76584D01*
X157584Y77065D01*
X157330Y77211D01*
Y77789D01*
X157584Y77935D01*
X158064Y78416D01*
X158404Y79004D01*
X158580Y79660D01*
Y80340D01*
X158404Y80996D01*
X158064Y81584D01*
X157584Y82064D01*
X157330Y82211D01*
Y82789D01*
X157584Y82936D01*
X158064Y83416D01*
X158404Y84004D01*
X158580Y84660D01*
Y85340D01*
X158404Y85996D01*
X158064Y86584D01*
X157584Y87064D01*
X157330Y87211D01*
Y87789D01*
X157584Y87936D01*
X158064Y88416D01*
X158404Y89004D01*
X158580Y89660D01*
Y90340D01*
X158404Y90996D01*
X158064Y91584D01*
X157584Y92064D01*
X156996Y92404D01*
X156340Y92580D01*
X155660D01*
X155004Y92404D01*
X154416Y92064D01*
X154042Y91691D01*
X153473Y91676D01*
X153385Y91830D01*
X152830Y92385D01*
X152150Y92777D01*
X151500Y92951D01*
D02*
G37*
G36*
X83344Y69600D02*
X82707D01*
X82119Y69356D01*
X81669Y68906D01*
X81426Y68318D01*
Y67682D01*
X81669Y67094D01*
X82119Y66644D01*
X82707Y66400D01*
X83344D01*
X83932Y66644D01*
X84382Y67094D01*
X84626Y67682D01*
Y68318D01*
X84382Y68906D01*
X83932Y69356D01*
X83344Y69600D01*
D02*
G37*
G36*
X139500Y66958D02*
Y65500D01*
X140958D01*
X140696Y66133D01*
X140133Y66695D01*
X139500Y66958D01*
D02*
G37*
G36*
X138500D02*
X137867Y66695D01*
X137304Y66133D01*
X137042Y65500D01*
X138500D01*
Y66958D01*
D02*
G37*
G36*
X50318Y68600D02*
X49682D01*
X49094Y68356D01*
X48644Y67906D01*
X48400Y67318D01*
Y66682D01*
X48644Y66094D01*
X49094Y65644D01*
X49682Y65400D01*
X50318D01*
X50906Y65644D01*
X51356Y66094D01*
X51600Y66682D01*
Y67318D01*
X51356Y67906D01*
X50906Y68356D01*
X50318Y68600D01*
D02*
G37*
G36*
X144318Y66600D02*
X143682D01*
X143094Y66356D01*
X142644Y65906D01*
X142400Y65318D01*
Y64682D01*
X142644Y64094D01*
X143094Y63644D01*
X143682Y63400D01*
X144318D01*
X144906Y63644D01*
X145356Y64094D01*
X145600Y64682D01*
Y65318D01*
X145356Y65906D01*
X144906Y66356D01*
X144318Y66600D01*
D02*
G37*
G36*
X88068D02*
X87432D01*
X86844Y66356D01*
X86394Y65906D01*
X86150Y65318D01*
Y64682D01*
X86394Y64094D01*
X86844Y63644D01*
X87432Y63400D01*
X88068D01*
X88656Y63644D01*
X89106Y64094D01*
X89350Y64682D01*
Y65318D01*
X89106Y65906D01*
X88656Y66356D01*
X88068Y66600D01*
D02*
G37*
G36*
X140958Y64500D02*
X139500D01*
Y63042D01*
X140133Y63305D01*
X140696Y63867D01*
X140958Y64500D01*
D02*
G37*
G36*
X138500D02*
X137042D01*
X137304Y63867D01*
X137867Y63305D01*
X138500Y63042D01*
Y64500D01*
D02*
G37*
G36*
X255545Y69143D02*
X254454D01*
X253401Y68861D01*
X252456Y68316D01*
X251684Y67544D01*
X251139Y66599D01*
X250857Y65545D01*
Y64455D01*
X251139Y63401D01*
X251684Y62456D01*
X252456Y61685D01*
X253401Y61139D01*
X254454Y60857D01*
X255545D01*
X256599Y61139D01*
X257544Y61685D01*
X258315Y62456D01*
X258861Y63401D01*
X259143Y64455D01*
Y65545D01*
X258861Y66599D01*
X258315Y67544D01*
X257544Y68316D01*
X256599Y68861D01*
X255545Y69143D01*
D02*
G37*
G36*
X197818Y61600D02*
X197182D01*
X196594Y61356D01*
X196144Y60906D01*
X195900Y60318D01*
Y59682D01*
X196144Y59094D01*
X196594Y58644D01*
X197182Y58400D01*
X197818D01*
X198406Y58644D01*
X198856Y59094D01*
X199100Y59682D01*
Y60318D01*
X198856Y60906D01*
X198406Y61356D01*
X197818Y61600D01*
D02*
G37*
G36*
X62500Y59084D02*
Y57626D01*
X63958D01*
X63696Y58259D01*
X63133Y58821D01*
X62500Y59084D01*
D02*
G37*
G36*
X61500D02*
X60867Y58821D01*
X60304Y58259D01*
X60042Y57626D01*
X61500D01*
Y59084D01*
D02*
G37*
G36*
X69118Y60600D02*
X68482D01*
X67894Y60356D01*
X67444Y59906D01*
X67200Y59318D01*
Y58682D01*
X67444Y58094D01*
X67894Y57644D01*
X68482Y57400D01*
X69118D01*
X69706Y57644D01*
X70156Y58094D01*
X70400Y58682D01*
Y59318D01*
X70156Y59906D01*
X69706Y60356D01*
X69118Y60600D01*
D02*
G37*
G36*
X63958Y56626D02*
X62500D01*
Y55168D01*
X63133Y55431D01*
X63696Y55993D01*
X63958Y56626D01*
D02*
G37*
G36*
X61500D02*
X60042D01*
X60304Y55993D01*
X60867Y55431D01*
X61500Y55168D01*
Y56626D01*
D02*
G37*
G36*
X200818Y57600D02*
X200182D01*
X199594Y57356D01*
X199144Y56906D01*
X198900Y56318D01*
Y55682D01*
X199144Y55094D01*
X199594Y54644D01*
X200182Y54400D01*
X200818D01*
X201406Y54644D01*
X201856Y55094D01*
X202100Y55682D01*
Y56318D01*
X201856Y56906D01*
X201406Y57356D01*
X200818Y57600D01*
D02*
G37*
G36*
X50500Y53958D02*
Y52500D01*
X51958D01*
X51696Y53133D01*
X51133Y53695D01*
X50500Y53958D01*
D02*
G37*
G36*
X49500D02*
X48867Y53695D01*
X48305Y53133D01*
X48042Y52500D01*
X49500D01*
Y53958D01*
D02*
G37*
G36*
X255545Y59143D02*
X254454D01*
X253401Y58861D01*
X252456Y58315D01*
X251684Y57544D01*
X251139Y56599D01*
X250857Y55546D01*
Y54454D01*
X251139Y53401D01*
X251684Y52456D01*
X252456Y51684D01*
X253401Y51139D01*
X254454Y50857D01*
X255545D01*
X256599Y51139D01*
X257544Y51684D01*
X258315Y52456D01*
X258861Y53401D01*
X259143Y54454D01*
Y55546D01*
X258861Y56599D01*
X258315Y57544D01*
X257544Y58315D01*
X256599Y58861D01*
X255545Y59143D01*
D02*
G37*
G36*
X204318Y53600D02*
X203682D01*
X203094Y53356D01*
X202644Y52906D01*
X202400Y52318D01*
Y51682D01*
X202644Y51094D01*
X203094Y50644D01*
X203682Y50400D01*
X204318D01*
X204906Y50644D01*
X205356Y51094D01*
X205600Y51682D01*
Y52318D01*
X205356Y52906D01*
X204906Y53356D01*
X204318Y53600D01*
D02*
G37*
G36*
X51958Y51500D02*
X50500D01*
Y50042D01*
X51133Y50305D01*
X51696Y50867D01*
X51958Y51500D01*
D02*
G37*
G36*
X49500D02*
X48042D01*
X48305Y50867D01*
X48867Y50305D01*
X49500Y50042D01*
Y51500D01*
D02*
G37*
G36*
X99500Y47458D02*
Y46000D01*
X100958D01*
X100696Y46633D01*
X100133Y47196D01*
X99500Y47458D01*
D02*
G37*
G36*
X98500D02*
X97867Y47196D01*
X97304Y46633D01*
X97042Y46000D01*
X98500D01*
Y47458D01*
D02*
G37*
G36*
X100958Y45000D02*
X99500D01*
Y43542D01*
X100133Y43804D01*
X100696Y44367D01*
X100958Y45000D01*
D02*
G37*
G36*
X98500D02*
X97042D01*
X97304Y44367D01*
X97867Y43804D01*
X98500Y43542D01*
Y45000D01*
D02*
G37*
G36*
X84000Y42958D02*
Y41500D01*
X85458D01*
X85195Y42133D01*
X84633Y42696D01*
X84000Y42958D01*
D02*
G37*
G36*
X83000D02*
X82367Y42696D01*
X81805Y42133D01*
X81542Y41500D01*
X83000D01*
Y42958D01*
D02*
G37*
G36*
X50500D02*
Y41500D01*
X51958D01*
X51696Y42133D01*
X51133Y42696D01*
X50500Y42958D01*
D02*
G37*
G36*
X49500D02*
X48867Y42696D01*
X48305Y42133D01*
X48042Y41500D01*
X49500D01*
Y42958D01*
D02*
G37*
G36*
X85458Y40500D02*
X84000D01*
Y39042D01*
X84633Y39305D01*
X85195Y39867D01*
X85458Y40500D01*
D02*
G37*
G36*
X83000D02*
X81542D01*
X81805Y39867D01*
X82367Y39305D01*
X83000Y39042D01*
Y40500D01*
D02*
G37*
G36*
X51958D02*
X50500D01*
Y39042D01*
X51133Y39305D01*
X51696Y39867D01*
X51958Y40500D01*
D02*
G37*
G36*
X49500D02*
X48042D01*
X48305Y39867D01*
X48867Y39305D01*
X49500Y39042D01*
Y40500D01*
D02*
G37*
G36*
X135818Y41400D02*
X135182D01*
X134594Y41156D01*
X134144Y40706D01*
X133900Y40118D01*
Y39482D01*
X134144Y38894D01*
X134594Y38444D01*
X135182Y38200D01*
X135818D01*
X136406Y38444D01*
X136856Y38894D01*
X137100Y39482D01*
Y40118D01*
X136856Y40706D01*
X136406Y41156D01*
X135818Y41400D01*
D02*
G37*
G36*
X122500Y38458D02*
Y37000D01*
X123958D01*
X123696Y37633D01*
X123133Y38195D01*
X122500Y38458D01*
D02*
G37*
G36*
X121500D02*
X120867Y38195D01*
X120305Y37633D01*
X120042Y37000D01*
X121500D01*
Y38458D01*
D02*
G37*
G36*
X123958Y36000D02*
X122500D01*
Y34542D01*
X123133Y34804D01*
X123696Y35367D01*
X123958Y36000D01*
D02*
G37*
G36*
X121500D02*
X120042D01*
X120305Y35367D01*
X120867Y34804D01*
X121500Y34542D01*
Y36000D01*
D02*
G37*
G36*
X106500Y35958D02*
Y34500D01*
X107958D01*
X107695Y35133D01*
X107133Y35695D01*
X106500Y35958D01*
D02*
G37*
G36*
X105500D02*
X104867Y35695D01*
X104305Y35133D01*
X104042Y34500D01*
X105500D01*
Y35958D01*
D02*
G37*
G36*
X107958Y33500D02*
X106500D01*
Y32042D01*
X107133Y32304D01*
X107695Y32867D01*
X107958Y33500D01*
D02*
G37*
G36*
X105500D02*
X104042D01*
X104305Y32867D01*
X104867Y32304D01*
X105500Y32042D01*
Y33500D01*
D02*
G37*
G36*
X50318Y33600D02*
X49682D01*
X49094Y33356D01*
X48644Y32906D01*
X48400Y32318D01*
Y31682D01*
X48644Y31094D01*
X49094Y30644D01*
X49682Y30400D01*
X50318D01*
X50906Y30644D01*
X51356Y31094D01*
X51600Y31682D01*
Y32318D01*
X51356Y32906D01*
X50906Y33356D01*
X50318Y33600D01*
D02*
G37*
G36*
X82098Y27543D02*
X82000D01*
Y23500D01*
X86043D01*
Y23598D01*
X85734Y24754D01*
X85136Y25790D01*
X84290Y26636D01*
X83254Y27234D01*
X82098Y27543D01*
D02*
G37*
G36*
X81000D02*
X80902D01*
X79746Y27234D01*
X78710Y26636D01*
X77864Y25790D01*
X77266Y24754D01*
X76957Y23598D01*
Y23500D01*
X81000D01*
Y27543D01*
D02*
G37*
G36*
X100318Y24600D02*
X99682D01*
X99094Y24356D01*
X98644Y23906D01*
X98400Y23318D01*
Y22682D01*
X98644Y22094D01*
X99094Y21644D01*
X99682Y21400D01*
X100318D01*
X100906Y21644D01*
X101356Y22094D01*
X101600Y22682D01*
Y23318D01*
X101356Y23906D01*
X100906Y24356D01*
X100318Y24600D01*
D02*
G37*
G36*
X92045Y27143D02*
X90955D01*
X89901Y26861D01*
X88956Y26316D01*
X88184Y25544D01*
X87639Y24599D01*
X87357Y23546D01*
Y22455D01*
X87639Y21401D01*
X88184Y20456D01*
X88956Y19684D01*
X89901Y19139D01*
X90955Y18857D01*
X92045D01*
X93099Y19139D01*
X94044Y19684D01*
X94815Y20456D01*
X95361Y21401D01*
X95643Y22455D01*
Y23546D01*
X95361Y24599D01*
X94815Y25544D01*
X94044Y26316D01*
X93099Y26861D01*
X92045Y27143D01*
D02*
G37*
G36*
X72045D02*
X70955D01*
X69901Y26861D01*
X68956Y26316D01*
X68185Y25544D01*
X67639Y24599D01*
X67357Y23546D01*
Y22455D01*
X67639Y21401D01*
X68185Y20456D01*
X68956Y19684D01*
X69901Y19139D01*
X70955Y18857D01*
X72045D01*
X73099Y19139D01*
X74044Y19684D01*
X74815Y20456D01*
X75361Y21401D01*
X75643Y22455D01*
Y23546D01*
X75361Y24599D01*
X74815Y25544D01*
X74044Y26316D01*
X73099Y26861D01*
X72045Y27143D01*
D02*
G37*
G36*
X65643D02*
X57357D01*
Y18857D01*
X65643D01*
Y27143D01*
D02*
G37*
G36*
X86043Y22500D02*
X82000D01*
Y18457D01*
X82098D01*
X83254Y18766D01*
X84290Y19365D01*
X85136Y20210D01*
X85734Y21246D01*
X86043Y22402D01*
Y22500D01*
D02*
G37*
G36*
X81000D02*
X76957D01*
Y22402D01*
X77266Y21246D01*
X77864Y20210D01*
X78710Y19365D01*
X79746Y18766D01*
X80902Y18457D01*
X81000D01*
Y22500D01*
D02*
G37*
G36*
X19318Y262600D02*
X18682D01*
X18094Y262356D01*
X17644Y261906D01*
X17400Y261318D01*
Y260682D01*
X17644Y260094D01*
X18094Y259644D01*
X18682Y259400D01*
X19318D01*
X19906Y259644D01*
X20356Y260094D01*
X20600Y260682D01*
Y261318D01*
X20356Y261906D01*
X19906Y262356D01*
X19318Y262600D01*
D02*
G37*
G36*
X25500Y249458D02*
Y248000D01*
X26958D01*
X26695Y248633D01*
X26133Y249196D01*
X25500Y249458D01*
D02*
G37*
G36*
X24500D02*
X23867Y249196D01*
X23304Y248633D01*
X23042Y248000D01*
X24500D01*
Y249458D01*
D02*
G37*
G36*
X13500D02*
Y248000D01*
X14958D01*
X14695Y248633D01*
X14133Y249196D01*
X13500Y249458D01*
D02*
G37*
G36*
X12500D02*
X11867Y249196D01*
X11304Y248633D01*
X11042Y248000D01*
X12500D01*
Y249458D01*
D02*
G37*
G36*
X26958Y247000D02*
X25500D01*
Y245542D01*
X26133Y245805D01*
X26695Y246367D01*
X26958Y247000D01*
D02*
G37*
G36*
X24500D02*
X23042D01*
X23304Y246367D01*
X23867Y245805D01*
X24500Y245542D01*
Y247000D01*
D02*
G37*
G36*
X14958D02*
X13500D01*
Y245542D01*
X14133Y245805D01*
X14695Y246367D01*
X14958Y247000D01*
D02*
G37*
G36*
X12500D02*
X11042D01*
X11304Y246367D01*
X11867Y245805D01*
X12500Y245542D01*
Y247000D01*
D02*
G37*
G36*
X79500Y246958D02*
Y245500D01*
X80958D01*
X80695Y246133D01*
X80133Y246695D01*
X79500Y246958D01*
D02*
G37*
G36*
X78500D02*
X77867Y246695D01*
X77305Y246133D01*
X77042Y245500D01*
X78500D01*
Y246958D01*
D02*
G37*
G36*
X80958Y244500D02*
X79500D01*
Y243042D01*
X80133Y243304D01*
X80695Y243867D01*
X80958Y244500D01*
D02*
G37*
G36*
X78500D02*
X77042D01*
X77305Y243867D01*
X77867Y243304D01*
X78500Y243042D01*
Y244500D01*
D02*
G37*
G36*
X132318Y241900D02*
X131682D01*
X131094Y241656D01*
X130644Y241206D01*
X130400Y240618D01*
Y239982D01*
X130644Y239394D01*
X131094Y238944D01*
X131682Y238700D01*
X132318D01*
X132906Y238944D01*
X133356Y239394D01*
X133600Y239982D01*
Y240618D01*
X133356Y241206D01*
X132906Y241656D01*
X132318Y241900D01*
D02*
G37*
G36*
X19500Y239958D02*
Y238500D01*
X20958D01*
X20696Y239133D01*
X20133Y239696D01*
X19500Y239958D01*
D02*
G37*
G36*
X18500D02*
X17867Y239696D01*
X17304Y239133D01*
X17042Y238500D01*
X18500D01*
Y239958D01*
D02*
G37*
G36*
X104318Y241600D02*
X103682D01*
X103094Y241356D01*
X102644Y240906D01*
X102400Y240318D01*
Y239682D01*
X102644Y239094D01*
X103094Y238644D01*
X103682Y238400D01*
X104318D01*
X104906Y238644D01*
X105356Y239094D01*
X105600Y239682D01*
Y240318D01*
X105356Y240906D01*
X104906Y241356D01*
X104318Y241600D01*
D02*
G37*
G36*
X20958Y237500D02*
X19500D01*
Y236042D01*
X20133Y236304D01*
X20696Y236867D01*
X20958Y237500D01*
D02*
G37*
G36*
X18500D02*
X17042D01*
X17304Y236867D01*
X17867Y236304D01*
X18500Y236042D01*
Y237500D01*
D02*
G37*
G36*
X113418Y232100D02*
X112782D01*
X112194Y231856D01*
X111744Y231406D01*
X111500Y230818D01*
Y230182D01*
X111744Y229594D01*
X112194Y229144D01*
X112782Y228900D01*
X113418D01*
X114006Y229144D01*
X114456Y229594D01*
X114700Y230182D01*
Y230818D01*
X114456Y231406D01*
X114006Y231856D01*
X113418Y232100D01*
D02*
G37*
G36*
X79318Y228600D02*
X78682D01*
X78094Y228356D01*
X77644Y227906D01*
X77400Y227318D01*
Y226682D01*
X77644Y226094D01*
X78094Y225644D01*
X78682Y225400D01*
X79318D01*
X79906Y225644D01*
X80356Y226094D01*
X80600Y226682D01*
Y227318D01*
X80356Y227906D01*
X79906Y228356D01*
X79318Y228600D01*
D02*
G37*
G36*
X118284Y223553D02*
X117653D01*
X117071Y223312D01*
X116625Y222866D01*
X116384Y222284D01*
Y222046D01*
X116324Y221644D01*
X116000Y221596D01*
X115676Y221644D01*
X115616Y222046D01*
Y222284D01*
X115375Y222866D01*
X114929Y223311D01*
X114347Y223553D01*
X113716D01*
X113134Y223311D01*
X112688Y222866D01*
X112447Y222284D01*
Y221653D01*
X112688Y221071D01*
X113134Y220625D01*
X113716Y220384D01*
X113954D01*
X114084Y220365D01*
X114205Y220159D01*
X113954Y219616D01*
X113716D01*
X113134Y219374D01*
X112688Y218929D01*
X112447Y218347D01*
Y217716D01*
X112688Y217134D01*
X113134Y216688D01*
X113716Y216447D01*
X114347D01*
X114929Y216688D01*
X115375Y217134D01*
X115616Y217716D01*
Y217954D01*
X115627Y218025D01*
X116000Y218222D01*
X116374Y218026D01*
X116384Y217954D01*
Y217716D01*
X116625Y217134D01*
X117071Y216688D01*
X117653Y216447D01*
X118284D01*
X118866Y216688D01*
X119312Y217134D01*
X119553Y217716D01*
Y218347D01*
X119312Y218929D01*
X118866Y219374D01*
X118284Y219616D01*
X118046D01*
X117795Y220159D01*
X117916Y220365D01*
X118046Y220384D01*
X118284D01*
X118866Y220625D01*
X119312Y221071D01*
X119553Y221653D01*
Y222284D01*
X119312Y222866D01*
X118866Y223312D01*
X118284Y223553D01*
D02*
G37*
G36*
X19500Y222958D02*
Y221500D01*
X20958D01*
X20696Y222133D01*
X20133Y222695D01*
X19500Y222958D01*
D02*
G37*
G36*
X18500D02*
X17867Y222695D01*
X17304Y222133D01*
X17042Y221500D01*
X18500D01*
Y222958D01*
D02*
G37*
G36*
X140318Y224600D02*
X139682D01*
X139094Y224356D01*
X138644Y223906D01*
X138400Y223318D01*
Y222682D01*
X138644Y222094D01*
X139094Y221644D01*
X139682Y221400D01*
X140318D01*
X140906Y221644D01*
X141356Y222094D01*
X141600Y222682D01*
Y223318D01*
X141356Y223906D01*
X140906Y224356D01*
X140318Y224600D01*
D02*
G37*
G36*
X20958Y220500D02*
X19500D01*
Y219042D01*
X20133Y219304D01*
X20696Y219867D01*
X20958Y220500D01*
D02*
G37*
G36*
X18500D02*
X17042D01*
X17304Y219867D01*
X17867Y219304D01*
X18500Y219042D01*
Y220500D01*
D02*
G37*
G36*
X28956Y220450D02*
X28319D01*
X27731Y220207D01*
X27281Y219757D01*
X27038Y219169D01*
Y218532D01*
X27281Y217944D01*
X27731Y217494D01*
X28319Y217250D01*
X28956D01*
X29544Y217494D01*
X29994Y217944D01*
X30238Y218532D01*
Y219169D01*
X29994Y219757D01*
X29544Y220207D01*
X28956Y220450D01*
D02*
G37*
G36*
X72818Y220400D02*
X72182D01*
X71594Y220156D01*
X71144Y219706D01*
X70900Y219118D01*
Y218482D01*
X71144Y217894D01*
X71594Y217444D01*
X72182Y217200D01*
X72818D01*
X73406Y217444D01*
X73856Y217894D01*
X74100Y218482D01*
Y219118D01*
X73856Y219706D01*
X73406Y220156D01*
X72818Y220400D01*
D02*
G37*
G36*
X129318Y219600D02*
X128682D01*
X128094Y219356D01*
X127644Y218906D01*
X127400Y218318D01*
Y217682D01*
X127644Y217094D01*
X128094Y216644D01*
X128682Y216400D01*
X129318D01*
X129906Y216644D01*
X130356Y217094D01*
X130600Y217682D01*
Y218318D01*
X130356Y218906D01*
X129906Y219356D01*
X129318Y219600D01*
D02*
G37*
G36*
X132500Y216958D02*
Y215500D01*
X133958D01*
X133695Y216133D01*
X133133Y216695D01*
X132500Y216958D01*
D02*
G37*
G36*
X131500D02*
X130867Y216695D01*
X130305Y216133D01*
X130042Y215500D01*
X131500D01*
Y216958D01*
D02*
G37*
G36*
X23500Y215958D02*
Y214500D01*
X24958D01*
X24696Y215133D01*
X24133Y215696D01*
X23500Y215958D01*
D02*
G37*
G36*
X22500D02*
X21867Y215696D01*
X21305Y215133D01*
X21042Y214500D01*
X22500D01*
Y215958D01*
D02*
G37*
G36*
X15500D02*
Y214500D01*
X16958D01*
X16695Y215133D01*
X16133Y215696D01*
X15500Y215958D01*
D02*
G37*
G36*
X14500D02*
X13867Y215696D01*
X13305Y215133D01*
X13042Y214500D01*
X14500D01*
Y215958D01*
D02*
G37*
G36*
X133958Y214500D02*
X132500D01*
Y213042D01*
X133133Y213304D01*
X133695Y213867D01*
X133958Y214500D01*
D02*
G37*
G36*
X131500D02*
X130042D01*
X130305Y213867D01*
X130867Y213304D01*
X131500Y213042D01*
Y214500D01*
D02*
G37*
G36*
X24958Y213500D02*
X23500D01*
Y212042D01*
X24133Y212304D01*
X24696Y212867D01*
X24958Y213500D01*
D02*
G37*
G36*
X22500D02*
X21042D01*
X21305Y212867D01*
X21867Y212304D01*
X22500Y212042D01*
Y213500D01*
D02*
G37*
G36*
X16958D02*
X15500D01*
Y212042D01*
X16133Y212304D01*
X16695Y212867D01*
X16958Y213500D01*
D02*
G37*
G36*
X14500D02*
X13042D01*
X13305Y212867D01*
X13867Y212304D01*
X14500Y212042D01*
Y213500D01*
D02*
G37*
G36*
X106018Y214300D02*
X105382D01*
X104794Y214056D01*
X104344Y213606D01*
X104100Y213018D01*
Y212382D01*
X104344Y211794D01*
X104794Y211344D01*
X105382Y211100D01*
X106018D01*
X106606Y211344D01*
X107056Y211794D01*
X107300Y212382D01*
Y213018D01*
X107056Y213606D01*
X106606Y214056D01*
X106018Y214300D01*
D02*
G37*
G36*
X38818Y211600D02*
X38182D01*
X37594Y211356D01*
X37144Y210906D01*
X36900Y210318D01*
Y209682D01*
X37144Y209094D01*
X37594Y208644D01*
X38182Y208400D01*
X38818D01*
X39406Y208644D01*
X39856Y209094D01*
X40100Y209682D01*
Y210318D01*
X39856Y210906D01*
X39406Y211356D01*
X38818Y211600D01*
D02*
G37*
G36*
X23500Y207958D02*
Y206500D01*
X24958D01*
X24696Y207133D01*
X24133Y207696D01*
X23500Y207958D01*
D02*
G37*
G36*
X22500D02*
X21867Y207696D01*
X21305Y207133D01*
X21042Y206500D01*
X22500D01*
Y207958D01*
D02*
G37*
G36*
X15500D02*
Y206500D01*
X16958D01*
X16695Y207133D01*
X16133Y207696D01*
X15500Y207958D01*
D02*
G37*
G36*
X14500D02*
X13867Y207696D01*
X13305Y207133D01*
X13042Y206500D01*
X14500D01*
Y207958D01*
D02*
G37*
G36*
X24958Y205500D02*
X23500D01*
Y204042D01*
X24133Y204305D01*
X24696Y204867D01*
X24958Y205500D01*
D02*
G37*
G36*
X22500D02*
X21042D01*
X21305Y204867D01*
X21867Y204305D01*
X22500Y204042D01*
Y205500D01*
D02*
G37*
G36*
X16958D02*
X15500D01*
Y204042D01*
X16133Y204305D01*
X16695Y204867D01*
X16958Y205500D01*
D02*
G37*
G36*
X14500D02*
X13042D01*
X13305Y204867D01*
X13867Y204305D01*
X14500Y204042D01*
Y205500D01*
D02*
G37*
G36*
X133318Y205600D02*
X132682D01*
X132094Y205356D01*
X131644Y204906D01*
X131400Y204318D01*
Y203682D01*
X131644Y203094D01*
X132094Y202644D01*
X132682Y202400D01*
X133318D01*
X133906Y202644D01*
X134356Y203094D01*
X134600Y203682D01*
Y204318D01*
X134356Y204906D01*
X133906Y205356D01*
X133318Y205600D01*
D02*
G37*
G36*
X38918Y202400D02*
X38282D01*
X37694Y202156D01*
X37244Y201706D01*
X37000Y201118D01*
Y200482D01*
X37244Y199894D01*
X37694Y199444D01*
X38282Y199200D01*
X38918D01*
X39506Y199444D01*
X39956Y199894D01*
X40200Y200482D01*
Y201118D01*
X39956Y201706D01*
X39506Y202156D01*
X38918Y202400D01*
D02*
G37*
G36*
X64218Y202000D02*
X63582D01*
X62994Y201756D01*
X62544Y201306D01*
X62300Y200718D01*
Y200082D01*
X62544Y199494D01*
X62994Y199044D01*
X63582Y198800D01*
X64218D01*
X64806Y199044D01*
X65256Y199494D01*
X65500Y200082D01*
Y200718D01*
X65256Y201306D01*
X64806Y201756D01*
X64218Y202000D01*
D02*
G37*
G36*
X56884Y209028D02*
X56253D01*
X55671Y208786D01*
X55225Y208341D01*
X54984Y207758D01*
Y207128D01*
X55225Y206546D01*
X55671Y206100D01*
X56053Y205942D01*
Y205401D01*
X55671Y205243D01*
X55225Y204797D01*
X54984Y204215D01*
Y204100D01*
Y203585D01*
X55225Y203003D01*
X55671Y202557D01*
X56053Y202399D01*
Y201858D01*
X55671Y201700D01*
X55225Y201254D01*
X54984Y200672D01*
Y200042D01*
X55225Y199459D01*
X55671Y199014D01*
X56253Y198772D01*
X56884D01*
X57466Y199014D01*
X57912Y199459D01*
X58153Y200042D01*
Y200672D01*
X57912Y201254D01*
X57466Y201700D01*
X57085Y201858D01*
Y202399D01*
X57466Y202557D01*
X57912Y203003D01*
X58118Y203500D01*
D01*
X58153Y203585D01*
Y204100D01*
Y204215D01*
X57912Y204797D01*
X57466Y205243D01*
X57085Y205401D01*
Y205942D01*
X57466Y206100D01*
X57912Y206546D01*
X58153Y207128D01*
Y207758D01*
X57912Y208341D01*
X57466Y208786D01*
X56884Y209028D01*
D02*
G37*
G36*
X52947D02*
X52316D01*
X51734Y208786D01*
X51288Y208341D01*
X51047Y207758D01*
Y207128D01*
X51288Y206546D01*
X51734Y206100D01*
X52115Y205942D01*
Y205401D01*
X51734Y205243D01*
X51288Y204797D01*
X51047Y204215D01*
Y203585D01*
X51082Y203500D01*
D01*
X51288Y203003D01*
X51734Y202557D01*
X52115Y202399D01*
Y201858D01*
X51734Y201700D01*
X51288Y201254D01*
X51047Y200672D01*
Y200042D01*
X51288Y199459D01*
X51734Y199014D01*
X52316Y198772D01*
X52947D01*
X53529Y199014D01*
X53975Y199459D01*
X54216Y200042D01*
Y200672D01*
X53975Y201254D01*
X53529Y201700D01*
X53148Y201858D01*
Y202399D01*
X53529Y202557D01*
X53975Y203003D01*
X54216Y203585D01*
Y203788D01*
Y204215D01*
X53975Y204797D01*
X53529Y205243D01*
X53148Y205401D01*
Y205942D01*
X53529Y206100D01*
X53975Y206546D01*
X54216Y207128D01*
Y207758D01*
X53975Y208341D01*
X53529Y208786D01*
X52947Y209028D01*
D02*
G37*
G36*
X15500Y199958D02*
Y198500D01*
X16958D01*
X16695Y199133D01*
X16133Y199696D01*
X15500Y199958D01*
D02*
G37*
G36*
X14500D02*
X13867Y199696D01*
X13305Y199133D01*
X13042Y198500D01*
X14500D01*
Y199958D01*
D02*
G37*
G36*
X23318Y199600D02*
X22682D01*
X22094Y199356D01*
X21644Y198906D01*
X21400Y198318D01*
Y197682D01*
X21644Y197094D01*
X22094Y196644D01*
X22682Y196400D01*
X23318D01*
X23906Y196644D01*
X24356Y197094D01*
X24600Y197682D01*
Y198318D01*
X24356Y198906D01*
X23906Y199356D01*
X23318Y199600D01*
D02*
G37*
G36*
X16958Y197500D02*
X15500D01*
Y196042D01*
X16133Y196305D01*
X16695Y196867D01*
X16958Y197500D01*
D02*
G37*
G36*
X14500D02*
X13042D01*
X13305Y196867D01*
X13867Y196305D01*
X14500Y196042D01*
Y197500D01*
D02*
G37*
G36*
X19500Y193958D02*
Y192500D01*
X20958D01*
X20696Y193133D01*
X20133Y193695D01*
X19500Y193958D01*
D02*
G37*
G36*
X18500D02*
X17867Y193695D01*
X17304Y193133D01*
X17042Y192500D01*
X18500D01*
Y193958D01*
D02*
G37*
G36*
X95318Y194100D02*
X94682D01*
X94094Y193856D01*
X93644Y193406D01*
X93400Y192818D01*
Y192182D01*
X93644Y191594D01*
X94094Y191144D01*
X94682Y190900D01*
X95318D01*
X95906Y191144D01*
X96356Y191594D01*
X96600Y192182D01*
Y192818D01*
X96356Y193406D01*
X95906Y193856D01*
X95318Y194100D01*
D02*
G37*
G36*
X20958Y191500D02*
X19500D01*
Y190042D01*
X20133Y190305D01*
X20696Y190867D01*
X20958Y191500D01*
D02*
G37*
G36*
X18500D02*
X17042D01*
X17304Y190867D01*
X17867Y190305D01*
X18500Y190042D01*
Y191500D01*
D02*
G37*
G36*
X124598Y264543D02*
X124500D01*
Y260500D01*
X128543D01*
Y260598D01*
X128234Y261754D01*
X127636Y262790D01*
X126790Y263635D01*
X125754Y264234D01*
X124598Y264543D01*
D02*
G37*
G36*
X141500Y261958D02*
Y260500D01*
X142958D01*
X142695Y261133D01*
X142133Y261696D01*
X141500Y261958D01*
D02*
G37*
G36*
X140500D02*
X139867Y261696D01*
X139304Y261133D01*
X139042Y260500D01*
X140500D01*
Y261958D01*
D02*
G37*
G36*
X132500D02*
Y260500D01*
X133958D01*
X133695Y261133D01*
X133133Y261696D01*
X132500Y261958D01*
D02*
G37*
G36*
X131500D02*
X130867Y261696D01*
X130305Y261133D01*
X130042Y260500D01*
X131500D01*
Y261958D01*
D02*
G37*
G36*
X123500Y264543D02*
X123402D01*
X122246Y264234D01*
X121210Y263635D01*
X120364Y262790D01*
X119766Y261754D01*
X119457Y260598D01*
Y260500D01*
X123500D01*
Y264543D01*
D02*
G37*
G36*
X142958Y259500D02*
X141500D01*
Y258042D01*
X142133Y258305D01*
X142695Y258867D01*
X142958Y259500D01*
D02*
G37*
G36*
X140500D02*
X139042D01*
X139304Y258867D01*
X139867Y258305D01*
X140500Y258042D01*
Y259500D01*
D02*
G37*
G36*
X133958D02*
X132500D01*
Y258042D01*
X133133Y258305D01*
X133695Y258867D01*
X133958Y259500D01*
D02*
G37*
G36*
X131500D02*
X130042D01*
X130305Y258867D01*
X130867Y258305D01*
X131500Y258042D01*
Y259500D01*
D02*
G37*
G36*
X114546Y264143D02*
X113454D01*
X112401Y263861D01*
X111456Y263316D01*
X110685Y262544D01*
X110139Y261599D01*
X109857Y260545D01*
Y259454D01*
X110139Y258401D01*
X110685Y257456D01*
X111456Y256684D01*
X112401Y256139D01*
X113454Y255857D01*
X114546D01*
X115599Y256139D01*
X116544Y256684D01*
X117315Y257456D01*
X117861Y258401D01*
X118143Y259454D01*
Y260545D01*
X117861Y261599D01*
X117315Y262544D01*
X116544Y263316D01*
X115599Y263861D01*
X114546Y264143D01*
D02*
G37*
G36*
X108143D02*
X99857D01*
Y255857D01*
X108143D01*
Y264143D01*
D02*
G37*
G36*
X128543Y259500D02*
X124500D01*
Y255457D01*
X124598D01*
X125754Y255766D01*
X126790Y256364D01*
X127636Y257210D01*
X128234Y258246D01*
X128543Y259402D01*
Y259500D01*
D02*
G37*
G36*
X123500D02*
X119457D01*
Y259402D01*
X119766Y258246D01*
X120364Y257210D01*
X121210Y256364D01*
X122246Y255766D01*
X123402Y255457D01*
X123500D01*
Y259500D01*
D02*
G37*
G36*
X141500Y252958D02*
Y251500D01*
X142958D01*
X142695Y252133D01*
X142133Y252695D01*
X141500Y252958D01*
D02*
G37*
G36*
X140500D02*
X139867Y252695D01*
X139304Y252133D01*
X139042Y251500D01*
X140500D01*
Y252958D01*
D02*
G37*
G36*
X132500D02*
Y251500D01*
X133958D01*
X133695Y252133D01*
X133133Y252695D01*
X132500Y252958D01*
D02*
G37*
G36*
X131500D02*
X130867Y252695D01*
X130305Y252133D01*
X130042Y251500D01*
X131500D01*
Y252958D01*
D02*
G37*
G36*
X114500D02*
Y251500D01*
X115958D01*
X115696Y252133D01*
X115133Y252695D01*
X114500Y252958D01*
D02*
G37*
G36*
X113500D02*
X112867Y252695D01*
X112304Y252133D01*
X112042Y251500D01*
X113500D01*
Y252958D01*
D02*
G37*
G36*
X104318Y254600D02*
X103682D01*
X103094Y254356D01*
X102644Y253906D01*
X102400Y253318D01*
Y252682D01*
X102644Y252094D01*
X103094Y251644D01*
X103682Y251400D01*
X104318D01*
X104906Y251644D01*
X105356Y252094D01*
X105600Y252682D01*
Y253318D01*
X105356Y253906D01*
X104906Y254356D01*
X104318Y254600D01*
D02*
G37*
G36*
X142958Y250500D02*
X141500D01*
Y249042D01*
X142133Y249305D01*
X142695Y249867D01*
X142958Y250500D01*
D02*
G37*
G36*
X140500D02*
X139042D01*
X139304Y249867D01*
X139867Y249305D01*
X140500Y249042D01*
Y250500D01*
D02*
G37*
G36*
X133958D02*
X132500D01*
Y249042D01*
X133133Y249305D01*
X133695Y249867D01*
X133958Y250500D01*
D02*
G37*
G36*
X131500D02*
X130042D01*
X130305Y249867D01*
X130867Y249305D01*
X131500Y249042D01*
Y250500D01*
D02*
G37*
G36*
X115958D02*
X114500D01*
Y249042D01*
X115133Y249305D01*
X115696Y249867D01*
X115958Y250500D01*
D02*
G37*
G36*
X113500D02*
X112042D01*
X112304Y249867D01*
X112867Y249305D01*
X113500Y249042D01*
Y250500D01*
D02*
G37*
%LPD*%
D138*
X81500Y23000D02*
D03*
X255000Y105000D02*
D03*
X124000Y260000D02*
D03*
X255000Y165000D02*
D03*
D141*
X151000Y90000D02*
D03*
D143*
X50000Y52000D02*
D03*
X19000Y221000D02*
D03*
X181000Y260000D02*
D03*
X106000Y34000D02*
D03*
X91500Y169500D02*
D03*
X96000Y176000D02*
D03*
X87000D02*
D03*
X78000D02*
D03*
X114000Y251000D02*
D03*
X132000D02*
D03*
X141000D02*
D03*
Y260000D02*
D03*
X132000D02*
D03*
X15000Y214000D02*
D03*
X23000D02*
D03*
Y206000D02*
D03*
X15000D02*
D03*
Y198000D02*
D03*
X25000Y247500D02*
D03*
X13000D02*
D03*
X185000Y90000D02*
D03*
X139000Y65000D02*
D03*
X99000Y45500D02*
D03*
X174500Y164500D02*
D03*
X62000Y57126D02*
D03*
X144000Y90000D02*
D03*
X19000Y238000D02*
D03*
Y192000D02*
D03*
X89000Y151000D02*
D03*
X247000Y105000D02*
D03*
Y165000D02*
D03*
X122000Y36500D02*
D03*
X50000Y41000D02*
D03*
X102500Y172346D02*
D03*
Y149653D02*
D03*
X73000Y162000D02*
D03*
Y149000D02*
D03*
X132000Y215000D02*
D03*
X171000Y195500D02*
D03*
X228738Y258000D02*
D03*
X188500Y236000D02*
D03*
X83500Y41000D02*
D03*
X191600Y267700D02*
D03*
X79000Y245000D02*
D03*
M02*
