M48
;Layer_Color=9474304
;FILE_FORMAT=2:5
INCH,LZ
;TYPE=PLATED
T1F00S00C0.00787
T2F00S00C0.00800
T3F00S00C0.02560
T4F00S00C0.05000
T5F00S00C0.10630
%
T01
X0164835Y0179
X0169165
X0117968Y0218032
X0114032Y0218032
X0056568Y0207443
Y02039
Y0200357
X0052631
Y02039
Y0207443
X0114032Y0221969
X0116Y022
X0117968Y0221969
T02
X0002362Y0037008
Y004685
Y0056693
X0012205
X0022047
X005Y0052
Y0041
Y0032
X0062Y0057126
X00688Y0059
X00835Y0041
X0099Y00455
X0106Y0034
X01Y0023
X0122Y00365
X01355Y00398
X0204Y0052
X02005Y0056
X01975Y006
X0185Y009
Y00985
Y0106
X0177Y0125
X0185Y0135
X0205
Y0125
X0202Y0172
X0197
Y0177
X0202
X0187
Y0172
X0182
Y0177
X0181Y0188
X0171Y01955
X0167984Y017
X01745Y01645
X0158Y0164
X0194Y01645
X0235Y0165
X0247
Y0155
Y0115
Y0105
X01625Y0085
Y008
X0144
Y007
Y0065
X0139
X0144Y009
X01368Y00953
Y01047
Y01095
X014765Y011035
X01475Y01292
X01208Y01345
X011Y01405
X01025Y0149653
X0102407Y0156346
X00925Y01564
X0089Y0151
X0083Y01435
X00878Y01375
X00783Y01345
X0073Y0149
X0068Y01565
X0073Y0162
Y0174
X0078Y0176
X0087
X0096
X01025Y0172346
X00915Y01695
X00824Y0169
X0095Y01925
X0113Y0187
X012Y01656
Y01563
X0143Y0164
X0144Y0171
Y0176
X0151
X0147Y0183
X0133Y0204
X0132Y0215
X0129Y0218
X01057Y02127
X00639Y02004
X00386Y02008
X00385Y021
X0023Y0214
X0015
Y0206
X0023
Y0198
X0015
X0019Y0192
X0044Y0191372
X00358Y01345
X0025984Y0132283
Y0142126
X0022047Y0148031
X0012205
X0002362
Y0157874
Y0167717
X0025984Y0122441
Y0112598
Y0102756
Y0092913
Y0083071
Y0073228
Y0063386
X00381Y00705
X005Y0067
X00783Y00705
X0083026Y0068
X008775Y0065
X01114Y00705
X01191Y00943
X0119Y01058
X00925
Y00943
X0068Y0098022
X0067987Y0106613
X0043913
X0044Y0098
X0028638Y021885
X0019Y0221
Y0238
X0025Y02475
X0013
X0019Y0261
X0079Y0245
Y0227
X00725Y02188
X01131Y02305
X0104Y024
Y0253
X0114Y0251
X0132
X0141
Y026
X0132
Y02403
X014Y0223
X01885Y0236
X01965Y02295
X0196362Y0267562
X01916Y02677
X0181Y026
X0228738Y0258
X02374
X0256
T03
X0156Y007
Y0075
Y008
Y0085
Y009
X0151
Y0085
Y008
Y0075
Y007
T04
X00615Y0023
X00715
X00815
X00915
X0255Y0055
Y0065
Y0075
Y0085
Y0105
Y0115
Y0125
Y0135
Y0155
Y0165
Y0175
Y0185
X0124Y026
X0114
X0104
T05
X00085Y00085
X0267
X00085Y0267
X0267
M30
